<?xml version="1.0" encoding="utf-8" standalone="no"?>
<!DOCTYPE svg PUBLIC "-//W3C//DTD SVG 1.1//EN"
  "http://www.w3.org/Graphics/SVG/1.1/DTD/svg11.dtd">
<svg xmlns:xlink="http://www.w3.org/1999/xlink" width="856.004375pt" height="439.114375pt" viewBox="0 0 856.004375 439.114375" xmlns="http://www.w3.org/2000/svg" version="1.1">
 <metadata>
  <rdf:RDF xmlns:dc="http://purl.org/dc/elements/1.1/" xmlns:cc="http://creativecommons.org/ns#" xmlns:rdf="http://www.w3.org/1999/02/22-rdf-syntax-ns#">
   <cc:Work>
    <dc:type rdf:resource="http://purl.org/dc/dcmitype/StillImage"/>
    <dc:date>2024-06-21T11:10:38.446539</dc:date>
    <dc:format>image/svg+xml</dc:format>
    <dc:creator>
     <cc:Agent>
      <dc:title>Matplotlib v3.9.0, https://matplotlib.org/</dc:title>
     </cc:Agent>
    </dc:creator>
   </cc:Work>
  </rdf:RDF>
 </metadata>
 <defs>
  <style type="text/css">*{stroke-linejoin: round; stroke-linecap: butt}</style>
 </defs>
 <g id="figure_1">
  <g id="patch_1">
   <path d="M 0 439.114375 
L 856.004375 439.114375 
L 856.004375 0 
L 0 0 
z
" style="fill: #ffffff"/>
  </g>
  <g id="axes_1">
   <g id="patch_2">
    <path d="M 43.78125 401.558125 
L 755.40125 401.558125 
L 755.40125 22.318125 
L 43.78125 22.318125 
z
" style="fill: #ffffff"/>
   </g>
   <g id="matplotlib.axis_1">
    <g id="xtick_1">
     <g id="line2d_1">
      <defs>
       <path id="m644c72fdfa" d="M 0 0 
L 0 3.5 
" style="stroke: #000000; stroke-width: 0.8"/>
      </defs>
      <g>
       <use xlink:href="#m644c72fdfa" x="76.127614" y="401.558125" style="stroke: #000000; stroke-width: 0.8"/>
      </g>
     </g>
     <g id="text_1">
      <!-- 0 -->
      <g transform="translate(72.946364 416.156562) scale(0.1 -0.1)">
       <defs>
        <path id="DejaVuSans-30" d="M 2034 4250 
Q 1547 4250 1301 3770 
Q 1056 3291 1056 2328 
Q 1056 1369 1301 889 
Q 1547 409 2034 409 
Q 2525 409 2770 889 
Q 3016 1369 3016 2328 
Q 3016 3291 2770 3770 
Q 2525 4250 2034 4250 
z
M 2034 4750 
Q 2819 4750 3233 4129 
Q 3647 3509 3647 2328 
Q 3647 1150 3233 529 
Q 2819 -91 2034 -91 
Q 1250 -91 836 529 
Q 422 1150 422 2328 
Q 422 3509 836 4129 
Q 1250 4750 2034 4750 
z
" transform="scale(0.015625)"/>
       </defs>
       <use xlink:href="#DejaVuSans-30"/>
      </g>
     </g>
    </g>
    <g id="xtick_2">
     <g id="line2d_2">
      <g>
       <use xlink:href="#m644c72fdfa" x="157.399884" y="401.558125" style="stroke: #000000; stroke-width: 0.8"/>
      </g>
     </g>
     <g id="text_2">
      <!-- 25 -->
      <g transform="translate(151.037384 416.156562) scale(0.1 -0.1)">
       <defs>
        <path id="DejaVuSans-32" d="M 1228 531 
L 3431 531 
L 3431 0 
L 469 0 
L 469 531 
Q 828 903 1448 1529 
Q 2069 2156 2228 2338 
Q 2531 2678 2651 2914 
Q 2772 3150 2772 3378 
Q 2772 3750 2511 3984 
Q 2250 4219 1831 4219 
Q 1534 4219 1204 4116 
Q 875 4013 500 3803 
L 500 4441 
Q 881 4594 1212 4672 
Q 1544 4750 1819 4750 
Q 2544 4750 2975 4387 
Q 3406 4025 3406 3419 
Q 3406 3131 3298 2873 
Q 3191 2616 2906 2266 
Q 2828 2175 2409 1742 
Q 1991 1309 1228 531 
z
" transform="scale(0.015625)"/>
        <path id="DejaVuSans-35" d="M 691 4666 
L 3169 4666 
L 3169 4134 
L 1269 4134 
L 1269 2991 
Q 1406 3038 1543 3061 
Q 1681 3084 1819 3084 
Q 2600 3084 3056 2656 
Q 3513 2228 3513 1497 
Q 3513 744 3044 326 
Q 2575 -91 1722 -91 
Q 1428 -91 1123 -41 
Q 819 9 494 109 
L 494 744 
Q 775 591 1075 516 
Q 1375 441 1709 441 
Q 2250 441 2565 725 
Q 2881 1009 2881 1497 
Q 2881 1984 2565 2268 
Q 2250 2553 1709 2553 
Q 1456 2553 1204 2497 
Q 953 2441 691 2322 
L 691 4666 
z
" transform="scale(0.015625)"/>
       </defs>
       <use xlink:href="#DejaVuSans-32"/>
       <use xlink:href="#DejaVuSans-35" x="63.623047"/>
      </g>
     </g>
    </g>
    <g id="xtick_3">
     <g id="line2d_3">
      <g>
       <use xlink:href="#m644c72fdfa" x="238.672155" y="401.558125" style="stroke: #000000; stroke-width: 0.8"/>
      </g>
     </g>
     <g id="text_3">
      <!-- 50 -->
      <g transform="translate(232.309655 416.156562) scale(0.1 -0.1)">
       <use xlink:href="#DejaVuSans-35"/>
       <use xlink:href="#DejaVuSans-30" x="63.623047"/>
      </g>
     </g>
    </g>
    <g id="xtick_4">
     <g id="line2d_4">
      <g>
       <use xlink:href="#m644c72fdfa" x="319.944425" y="401.558125" style="stroke: #000000; stroke-width: 0.8"/>
      </g>
     </g>
     <g id="text_4">
      <!-- 75 -->
      <g transform="translate(313.581925 416.156562) scale(0.1 -0.1)">
       <defs>
        <path id="DejaVuSans-37" d="M 525 4666 
L 3525 4666 
L 3525 4397 
L 1831 0 
L 1172 0 
L 2766 4134 
L 525 4134 
L 525 4666 
z
" transform="scale(0.015625)"/>
       </defs>
       <use xlink:href="#DejaVuSans-37"/>
       <use xlink:href="#DejaVuSans-35" x="63.623047"/>
      </g>
     </g>
    </g>
    <g id="xtick_5">
     <g id="line2d_5">
      <g>
       <use xlink:href="#m644c72fdfa" x="401.216695" y="401.558125" style="stroke: #000000; stroke-width: 0.8"/>
      </g>
     </g>
     <g id="text_5">
      <!-- 100 -->
      <g transform="translate(391.672945 416.156562) scale(0.1 -0.1)">
       <defs>
        <path id="DejaVuSans-31" d="M 794 531 
L 1825 531 
L 1825 4091 
L 703 3866 
L 703 4441 
L 1819 4666 
L 2450 4666 
L 2450 531 
L 3481 531 
L 3481 0 
L 794 0 
L 794 531 
z
" transform="scale(0.015625)"/>
       </defs>
       <use xlink:href="#DejaVuSans-31"/>
       <use xlink:href="#DejaVuSans-30" x="63.623047"/>
       <use xlink:href="#DejaVuSans-30" x="127.246094"/>
      </g>
     </g>
    </g>
    <g id="xtick_6">
     <g id="line2d_6">
      <g>
       <use xlink:href="#m644c72fdfa" x="482.488966" y="401.558125" style="stroke: #000000; stroke-width: 0.8"/>
      </g>
     </g>
     <g id="text_6">
      <!-- 125 -->
      <g transform="translate(472.945216 416.156562) scale(0.1 -0.1)">
       <use xlink:href="#DejaVuSans-31"/>
       <use xlink:href="#DejaVuSans-32" x="63.623047"/>
       <use xlink:href="#DejaVuSans-35" x="127.246094"/>
      </g>
     </g>
    </g>
    <g id="xtick_7">
     <g id="line2d_7">
      <g>
       <use xlink:href="#m644c72fdfa" x="563.761236" y="401.558125" style="stroke: #000000; stroke-width: 0.8"/>
      </g>
     </g>
     <g id="text_7">
      <!-- 150 -->
      <g transform="translate(554.217486 416.156562) scale(0.1 -0.1)">
       <use xlink:href="#DejaVuSans-31"/>
       <use xlink:href="#DejaVuSans-35" x="63.623047"/>
       <use xlink:href="#DejaVuSans-30" x="127.246094"/>
      </g>
     </g>
    </g>
    <g id="xtick_8">
     <g id="line2d_8">
      <g>
       <use xlink:href="#m644c72fdfa" x="645.033507" y="401.558125" style="stroke: #000000; stroke-width: 0.8"/>
      </g>
     </g>
     <g id="text_8">
      <!-- 175 -->
      <g transform="translate(635.489757 416.156562) scale(0.1 -0.1)">
       <use xlink:href="#DejaVuSans-31"/>
       <use xlink:href="#DejaVuSans-37" x="63.623047"/>
       <use xlink:href="#DejaVuSans-35" x="127.246094"/>
      </g>
     </g>
    </g>
    <g id="xtick_9">
     <g id="line2d_9">
      <g>
       <use xlink:href="#m644c72fdfa" x="726.305777" y="401.558125" style="stroke: #000000; stroke-width: 0.8"/>
      </g>
     </g>
     <g id="text_9">
      <!-- 200 -->
      <g transform="translate(716.762027 416.156562) scale(0.1 -0.1)">
       <use xlink:href="#DejaVuSans-32"/>
       <use xlink:href="#DejaVuSans-30" x="63.623047"/>
       <use xlink:href="#DejaVuSans-30" x="127.246094"/>
      </g>
     </g>
    </g>
    <g id="text_10">
     <!-- Epochs -->
     <g transform="translate(381.675625 429.834687) scale(0.1 -0.1)">
      <defs>
       <path id="DejaVuSans-45" d="M 628 4666 
L 3578 4666 
L 3578 4134 
L 1259 4134 
L 1259 2753 
L 3481 2753 
L 3481 2222 
L 1259 2222 
L 1259 531 
L 3634 531 
L 3634 0 
L 628 0 
L 628 4666 
z
" transform="scale(0.015625)"/>
       <path id="DejaVuSans-70" d="M 1159 525 
L 1159 -1331 
L 581 -1331 
L 581 3500 
L 1159 3500 
L 1159 2969 
Q 1341 3281 1617 3432 
Q 1894 3584 2278 3584 
Q 2916 3584 3314 3078 
Q 3713 2572 3713 1747 
Q 3713 922 3314 415 
Q 2916 -91 2278 -91 
Q 1894 -91 1617 61 
Q 1341 213 1159 525 
z
M 3116 1747 
Q 3116 2381 2855 2742 
Q 2594 3103 2138 3103 
Q 1681 3103 1420 2742 
Q 1159 2381 1159 1747 
Q 1159 1113 1420 752 
Q 1681 391 2138 391 
Q 2594 391 2855 752 
Q 3116 1113 3116 1747 
z
" transform="scale(0.015625)"/>
       <path id="DejaVuSans-6f" d="M 1959 3097 
Q 1497 3097 1228 2736 
Q 959 2375 959 1747 
Q 959 1119 1226 758 
Q 1494 397 1959 397 
Q 2419 397 2687 759 
Q 2956 1122 2956 1747 
Q 2956 2369 2687 2733 
Q 2419 3097 1959 3097 
z
M 1959 3584 
Q 2709 3584 3137 3096 
Q 3566 2609 3566 1747 
Q 3566 888 3137 398 
Q 2709 -91 1959 -91 
Q 1206 -91 779 398 
Q 353 888 353 1747 
Q 353 2609 779 3096 
Q 1206 3584 1959 3584 
z
" transform="scale(0.015625)"/>
       <path id="DejaVuSans-63" d="M 3122 3366 
L 3122 2828 
Q 2878 2963 2633 3030 
Q 2388 3097 2138 3097 
Q 1578 3097 1268 2742 
Q 959 2388 959 1747 
Q 959 1106 1268 751 
Q 1578 397 2138 397 
Q 2388 397 2633 464 
Q 2878 531 3122 666 
L 3122 134 
Q 2881 22 2623 -34 
Q 2366 -91 2075 -91 
Q 1284 -91 818 406 
Q 353 903 353 1747 
Q 353 2603 823 3093 
Q 1294 3584 2113 3584 
Q 2378 3584 2631 3529 
Q 2884 3475 3122 3366 
z
" transform="scale(0.015625)"/>
       <path id="DejaVuSans-68" d="M 3513 2113 
L 3513 0 
L 2938 0 
L 2938 2094 
Q 2938 2591 2744 2837 
Q 2550 3084 2163 3084 
Q 1697 3084 1428 2787 
Q 1159 2491 1159 1978 
L 1159 0 
L 581 0 
L 581 4863 
L 1159 4863 
L 1159 2956 
Q 1366 3272 1645 3428 
Q 1925 3584 2291 3584 
Q 2894 3584 3203 3211 
Q 3513 2838 3513 2113 
z
" transform="scale(0.015625)"/>
       <path id="DejaVuSans-73" d="M 2834 3397 
L 2834 2853 
Q 2591 2978 2328 3040 
Q 2066 3103 1784 3103 
Q 1356 3103 1142 2972 
Q 928 2841 928 2578 
Q 928 2378 1081 2264 
Q 1234 2150 1697 2047 
L 1894 2003 
Q 2506 1872 2764 1633 
Q 3022 1394 3022 966 
Q 3022 478 2636 193 
Q 2250 -91 1575 -91 
Q 1294 -91 989 -36 
Q 684 19 347 128 
L 347 722 
Q 666 556 975 473 
Q 1284 391 1588 391 
Q 1994 391 2212 530 
Q 2431 669 2431 922 
Q 2431 1156 2273 1281 
Q 2116 1406 1581 1522 
L 1381 1569 
Q 847 1681 609 1914 
Q 372 2147 372 2553 
Q 372 3047 722 3315 
Q 1072 3584 1716 3584 
Q 2034 3584 2315 3537 
Q 2597 3491 2834 3397 
z
" transform="scale(0.015625)"/>
      </defs>
      <use xlink:href="#DejaVuSans-45"/>
      <use xlink:href="#DejaVuSans-70" x="63.183594"/>
      <use xlink:href="#DejaVuSans-6f" x="126.660156"/>
      <use xlink:href="#DejaVuSans-63" x="187.841797"/>
      <use xlink:href="#DejaVuSans-68" x="242.822266"/>
      <use xlink:href="#DejaVuSans-73" x="306.201172"/>
     </g>
    </g>
   </g>
   <g id="matplotlib.axis_2">
    <g id="ytick_1">
     <g id="line2d_10">
      <defs>
       <path id="m0e186fe216" d="M 0 0 
L -3.5 0 
" style="stroke: #000000; stroke-width: 0.8"/>
      </defs>
      <g>
       <use xlink:href="#m0e186fe216" x="43.78125" y="389.355737" style="stroke: #000000; stroke-width: 0.8"/>
      </g>
     </g>
     <g id="text_11">
      <!-- 0.0 -->
      <g style="fill: #1f77b4" transform="translate(20.878125 393.154955) scale(0.1 -0.1)">
       <defs>
        <path id="DejaVuSans-2e" d="M 684 794 
L 1344 794 
L 1344 0 
L 684 0 
L 684 794 
z
" transform="scale(0.015625)"/>
       </defs>
       <use xlink:href="#DejaVuSans-30"/>
       <use xlink:href="#DejaVuSans-2e" x="63.623047"/>
       <use xlink:href="#DejaVuSans-30" x="95.410156"/>
      </g>
     </g>
    </g>
    <g id="ytick_2">
     <g id="line2d_11">
      <g>
       <use xlink:href="#m0e186fe216" x="43.78125" y="312.52294" style="stroke: #000000; stroke-width: 0.8"/>
      </g>
     </g>
     <g id="text_12">
      <!-- 0.5 -->
      <g style="fill: #1f77b4" transform="translate(20.878125 316.322159) scale(0.1 -0.1)">
       <use xlink:href="#DejaVuSans-30"/>
       <use xlink:href="#DejaVuSans-2e" x="63.623047"/>
       <use xlink:href="#DejaVuSans-35" x="95.410156"/>
      </g>
     </g>
    </g>
    <g id="ytick_3">
     <g id="line2d_12">
      <g>
       <use xlink:href="#m0e186fe216" x="43.78125" y="235.690144" style="stroke: #000000; stroke-width: 0.8"/>
      </g>
     </g>
     <g id="text_13">
      <!-- 1.0 -->
      <g style="fill: #1f77b4" transform="translate(20.878125 239.489363) scale(0.1 -0.1)">
       <use xlink:href="#DejaVuSans-31"/>
       <use xlink:href="#DejaVuSans-2e" x="63.623047"/>
       <use xlink:href="#DejaVuSans-30" x="95.410156"/>
      </g>
     </g>
    </g>
    <g id="ytick_4">
     <g id="line2d_13">
      <g>
       <use xlink:href="#m0e186fe216" x="43.78125" y="158.857348" style="stroke: #000000; stroke-width: 0.8"/>
      </g>
     </g>
     <g id="text_14">
      <!-- 1.5 -->
      <g style="fill: #1f77b4" transform="translate(20.878125 162.656566) scale(0.1 -0.1)">
       <use xlink:href="#DejaVuSans-31"/>
       <use xlink:href="#DejaVuSans-2e" x="63.623047"/>
       <use xlink:href="#DejaVuSans-35" x="95.410156"/>
      </g>
     </g>
    </g>
    <g id="ytick_5">
     <g id="line2d_14">
      <g>
       <use xlink:href="#m0e186fe216" x="43.78125" y="82.024551" style="stroke: #000000; stroke-width: 0.8"/>
      </g>
     </g>
     <g id="text_15">
      <!-- 2.0 -->
      <g style="fill: #1f77b4" transform="translate(20.878125 85.82377) scale(0.1 -0.1)">
       <use xlink:href="#DejaVuSans-32"/>
       <use xlink:href="#DejaVuSans-2e" x="63.623047"/>
       <use xlink:href="#DejaVuSans-30" x="95.410156"/>
      </g>
     </g>
    </g>
    <g id="text_16">
     <!-- Training Loss -->
     <g style="fill: #1f77b4" transform="translate(14.798438 244.220156) rotate(-90) scale(0.1 -0.1)">
      <defs>
       <path id="DejaVuSans-54" d="M -19 4666 
L 3928 4666 
L 3928 4134 
L 2272 4134 
L 2272 0 
L 1638 0 
L 1638 4134 
L -19 4134 
L -19 4666 
z
" transform="scale(0.015625)"/>
       <path id="DejaVuSans-72" d="M 2631 2963 
Q 2534 3019 2420 3045 
Q 2306 3072 2169 3072 
Q 1681 3072 1420 2755 
Q 1159 2438 1159 1844 
L 1159 0 
L 581 0 
L 581 3500 
L 1159 3500 
L 1159 2956 
Q 1341 3275 1631 3429 
Q 1922 3584 2338 3584 
Q 2397 3584 2469 3576 
Q 2541 3569 2628 3553 
L 2631 2963 
z
" transform="scale(0.015625)"/>
       <path id="DejaVuSans-61" d="M 2194 1759 
Q 1497 1759 1228 1600 
Q 959 1441 959 1056 
Q 959 750 1161 570 
Q 1363 391 1709 391 
Q 2188 391 2477 730 
Q 2766 1069 2766 1631 
L 2766 1759 
L 2194 1759 
z
M 3341 1997 
L 3341 0 
L 2766 0 
L 2766 531 
Q 2569 213 2275 61 
Q 1981 -91 1556 -91 
Q 1019 -91 701 211 
Q 384 513 384 1019 
Q 384 1609 779 1909 
Q 1175 2209 1959 2209 
L 2766 2209 
L 2766 2266 
Q 2766 2663 2505 2880 
Q 2244 3097 1772 3097 
Q 1472 3097 1187 3025 
Q 903 2953 641 2809 
L 641 3341 
Q 956 3463 1253 3523 
Q 1550 3584 1831 3584 
Q 2591 3584 2966 3190 
Q 3341 2797 3341 1997 
z
" transform="scale(0.015625)"/>
       <path id="DejaVuSans-69" d="M 603 3500 
L 1178 3500 
L 1178 0 
L 603 0 
L 603 3500 
z
M 603 4863 
L 1178 4863 
L 1178 4134 
L 603 4134 
L 603 4863 
z
" transform="scale(0.015625)"/>
       <path id="DejaVuSans-6e" d="M 3513 2113 
L 3513 0 
L 2938 0 
L 2938 2094 
Q 2938 2591 2744 2837 
Q 2550 3084 2163 3084 
Q 1697 3084 1428 2787 
Q 1159 2491 1159 1978 
L 1159 0 
L 581 0 
L 581 3500 
L 1159 3500 
L 1159 2956 
Q 1366 3272 1645 3428 
Q 1925 3584 2291 3584 
Q 2894 3584 3203 3211 
Q 3513 2838 3513 2113 
z
" transform="scale(0.015625)"/>
       <path id="DejaVuSans-67" d="M 2906 1791 
Q 2906 2416 2648 2759 
Q 2391 3103 1925 3103 
Q 1463 3103 1205 2759 
Q 947 2416 947 1791 
Q 947 1169 1205 825 
Q 1463 481 1925 481 
Q 2391 481 2648 825 
Q 2906 1169 2906 1791 
z
M 3481 434 
Q 3481 -459 3084 -895 
Q 2688 -1331 1869 -1331 
Q 1566 -1331 1297 -1286 
Q 1028 -1241 775 -1147 
L 775 -588 
Q 1028 -725 1275 -790 
Q 1522 -856 1778 -856 
Q 2344 -856 2625 -561 
Q 2906 -266 2906 331 
L 2906 616 
Q 2728 306 2450 153 
Q 2172 0 1784 0 
Q 1141 0 747 490 
Q 353 981 353 1791 
Q 353 2603 747 3093 
Q 1141 3584 1784 3584 
Q 2172 3584 2450 3431 
Q 2728 3278 2906 2969 
L 2906 3500 
L 3481 3500 
L 3481 434 
z
" transform="scale(0.015625)"/>
       <path id="DejaVuSans-20" transform="scale(0.015625)"/>
       <path id="DejaVuSans-4c" d="M 628 4666 
L 1259 4666 
L 1259 531 
L 3531 531 
L 3531 0 
L 628 0 
L 628 4666 
z
" transform="scale(0.015625)"/>
      </defs>
      <use xlink:href="#DejaVuSans-54"/>
      <use xlink:href="#DejaVuSans-72" x="46.333984"/>
      <use xlink:href="#DejaVuSans-61" x="87.447266"/>
      <use xlink:href="#DejaVuSans-69" x="148.726562"/>
      <use xlink:href="#DejaVuSans-6e" x="176.509766"/>
      <use xlink:href="#DejaVuSans-69" x="239.888672"/>
      <use xlink:href="#DejaVuSans-6e" x="267.671875"/>
      <use xlink:href="#DejaVuSans-67" x="331.050781"/>
      <use xlink:href="#DejaVuSans-20" x="394.527344"/>
      <use xlink:href="#DejaVuSans-4c" x="426.314453"/>
      <use xlink:href="#DejaVuSans-6f" x="480.277344"/>
      <use xlink:href="#DejaVuSans-73" x="541.458984"/>
      <use xlink:href="#DejaVuSans-73" x="593.558594"/>
     </g>
    </g>
   </g>
   <g id="line2d_15">
    <path d="M 76.127614 39.556307 
L 79.378504 151.535004 
L 82.629395 274.324905 
L 85.880286 305.97964 
L 89.131177 317.337619 
L 92.382068 324.715834 
L 95.632959 329.588295 
L 98.883849 333.900185 
L 102.13474 336.433804 
L 105.385631 339.790219 
L 108.636522 342.214469 
L 118.389194 348.304947 
L 121.640085 349.968091 
L 124.890976 351.199018 
L 128.141867 352.616578 
L 131.392758 353.728797 
L 134.643648 354.712771 
L 137.894539 356.228113 
L 141.14543 357.171464 
L 144.396321 357.930865 
L 147.647212 358.55514 
L 150.898102 359.46801 
L 154.148993 360.236499 
L 157.399884 360.64474 
L 160.650775 362.004703 
L 163.901666 362.377746 
L 173.654338 364.394219 
L 176.905229 364.533918 
L 180.15612 365.292465 
L 196.410574 367.224241 
L 202.912356 368.044499 
L 206.163246 368.681138 
L 209.414137 368.740584 
L 212.665028 369.561563 
L 215.915919 369.532198 
L 219.16681 369.729152 
L 225.668591 370.632425 
L 235.421264 371.333435 
L 238.672155 371.221204 
L 241.923045 371.826553 
L 245.173936 372.00527 
L 248.424827 372.512115 
L 251.675718 372.710244 
L 254.926609 372.376926 
L 258.177499 373.058189 
L 264.679281 373.262657 
L 267.930172 373.47819 
L 271.181063 373.984576 
L 274.431954 374.244262 
L 277.682844 374.103843 
L 290.686408 374.795145 
L 293.937298 375.125019 
L 300.43908 375.238048 
L 303.689971 375.329614 
L 310.191753 375.983415 
L 313.442643 375.991091 
L 319.944425 376.306704 
L 323.195316 376.2087 
L 326.446207 376.353336 
L 329.697097 376.859854 
L 332.947988 376.844971 
L 336.198879 376.616459 
L 339.44977 376.890065 
L 342.700661 376.959285 
L 345.951552 377.362801 
L 355.704224 377.509103 
L 358.955115 377.790859 
L 362.206006 377.457733 
L 365.456896 378.103802 
L 368.707787 378.080241 
L 371.958678 378.396955 
L 375.209569 378.352744 
L 378.46046 378.464058 
L 381.711351 378.786141 
L 388.213132 378.698927 
L 391.464023 378.884916 
L 394.714914 378.711077 
L 397.965805 378.89663 
L 401.216695 378.919599 
L 404.467586 379.09354 
L 407.718477 378.933409 
L 410.969368 379.3943 
L 414.220259 379.12692 
L 417.471149 379.569054 
L 420.72204 379.648731 
L 423.972931 379.468867 
L 427.223822 379.73431 
L 433.725604 379.733042 
L 440.227385 380.078419 
L 443.478276 380.145069 
L 446.729167 380.506378 
L 453.230948 380.362574 
L 456.481839 380.512824 
L 459.73273 380.463697 
L 462.983621 380.671532 
L 469.485403 380.654173 
L 472.736293 380.88855 
L 475.987184 380.949368 
L 479.238075 380.599842 
L 482.488966 381.060614 
L 485.739857 380.785902 
L 488.990747 381.184222 
L 495.492529 381.103332 
L 498.74342 381.250985 
L 501.994311 381.176971 
L 505.245202 381.382225 
L 508.496092 381.377774 
L 511.746983 381.615501 
L 514.997874 381.244502 
L 518.248765 381.504702 
L 521.499656 381.538558 
L 524.750546 381.837397 
L 534.503219 381.655724 
L 541.005001 381.990587 
L 544.255891 381.856283 
L 550.757673 382.134263 
L 554.008564 382.202746 
L 557.259455 382.047057 
L 560.510345 382.279027 
L 563.761236 382.095813 
L 567.012127 382.584236 
L 570.263018 382.425164 
L 573.513909 382.440351 
L 576.7648 382.667333 
L 586.517472 382.652203 
L 589.768363 382.495519 
L 593.019254 382.65075 
L 596.270144 382.983346 
L 599.521035 382.851164 
L 606.022817 383.161515 
L 609.273708 382.853019 
L 612.524599 382.879011 
L 615.775489 383.284545 
L 619.02638 383.118617 
L 622.277271 383.298934 
L 628.779053 383.013178 
L 635.280834 383.442048 
L 638.531725 383.28987 
L 645.033507 383.45259 
L 648.284398 383.555124 
L 651.535288 383.237368 
L 654.786179 383.520232 
L 658.03707 383.662004 
L 661.287961 383.326197 
L 664.538852 383.624481 
L 667.789742 383.734027 
L 674.291524 383.667916 
L 677.542415 383.998288 
L 684.044197 383.909248 
L 687.295087 383.643687 
L 693.796869 384.242545 
L 697.04776 383.911944 
L 700.298651 384.099598 
L 703.549541 383.894763 
L 706.800432 384.159868 
L 710.051323 384.303034 
L 713.302214 384.207546 
L 716.553105 383.929584 
L 719.803996 384.319943 
L 723.054886 384.241268 
L 723.054886 384.241268 
" clip-path="url(#p5dad52e2ea)" style="fill: none; stroke: #1f77b4; stroke-width: 1.5; stroke-linecap: square"/>
   </g>
   <g id="patch_3">
    <path d="M 43.78125 401.558125 
L 43.78125 22.318125 
" style="fill: none; stroke: #000000; stroke-width: 0.8; stroke-linejoin: miter; stroke-linecap: square"/>
   </g>
   <g id="patch_4">
    <path d="M 755.40125 401.558125 
L 755.40125 22.318125 
" style="fill: none; stroke: #000000; stroke-width: 0.8; stroke-linejoin: miter; stroke-linecap: square"/>
   </g>
   <g id="patch_5">
    <path d="M 43.78125 401.558125 
L 755.40125 401.558125 
" style="fill: none; stroke: #000000; stroke-width: 0.8; stroke-linejoin: miter; stroke-linecap: square"/>
   </g>
   <g id="patch_6">
    <path d="M 43.78125 22.318125 
L 755.40125 22.318125 
" style="fill: none; stroke: #000000; stroke-width: 0.8; stroke-linejoin: miter; stroke-linecap: square"/>
   </g>
  </g>
  <g id="axes_2">
   <g id="matplotlib.axis_3">
    <g id="ytick_6">
     <g id="line2d_16">
      <defs>
       <path id="mbf15596973" d="M 0 0 
L 3.5 0 
" style="stroke: #000000; stroke-width: 0.8"/>
      </defs>
      <g>
       <use xlink:href="#mbf15596973" x="755.40125" y="377.283106" style="stroke: #000000; stroke-width: 0.8"/>
      </g>
     </g>
     <g id="text_17">
      <!-- 30 -->
      <g style="fill: #ff7f0e" transform="translate(762.40125 381.082325) scale(0.1 -0.1)">
       <defs>
        <path id="DejaVuSans-33" d="M 2597 2516 
Q 3050 2419 3304 2112 
Q 3559 1806 3559 1356 
Q 3559 666 3084 287 
Q 2609 -91 1734 -91 
Q 1441 -91 1130 -33 
Q 819 25 488 141 
L 488 750 
Q 750 597 1062 519 
Q 1375 441 1716 441 
Q 2309 441 2620 675 
Q 2931 909 2931 1356 
Q 2931 1769 2642 2001 
Q 2353 2234 1838 2234 
L 1294 2234 
L 1294 2753 
L 1863 2753 
Q 2328 2753 2575 2939 
Q 2822 3125 2822 3475 
Q 2822 3834 2567 4026 
Q 2313 4219 1838 4219 
Q 1578 4219 1281 4162 
Q 984 4106 628 3988 
L 628 4550 
Q 988 4650 1302 4700 
Q 1616 4750 1894 4750 
Q 2613 4750 3031 4423 
Q 3450 4097 3450 3541 
Q 3450 3153 3228 2886 
Q 3006 2619 2597 2516 
z
" transform="scale(0.015625)"/>
       </defs>
       <use xlink:href="#DejaVuSans-33"/>
       <use xlink:href="#DejaVuSans-30" x="63.623047"/>
      </g>
     </g>
    </g>
    <g id="ytick_7">
     <g id="line2d_17">
      <g>
       <use xlink:href="#mbf15596973" x="755.40125" y="327.611313" style="stroke: #000000; stroke-width: 0.8"/>
      </g>
     </g>
     <g id="text_18">
      <!-- 40 -->
      <g style="fill: #ff7f0e" transform="translate(762.40125 331.410532) scale(0.1 -0.1)">
       <defs>
        <path id="DejaVuSans-34" d="M 2419 4116 
L 825 1625 
L 2419 1625 
L 2419 4116 
z
M 2253 4666 
L 3047 4666 
L 3047 1625 
L 3713 1625 
L 3713 1100 
L 3047 1100 
L 3047 0 
L 2419 0 
L 2419 1100 
L 313 1100 
L 313 1709 
L 2253 4666 
z
" transform="scale(0.015625)"/>
       </defs>
       <use xlink:href="#DejaVuSans-34"/>
       <use xlink:href="#DejaVuSans-30" x="63.623047"/>
      </g>
     </g>
    </g>
    <g id="ytick_8">
     <g id="line2d_18">
      <g>
       <use xlink:href="#mbf15596973" x="755.40125" y="277.93952" style="stroke: #000000; stroke-width: 0.8"/>
      </g>
     </g>
     <g id="text_19">
      <!-- 50 -->
      <g style="fill: #ff7f0e" transform="translate(762.40125 281.738739) scale(0.1 -0.1)">
       <use xlink:href="#DejaVuSans-35"/>
       <use xlink:href="#DejaVuSans-30" x="63.623047"/>
      </g>
     </g>
    </g>
    <g id="ytick_9">
     <g id="line2d_19">
      <g>
       <use xlink:href="#mbf15596973" x="755.40125" y="228.267727" style="stroke: #000000; stroke-width: 0.8"/>
      </g>
     </g>
     <g id="text_20">
      <!-- 60 -->
      <g style="fill: #ff7f0e" transform="translate(762.40125 232.066946) scale(0.1 -0.1)">
       <defs>
        <path id="DejaVuSans-36" d="M 2113 2584 
Q 1688 2584 1439 2293 
Q 1191 2003 1191 1497 
Q 1191 994 1439 701 
Q 1688 409 2113 409 
Q 2538 409 2786 701 
Q 3034 994 3034 1497 
Q 3034 2003 2786 2293 
Q 2538 2584 2113 2584 
z
M 3366 4563 
L 3366 3988 
Q 3128 4100 2886 4159 
Q 2644 4219 2406 4219 
Q 1781 4219 1451 3797 
Q 1122 3375 1075 2522 
Q 1259 2794 1537 2939 
Q 1816 3084 2150 3084 
Q 2853 3084 3261 2657 
Q 3669 2231 3669 1497 
Q 3669 778 3244 343 
Q 2819 -91 2113 -91 
Q 1303 -91 875 529 
Q 447 1150 447 2328 
Q 447 3434 972 4092 
Q 1497 4750 2381 4750 
Q 2619 4750 2861 4703 
Q 3103 4656 3366 4563 
z
" transform="scale(0.015625)"/>
       </defs>
       <use xlink:href="#DejaVuSans-36"/>
       <use xlink:href="#DejaVuSans-30" x="63.623047"/>
      </g>
     </g>
    </g>
    <g id="ytick_10">
     <g id="line2d_20">
      <g>
       <use xlink:href="#mbf15596973" x="755.40125" y="178.595934" style="stroke: #000000; stroke-width: 0.8"/>
      </g>
     </g>
     <g id="text_21">
      <!-- 70 -->
      <g style="fill: #ff7f0e" transform="translate(762.40125 182.395153) scale(0.1 -0.1)">
       <use xlink:href="#DejaVuSans-37"/>
       <use xlink:href="#DejaVuSans-30" x="63.623047"/>
      </g>
     </g>
    </g>
    <g id="ytick_11">
     <g id="line2d_21">
      <g>
       <use xlink:href="#mbf15596973" x="755.40125" y="128.924141" style="stroke: #000000; stroke-width: 0.8"/>
      </g>
     </g>
     <g id="text_22">
      <!-- 80 -->
      <g style="fill: #ff7f0e" transform="translate(762.40125 132.72336) scale(0.1 -0.1)">
       <defs>
        <path id="DejaVuSans-38" d="M 2034 2216 
Q 1584 2216 1326 1975 
Q 1069 1734 1069 1313 
Q 1069 891 1326 650 
Q 1584 409 2034 409 
Q 2484 409 2743 651 
Q 3003 894 3003 1313 
Q 3003 1734 2745 1975 
Q 2488 2216 2034 2216 
z
M 1403 2484 
Q 997 2584 770 2862 
Q 544 3141 544 3541 
Q 544 4100 942 4425 
Q 1341 4750 2034 4750 
Q 2731 4750 3128 4425 
Q 3525 4100 3525 3541 
Q 3525 3141 3298 2862 
Q 3072 2584 2669 2484 
Q 3125 2378 3379 2068 
Q 3634 1759 3634 1313 
Q 3634 634 3220 271 
Q 2806 -91 2034 -91 
Q 1263 -91 848 271 
Q 434 634 434 1313 
Q 434 1759 690 2068 
Q 947 2378 1403 2484 
z
M 1172 3481 
Q 1172 3119 1398 2916 
Q 1625 2713 2034 2713 
Q 2441 2713 2670 2916 
Q 2900 3119 2900 3481 
Q 2900 3844 2670 4047 
Q 2441 4250 2034 4250 
Q 1625 4250 1398 4047 
Q 1172 3844 1172 3481 
z
" transform="scale(0.015625)"/>
       </defs>
       <use xlink:href="#DejaVuSans-38"/>
       <use xlink:href="#DejaVuSans-30" x="63.623047"/>
      </g>
     </g>
    </g>
    <g id="ytick_12">
     <g id="line2d_22">
      <g>
       <use xlink:href="#mbf15596973" x="755.40125" y="79.252348" style="stroke: #000000; stroke-width: 0.8"/>
      </g>
     </g>
     <g id="text_23">
      <!-- 90 -->
      <g style="fill: #ff7f0e" transform="translate(762.40125 83.051567) scale(0.1 -0.1)">
       <defs>
        <path id="DejaVuSans-39" d="M 703 97 
L 703 672 
Q 941 559 1184 500 
Q 1428 441 1663 441 
Q 2288 441 2617 861 
Q 2947 1281 2994 2138 
Q 2813 1869 2534 1725 
Q 2256 1581 1919 1581 
Q 1219 1581 811 2004 
Q 403 2428 403 3163 
Q 403 3881 828 4315 
Q 1253 4750 1959 4750 
Q 2769 4750 3195 4129 
Q 3622 3509 3622 2328 
Q 3622 1225 3098 567 
Q 2575 -91 1691 -91 
Q 1453 -91 1209 -44 
Q 966 3 703 97 
z
M 1959 2075 
Q 2384 2075 2632 2365 
Q 2881 2656 2881 3163 
Q 2881 3666 2632 3958 
Q 2384 4250 1959 4250 
Q 1534 4250 1286 3958 
Q 1038 3666 1038 3163 
Q 1038 2656 1286 2365 
Q 1534 2075 1959 2075 
z
" transform="scale(0.015625)"/>
       </defs>
       <use xlink:href="#DejaVuSans-39"/>
       <use xlink:href="#DejaVuSans-30" x="63.623047"/>
      </g>
     </g>
    </g>
    <g id="ytick_13">
     <g id="line2d_23">
      <g>
       <use xlink:href="#mbf15596973" x="755.40125" y="29.580555" style="stroke: #000000; stroke-width: 0.8"/>
      </g>
     </g>
     <g id="text_24">
      <!-- 100 -->
      <g style="fill: #ff7f0e" transform="translate(762.40125 33.379774) scale(0.1 -0.1)">
       <use xlink:href="#DejaVuSans-31"/>
       <use xlink:href="#DejaVuSans-30" x="63.623047"/>
       <use xlink:href="#DejaVuSans-30" x="127.246094"/>
      </g>
     </g>
    </g>
    <g id="text_25">
     <!-- Validation Accuracy (%) -->
     <g style="fill: #ff7f0e" transform="translate(793.087187 271.287344) rotate(-90) scale(0.1 -0.1)">
      <defs>
       <path id="DejaVuSans-56" d="M 1831 0 
L 50 4666 
L 709 4666 
L 2188 738 
L 3669 4666 
L 4325 4666 
L 2547 0 
L 1831 0 
z
" transform="scale(0.015625)"/>
       <path id="DejaVuSans-6c" d="M 603 4863 
L 1178 4863 
L 1178 0 
L 603 0 
L 603 4863 
z
" transform="scale(0.015625)"/>
       <path id="DejaVuSans-64" d="M 2906 2969 
L 2906 4863 
L 3481 4863 
L 3481 0 
L 2906 0 
L 2906 525 
Q 2725 213 2448 61 
Q 2172 -91 1784 -91 
Q 1150 -91 751 415 
Q 353 922 353 1747 
Q 353 2572 751 3078 
Q 1150 3584 1784 3584 
Q 2172 3584 2448 3432 
Q 2725 3281 2906 2969 
z
M 947 1747 
Q 947 1113 1208 752 
Q 1469 391 1925 391 
Q 2381 391 2643 752 
Q 2906 1113 2906 1747 
Q 2906 2381 2643 2742 
Q 2381 3103 1925 3103 
Q 1469 3103 1208 2742 
Q 947 2381 947 1747 
z
" transform="scale(0.015625)"/>
       <path id="DejaVuSans-74" d="M 1172 4494 
L 1172 3500 
L 2356 3500 
L 2356 3053 
L 1172 3053 
L 1172 1153 
Q 1172 725 1289 603 
Q 1406 481 1766 481 
L 2356 481 
L 2356 0 
L 1766 0 
Q 1100 0 847 248 
Q 594 497 594 1153 
L 594 3053 
L 172 3053 
L 172 3500 
L 594 3500 
L 594 4494 
L 1172 4494 
z
" transform="scale(0.015625)"/>
       <path id="DejaVuSans-41" d="M 2188 4044 
L 1331 1722 
L 3047 1722 
L 2188 4044 
z
M 1831 4666 
L 2547 4666 
L 4325 0 
L 3669 0 
L 3244 1197 
L 1141 1197 
L 716 0 
L 50 0 
L 1831 4666 
z
" transform="scale(0.015625)"/>
       <path id="DejaVuSans-75" d="M 544 1381 
L 544 3500 
L 1119 3500 
L 1119 1403 
Q 1119 906 1312 657 
Q 1506 409 1894 409 
Q 2359 409 2629 706 
Q 2900 1003 2900 1516 
L 2900 3500 
L 3475 3500 
L 3475 0 
L 2900 0 
L 2900 538 
Q 2691 219 2414 64 
Q 2138 -91 1772 -91 
Q 1169 -91 856 284 
Q 544 659 544 1381 
z
M 1991 3584 
L 1991 3584 
z
" transform="scale(0.015625)"/>
       <path id="DejaVuSans-79" d="M 2059 -325 
Q 1816 -950 1584 -1140 
Q 1353 -1331 966 -1331 
L 506 -1331 
L 506 -850 
L 844 -850 
Q 1081 -850 1212 -737 
Q 1344 -625 1503 -206 
L 1606 56 
L 191 3500 
L 800 3500 
L 1894 763 
L 2988 3500 
L 3597 3500 
L 2059 -325 
z
" transform="scale(0.015625)"/>
       <path id="DejaVuSans-28" d="M 1984 4856 
Q 1566 4138 1362 3434 
Q 1159 2731 1159 2009 
Q 1159 1288 1364 580 
Q 1569 -128 1984 -844 
L 1484 -844 
Q 1016 -109 783 600 
Q 550 1309 550 2009 
Q 550 2706 781 3412 
Q 1013 4119 1484 4856 
L 1984 4856 
z
" transform="scale(0.015625)"/>
       <path id="DejaVuSans-25" d="M 4653 2053 
Q 4381 2053 4226 1822 
Q 4072 1591 4072 1178 
Q 4072 772 4226 539 
Q 4381 306 4653 306 
Q 4919 306 5073 539 
Q 5228 772 5228 1178 
Q 5228 1588 5073 1820 
Q 4919 2053 4653 2053 
z
M 4653 2450 
Q 5147 2450 5437 2106 
Q 5728 1763 5728 1178 
Q 5728 594 5436 251 
Q 5144 -91 4653 -91 
Q 4153 -91 3862 251 
Q 3572 594 3572 1178 
Q 3572 1766 3864 2108 
Q 4156 2450 4653 2450 
z
M 1428 4353 
Q 1159 4353 1004 4120 
Q 850 3888 850 3481 
Q 850 3069 1003 2837 
Q 1156 2606 1428 2606 
Q 1700 2606 1854 2837 
Q 2009 3069 2009 3481 
Q 2009 3884 1853 4118 
Q 1697 4353 1428 4353 
z
M 4250 4750 
L 4750 4750 
L 1831 -91 
L 1331 -91 
L 4250 4750 
z
M 1428 4750 
Q 1922 4750 2215 4408 
Q 2509 4066 2509 3481 
Q 2509 2891 2217 2550 
Q 1925 2209 1428 2209 
Q 931 2209 642 2551 
Q 353 2894 353 3481 
Q 353 4063 643 4406 
Q 934 4750 1428 4750 
z
" transform="scale(0.015625)"/>
       <path id="DejaVuSans-29" d="M 513 4856 
L 1013 4856 
Q 1481 4119 1714 3412 
Q 1947 2706 1947 2009 
Q 1947 1309 1714 600 
Q 1481 -109 1013 -844 
L 513 -844 
Q 928 -128 1133 580 
Q 1338 1288 1338 2009 
Q 1338 2731 1133 3434 
Q 928 4138 513 4856 
z
" transform="scale(0.015625)"/>
      </defs>
      <use xlink:href="#DejaVuSans-56"/>
      <use xlink:href="#DejaVuSans-61" x="60.658203"/>
      <use xlink:href="#DejaVuSans-6c" x="121.9375"/>
      <use xlink:href="#DejaVuSans-69" x="149.720703"/>
      <use xlink:href="#DejaVuSans-64" x="177.503906"/>
      <use xlink:href="#DejaVuSans-61" x="240.980469"/>
      <use xlink:href="#DejaVuSans-74" x="302.259766"/>
      <use xlink:href="#DejaVuSans-69" x="341.46875"/>
      <use xlink:href="#DejaVuSans-6f" x="369.251953"/>
      <use xlink:href="#DejaVuSans-6e" x="430.433594"/>
      <use xlink:href="#DejaVuSans-20" x="493.8125"/>
      <use xlink:href="#DejaVuSans-41" x="525.599609"/>
      <use xlink:href="#DejaVuSans-63" x="592.257812"/>
      <use xlink:href="#DejaVuSans-63" x="647.238281"/>
      <use xlink:href="#DejaVuSans-75" x="702.21875"/>
      <use xlink:href="#DejaVuSans-72" x="765.597656"/>
      <use xlink:href="#DejaVuSans-61" x="806.710938"/>
      <use xlink:href="#DejaVuSans-63" x="867.990234"/>
      <use xlink:href="#DejaVuSans-79" x="922.970703"/>
      <use xlink:href="#DejaVuSans-20" x="982.150391"/>
      <use xlink:href="#DejaVuSans-28" x="1013.9375"/>
      <use xlink:href="#DejaVuSans-25" x="1052.951172"/>
      <use xlink:href="#DejaVuSans-29" x="1147.970703"/>
     </g>
    </g>
   </g>
   <g id="line2d_24">
    <path d="M 76.127614 384.319943 
L 79.378504 136.292124 
L 82.629395 91.546117 
L 85.880286 81.322006 
L 92.382068 73.871237 
L 95.632959 69.856101 
L 98.883849 67.869229 
L 102.13474 65.26146 
L 105.385631 63.936879 
L 108.636522 62.943443 
L 111.887413 61.411896 
L 115.138303 59.549203 
L 118.389194 58.100443 
L 121.640085 57.810691 
L 124.890976 57.107007 
L 128.141867 56.651682 
L 131.392758 55.865212 
L 134.643648 54.416452 
L 137.894539 54.126699 
L 141.14543 54.995956 
L 144.396321 53.133264 
L 147.647212 53.009084 
L 150.898102 51.767289 
L 154.148993 52.015648 
L 160.650775 51.146392 
L 163.901666 50.442708 
L 167.152557 50.359922 
L 170.403447 49.15952 
L 173.654338 49.407879 
L 176.905229 48.580016 
L 180.15612 49.200913 
L 183.407011 48.993947 
L 186.657901 48.124691 
L 189.908792 48.207477 
L 193.159683 47.876332 
L 196.410574 47.214042 
L 199.661465 47.545187 
L 206.163246 47.007076 
L 209.414137 46.510358 
L 212.665028 46.510358 
L 215.915919 46.882896 
L 219.16681 46.344785 
L 225.668591 45.682495 
L 228.919482 45.88946 
L 232.170373 44.730452 
L 235.421264 45.020204 
L 238.672155 44.937418 
L 241.923045 44.606272 
L 245.173936 44.689059 
L 248.424827 44.275127 
L 251.675718 44.233734 
L 254.926609 44.689059 
L 258.177499 44.109555 
L 261.42839 43.985375 
L 264.679281 44.109555 
L 267.930172 43.695623 
L 271.181063 44.026768 
L 274.431954 43.405871 
L 277.682844 43.240298 
L 280.933735 43.695623 
L 284.184626 43.281691 
L 287.435517 43.902589 
L 290.686408 43.985375 
L 293.937298 43.737016 
L 297.188189 43.157512 
L 300.43908 43.447264 
L 303.689971 42.826367 
L 306.940862 43.116119 
L 310.191753 42.950546 
L 313.442643 42.619401 
L 323.195316 42.536614 
L 326.446207 42.619401 
L 329.697097 42.371042 
L 332.947988 42.826367 
L 336.198879 42.205469 
L 339.44977 42.495221 
L 342.700661 42.950546 
L 345.951552 42.246862 
L 349.202442 42.453828 
L 352.453333 42.205469 
L 358.955115 42.246862 
L 362.206006 42.578008 
L 365.456896 42.08129 
L 368.707787 41.708751 
L 371.958678 41.998503 
L 375.209569 41.832931 
L 378.46046 42.039896 
L 381.711351 41.832931 
L 384.962241 41.874324 
L 388.213132 41.750144 
L 391.464023 41.336213 
L 397.965805 41.667358 
L 401.216695 41.336213 
L 404.467586 41.543179 
L 410.969368 41.29482 
L 414.220259 41.129247 
L 417.471149 41.418999 
L 420.72204 41.543179 
L 423.972931 41.253426 
L 427.223822 41.791538 
L 430.474713 41.212033 
L 433.725604 41.005067 
L 436.976494 41.874324 
L 440.227385 41.418999 
L 443.478276 41.212033 
L 446.729167 40.466956 
L 453.230948 40.922281 
L 456.481839 40.38417 
L 462.983621 40.756708 
L 466.234512 41.005067 
L 469.485403 40.798102 
L 472.736293 41.087854 
L 475.987184 40.880888 
L 479.238075 40.466956 
L 485.739857 41.129247 
L 488.990747 40.342777 
L 492.241638 40.342777 
L 498.74342 40.839495 
L 501.994311 41.087854 
L 508.496092 40.922281 
L 511.746983 40.715315 
L 514.997874 40.632529 
L 518.248765 40.839495 
L 524.750546 40.756708 
L 534.503219 40.342777 
L 537.75411 40.342777 
L 541.005001 40.632529 
L 544.255891 40.591136 
L 547.506782 40.715315 
L 550.757673 40.135811 
L 557.259455 40.301384 
L 560.510345 40.549743 
L 570.263018 40.38417 
L 573.513909 40.259991 
L 576.7648 40.549743 
L 580.01569 40.549743 
L 583.266581 40.342777 
L 586.517472 40.011632 
L 589.768363 40.342777 
L 593.019254 39.970238 
L 596.270144 40.135811 
L 599.521035 39.639093 
L 606.022817 40.053025 
L 619.02638 40.094418 
L 622.277271 39.556307 
L 625.528162 40.259991 
L 632.029943 40.011632 
L 635.280834 40.053025 
L 645.033507 40.466956 
L 661.287961 40.177204 
L 664.538852 39.804666 
L 667.789742 40.094418 
L 671.040633 40.011632 
L 674.291524 40.218597 
L 677.542415 39.639093 
L 680.793306 39.970238 
L 684.044197 40.177204 
L 687.295087 40.053025 
L 690.545978 40.177204 
L 693.796869 39.680486 
L 703.549541 40.053025 
L 706.800432 39.556307 
L 710.051323 40.301384 
L 713.302214 39.556307 
L 716.553105 40.135811 
L 719.803996 39.970238 
L 723.054886 39.680486 
L 723.054886 39.680486 
" clip-path="url(#p5dad52e2ea)" style="fill: none; stroke: #ff7f0e; stroke-width: 1.5; stroke-linecap: square"/>
   </g>
   <g id="patch_7">
    <path d="M 43.78125 401.558125 
L 43.78125 22.318125 
" style="fill: none; stroke: #000000; stroke-width: 0.8; stroke-linejoin: miter; stroke-linecap: square"/>
   </g>
   <g id="patch_8">
    <path d="M 755.40125 401.558125 
L 755.40125 22.318125 
" style="fill: none; stroke: #000000; stroke-width: 0.8; stroke-linejoin: miter; stroke-linecap: square"/>
   </g>
   <g id="patch_9">
    <path d="M 43.78125 401.558125 
L 755.40125 401.558125 
" style="fill: none; stroke: #000000; stroke-width: 0.8; stroke-linejoin: miter; stroke-linecap: square"/>
   </g>
   <g id="patch_10">
    <path d="M 43.78125 22.318125 
L 755.40125 22.318125 
" style="fill: none; stroke: #000000; stroke-width: 0.8; stroke-linejoin: miter; stroke-linecap: square"/>
   </g>
  </g>
  <g id="axes_3">
   <g id="matplotlib.axis_4">
    <g id="ytick_14">
     <g id="line2d_25">
      <g>
       <use xlink:href="#mbf15596973" x="815.40125" y="347.273182" style="stroke: #000000; stroke-width: 0.8"/>
      </g>
     </g>
     <g id="text_26">
      <!-- 91 -->
      <g style="fill: #2ca02c" transform="translate(822.40125 351.072401) scale(0.1 -0.1)">
       <use xlink:href="#DejaVuSans-39"/>
       <use xlink:href="#DejaVuSans-31" x="63.623047"/>
      </g>
     </g>
    </g>
    <g id="ytick_15">
     <g id="line2d_26">
      <g>
       <use xlink:href="#mbf15596973" x="815.40125" y="288.516662" style="stroke: #000000; stroke-width: 0.8"/>
      </g>
     </g>
     <g id="text_27">
      <!-- 92 -->
      <g style="fill: #2ca02c" transform="translate(822.40125 292.315881) scale(0.1 -0.1)">
       <use xlink:href="#DejaVuSans-39"/>
       <use xlink:href="#DejaVuSans-32" x="63.623047"/>
      </g>
     </g>
    </g>
    <g id="ytick_16">
     <g id="line2d_27">
      <g>
       <use xlink:href="#mbf15596973" x="815.40125" y="229.760142" style="stroke: #000000; stroke-width: 0.8"/>
      </g>
     </g>
     <g id="text_28">
      <!-- 93 -->
      <g style="fill: #2ca02c" transform="translate(822.40125 233.55936) scale(0.1 -0.1)">
       <use xlink:href="#DejaVuSans-39"/>
       <use xlink:href="#DejaVuSans-33" x="63.623047"/>
      </g>
     </g>
    </g>
    <g id="ytick_17">
     <g id="line2d_28">
      <g>
       <use xlink:href="#mbf15596973" x="815.40125" y="171.003621" style="stroke: #000000; stroke-width: 0.8"/>
      </g>
     </g>
     <g id="text_29">
      <!-- 94 -->
      <g style="fill: #2ca02c" transform="translate(822.40125 174.80284) scale(0.1 -0.1)">
       <use xlink:href="#DejaVuSans-39"/>
       <use xlink:href="#DejaVuSans-34" x="63.623047"/>
      </g>
     </g>
    </g>
    <g id="ytick_18">
     <g id="line2d_29">
      <g>
       <use xlink:href="#mbf15596973" x="815.40125" y="112.247101" style="stroke: #000000; stroke-width: 0.8"/>
      </g>
     </g>
     <g id="text_30">
      <!-- 95 -->
      <g style="fill: #2ca02c" transform="translate(822.40125 116.04632) scale(0.1 -0.1)">
       <use xlink:href="#DejaVuSans-39"/>
       <use xlink:href="#DejaVuSans-35" x="63.623047"/>
      </g>
     </g>
    </g>
    <g id="ytick_19">
     <g id="line2d_30">
      <g>
       <use xlink:href="#mbf15596973" x="815.40125" y="53.490581" style="stroke: #000000; stroke-width: 0.8"/>
      </g>
     </g>
     <g id="text_31">
      <!-- 96 -->
      <g style="fill: #2ca02c" transform="translate(822.40125 57.2898) scale(0.1 -0.1)">
       <use xlink:href="#DejaVuSans-39"/>
       <use xlink:href="#DejaVuSans-36" x="63.623047"/>
      </g>
     </g>
    </g>
    <g id="text_32">
     <!-- Sparsity (%) -->
     <g style="fill: #2ca02c" transform="translate(846.724687 242.560781) rotate(-90) scale(0.1 -0.1)">
      <defs>
       <path id="DejaVuSans-53" d="M 3425 4513 
L 3425 3897 
Q 3066 4069 2747 4153 
Q 2428 4238 2131 4238 
Q 1616 4238 1336 4038 
Q 1056 3838 1056 3469 
Q 1056 3159 1242 3001 
Q 1428 2844 1947 2747 
L 2328 2669 
Q 3034 2534 3370 2195 
Q 3706 1856 3706 1288 
Q 3706 609 3251 259 
Q 2797 -91 1919 -91 
Q 1588 -91 1214 -16 
Q 841 59 441 206 
L 441 856 
Q 825 641 1194 531 
Q 1563 422 1919 422 
Q 2459 422 2753 634 
Q 3047 847 3047 1241 
Q 3047 1584 2836 1778 
Q 2625 1972 2144 2069 
L 1759 2144 
Q 1053 2284 737 2584 
Q 422 2884 422 3419 
Q 422 4038 858 4394 
Q 1294 4750 2059 4750 
Q 2388 4750 2728 4690 
Q 3069 4631 3425 4513 
z
" transform="scale(0.015625)"/>
      </defs>
      <use xlink:href="#DejaVuSans-53"/>
      <use xlink:href="#DejaVuSans-70" x="63.476562"/>
      <use xlink:href="#DejaVuSans-61" x="126.953125"/>
      <use xlink:href="#DejaVuSans-72" x="188.232422"/>
      <use xlink:href="#DejaVuSans-73" x="229.345703"/>
      <use xlink:href="#DejaVuSans-69" x="281.445312"/>
      <use xlink:href="#DejaVuSans-74" x="309.228516"/>
      <use xlink:href="#DejaVuSans-79" x="348.4375"/>
      <use xlink:href="#DejaVuSans-20" x="407.617188"/>
      <use xlink:href="#DejaVuSans-28" x="439.404297"/>
      <use xlink:href="#DejaVuSans-25" x="478.417969"/>
      <use xlink:href="#DejaVuSans-29" x="573.4375"/>
     </g>
    </g>
   </g>
   <g id="line2d_31">
    <path d="M 76.127614 384.319943 
L 79.378504 328.350499 
L 82.629395 299.60931 
L 85.880286 281.416982 
L 89.131177 268.927223 
L 92.382068 258.904387 
L 95.632959 251.392951 
L 98.883849 244.34205 
L 102.13474 237.970917 
L 105.385631 232.114953 
L 111.887413 220.984734 
L 115.138303 216.466945 
L 118.389194 212.234233 
L 121.640085 207.705237 
L 124.890976 204.053534 
L 128.141867 199.382351 
L 134.643648 191.147018 
L 141.14543 183.953578 
L 144.396321 180.850313 
L 147.647212 176.836836 
L 150.898102 174.172041 
L 160.650775 164.971863 
L 163.901666 162.592144 
L 167.152557 159.335484 
L 170.403447 157.723439 
L 173.654338 154.949027 
L 176.905229 151.823698 
L 180.15612 150.167876 
L 189.908792 143.182815 
L 193.159683 141.077315 
L 196.410574 138.829278 
L 202.912356 134.958338 
L 206.163246 133.29166 
L 209.414137 130.857307 
L 215.915919 126.953448 
L 219.16681 124.365351 
L 222.4177 122.589054 
L 225.668591 121.44875 
L 228.919482 118.707258 
L 235.421264 115.30771 
L 245.173936 110.461069 
L 248.424827 108.256808 
L 251.675718 106.228006 
L 254.926609 104.002032 
L 258.177499 102.664207 
L 261.42839 101.589744 
L 264.679281 100.317758 
L 267.930172 97.872199 
L 271.181063 96.88529 
L 274.431954 95.39407 
L 280.933735 92.707211 
L 284.184626 91.051389 
L 287.435517 90.272859 
L 293.937298 87.016199 
L 297.188189 86.347286 
L 300.43908 84.186803 
L 303.689971 83.265734 
L 310.191753 80.645067 
L 313.442643 79.043878 
L 316.693534 78.232428 
L 319.944425 77.190885 
L 323.195316 75.721378 
L 326.446207 74.756532 
L 329.697097 73.166551 
L 332.947988 72.256339 
L 336.198879 71.038988 
L 339.44977 69.416086 
L 342.700661 67.606869 
L 349.202442 65.325912 
L 352.453333 63.944309 
L 355.704224 63.220412 
L 358.955115 61.553734 
L 362.206006 60.259685 
L 365.456896 59.371537 
L 368.707787 58.757258 
L 371.958678 58.011647 
L 375.209569 57.003025 
L 378.46046 55.643136 
L 381.711351 54.601242 
L 384.962241 54.151915 
L 391.464023 52.408189 
L 397.965805 51.552961 
L 401.216695 50.960746 
L 404.467586 49.798378 
L 407.718477 49.063625 
L 410.969368 48.19719 
L 414.220259 47.82456 
L 417.471149 46.695113 
L 420.72204 46.39883 
L 423.972931 45.741124 
L 427.223822 45.510682 
L 433.725604 43.701465 
L 436.976494 43.800226 
L 440.227385 43.17509 
L 443.478276 42.385353 
L 446.729167 41.946882 
L 449.980058 41.694727 
L 453.230948 40.949116 
L 456.481839 40.378614 
L 462.983621 39.633004 
L 469.485403 40.027698 
L 472.736293 39.863446 
L 475.987184 40.313124 
L 479.238075 40.115602 
L 482.488966 39.709701 
L 485.739857 39.556307 
L 488.990747 39.567164 
L 492.241638 40.367758 
L 495.492529 40.181443 
L 498.74342 39.698845 
L 505.245202 40.5982 
L 508.496092 40.115602 
L 514.997874 40.25814 
L 518.248765 40.521152 
L 521.499656 41.00375 
L 524.750546 40.488582 
L 528.001437 40.664041 
L 531.252328 41.190065 
L 534.503219 41.179208 
L 537.75411 41.65095 
L 544.255891 41.398444 
L 547.506782 40.762451 
L 550.757673 41.519268 
L 557.259455 42.111484 
L 560.510345 41.946882 
L 563.761236 41.486348 
L 570.263018 41.519268 
L 573.513909 41.979803 
L 576.7648 42.111484 
L 580.01569 42.02358 
L 583.266581 41.815201 
L 586.517472 42.078564 
L 589.768363 42.626652 
L 593.019254 42.692492 
L 599.521035 42.286942 
L 606.022817 43.065473 
L 609.273708 43.153027 
L 612.524599 43.087186 
L 619.02638 43.657688 
L 622.277271 43.536864 
L 625.528162 43.657688 
L 628.779053 43.394326 
L 632.029943 43.624768 
L 638.531725 43.613561 
L 641.782616 44.129079 
L 645.033507 44.951387 
L 648.284398 43.997398 
L 651.535288 43.909844 
L 654.786179 44.469139 
L 658.03707 44.490852 
L 661.287961 44.348314 
L 664.538852 44.94053 
L 667.789742 44.787135 
L 671.040633 45.456048 
L 674.291524 45.017227 
L 677.542415 45.039291 
L 680.793306 45.444841 
L 684.044197 45.510682 
L 687.295087 45.017227 
L 690.545978 46.146674 
L 693.796869 45.664427 
L 706.800432 46.014993 
L 710.051323 45.631506 
L 713.302214 46.33334 
L 716.553105 45.960359 
L 719.803996 46.377117 
L 723.054886 47.199424 
L 723.054886 47.199424 
" clip-path="url(#p5dad52e2ea)" style="fill: none; stroke: #2ca02c; stroke-width: 1.5; stroke-linecap: square"/>
   </g>
   <g id="patch_11">
    <path d="M 43.78125 401.558125 
L 43.78125 22.318125 
" style="fill: none; stroke: #000000; stroke-width: 0.8; stroke-linejoin: miter; stroke-linecap: square"/>
   </g>
   <g id="patch_12">
    <path d="M 815.40125 401.558125 
L 815.40125 22.318125 
" style="fill: none; stroke: #000000; stroke-width: 0.8; stroke-linejoin: miter; stroke-linecap: square"/>
   </g>
   <g id="patch_13">
    <path d="M 43.78125 401.558125 
L 755.40125 401.558125 
" style="fill: none; stroke: #000000; stroke-width: 0.8; stroke-linejoin: miter; stroke-linecap: square"/>
   </g>
   <g id="patch_14">
    <path d="M 43.78125 22.318125 
L 755.40125 22.318125 
" style="fill: none; stroke: #000000; stroke-width: 0.8; stroke-linejoin: miter; stroke-linecap: square"/>
   </g>
   <g id="text_33">
    <!-- SoftDEEPR on MNIST -->
    <g transform="translate(337.565312 16.318125) scale(0.12 -0.12)">
     <defs>
      <path id="DejaVuSans-66" d="M 2375 4863 
L 2375 4384 
L 1825 4384 
Q 1516 4384 1395 4259 
Q 1275 4134 1275 3809 
L 1275 3500 
L 2222 3500 
L 2222 3053 
L 1275 3053 
L 1275 0 
L 697 0 
L 697 3053 
L 147 3053 
L 147 3500 
L 697 3500 
L 697 3744 
Q 697 4328 969 4595 
Q 1241 4863 1831 4863 
L 2375 4863 
z
" transform="scale(0.015625)"/>
      <path id="DejaVuSans-44" d="M 1259 4147 
L 1259 519 
L 2022 519 
Q 2988 519 3436 956 
Q 3884 1394 3884 2338 
Q 3884 3275 3436 3711 
Q 2988 4147 2022 4147 
L 1259 4147 
z
M 628 4666 
L 1925 4666 
Q 3281 4666 3915 4102 
Q 4550 3538 4550 2338 
Q 4550 1131 3912 565 
Q 3275 0 1925 0 
L 628 0 
L 628 4666 
z
" transform="scale(0.015625)"/>
      <path id="DejaVuSans-50" d="M 1259 4147 
L 1259 2394 
L 2053 2394 
Q 2494 2394 2734 2622 
Q 2975 2850 2975 3272 
Q 2975 3691 2734 3919 
Q 2494 4147 2053 4147 
L 1259 4147 
z
M 628 4666 
L 2053 4666 
Q 2838 4666 3239 4311 
Q 3641 3956 3641 3272 
Q 3641 2581 3239 2228 
Q 2838 1875 2053 1875 
L 1259 1875 
L 1259 0 
L 628 0 
L 628 4666 
z
" transform="scale(0.015625)"/>
      <path id="DejaVuSans-52" d="M 2841 2188 
Q 3044 2119 3236 1894 
Q 3428 1669 3622 1275 
L 4263 0 
L 3584 0 
L 2988 1197 
Q 2756 1666 2539 1819 
Q 2322 1972 1947 1972 
L 1259 1972 
L 1259 0 
L 628 0 
L 628 4666 
L 2053 4666 
Q 2853 4666 3247 4331 
Q 3641 3997 3641 3322 
Q 3641 2881 3436 2590 
Q 3231 2300 2841 2188 
z
M 1259 4147 
L 1259 2491 
L 2053 2491 
Q 2509 2491 2742 2702 
Q 2975 2913 2975 3322 
Q 2975 3731 2742 3939 
Q 2509 4147 2053 4147 
L 1259 4147 
z
" transform="scale(0.015625)"/>
      <path id="DejaVuSans-4d" d="M 628 4666 
L 1569 4666 
L 2759 1491 
L 3956 4666 
L 4897 4666 
L 4897 0 
L 4281 0 
L 4281 4097 
L 3078 897 
L 2444 897 
L 1241 4097 
L 1241 0 
L 628 0 
L 628 4666 
z
" transform="scale(0.015625)"/>
      <path id="DejaVuSans-4e" d="M 628 4666 
L 1478 4666 
L 3547 763 
L 3547 4666 
L 4159 4666 
L 4159 0 
L 3309 0 
L 1241 3903 
L 1241 0 
L 628 0 
L 628 4666 
z
" transform="scale(0.015625)"/>
      <path id="DejaVuSans-49" d="M 628 4666 
L 1259 4666 
L 1259 0 
L 628 0 
L 628 4666 
z
" transform="scale(0.015625)"/>
     </defs>
     <use xlink:href="#DejaVuSans-53"/>
     <use xlink:href="#DejaVuSans-6f" x="63.476562"/>
     <use xlink:href="#DejaVuSans-66" x="124.658203"/>
     <use xlink:href="#DejaVuSans-74" x="158.113281"/>
     <use xlink:href="#DejaVuSans-44" x="197.322266"/>
     <use xlink:href="#DejaVuSans-45" x="274.324219"/>
     <use xlink:href="#DejaVuSans-45" x="337.507812"/>
     <use xlink:href="#DejaVuSans-50" x="400.691406"/>
     <use xlink:href="#DejaVuSans-52" x="460.994141"/>
     <use xlink:href="#DejaVuSans-20" x="530.476562"/>
     <use xlink:href="#DejaVuSans-6f" x="562.263672"/>
     <use xlink:href="#DejaVuSans-6e" x="623.445312"/>
     <use xlink:href="#DejaVuSans-20" x="686.824219"/>
     <use xlink:href="#DejaVuSans-4d" x="718.611328"/>
     <use xlink:href="#DejaVuSans-4e" x="804.890625"/>
     <use xlink:href="#DejaVuSans-49" x="879.695312"/>
     <use xlink:href="#DejaVuSans-53" x="909.1875"/>
     <use xlink:href="#DejaVuSans-54" x="972.664062"/>
    </g>
   </g>
  </g>
 </g>
 <defs>
  <clipPath id="p5dad52e2ea">
   <rect x="43.78125" y="22.318125" width="711.62" height="379.24"/>
  </clipPath>
 </defs>
</svg>
