<?xml version="1.0" encoding="utf-8" standalone="no"?>
<!DOCTYPE svg PUBLIC "-//W3C//DTD SVG 1.1//EN"
  "http://www.w3.org/Graphics/SVG/1.1/DTD/svg11.dtd">
<svg xmlns:xlink="http://www.w3.org/1999/xlink" width="856.094375pt" height="436.716364pt" viewBox="0 0 856.094375 436.716364" xmlns="http://www.w3.org/2000/svg" version="1.1">
 <metadata>
  <rdf:RDF xmlns:dc="http://purl.org/dc/elements/1.1/" xmlns:cc="http://creativecommons.org/ns#" xmlns:rdf="http://www.w3.org/1999/02/22-rdf-syntax-ns#">
   <cc:Work>
    <dc:type rdf:resource="http://purl.org/dc/dcmitype/StillImage"/>
    <dc:date>2024-06-18T15:52:16.851507</dc:date>
    <dc:format>image/svg+xml</dc:format>
    <dc:creator>
     <cc:Agent>
      <dc:title>Matplotlib v3.9.0, https://matplotlib.org/</dc:title>
     </cc:Agent>
    </dc:creator>
   </cc:Work>
  </rdf:RDF>
 </metadata>
 <defs>
  <style type="text/css">*{stroke-linejoin: round; stroke-linecap: butt}</style>
 </defs>
 <g id="figure_1">
  <g id="patch_1">
   <path d="M 0 436.716364 
L 856.094375 436.716364 
L 856.094375 0 
L 0 0 
z
" style="fill: #ffffff"/>
  </g>
  <g id="axes_1">
   <g id="patch_2">
    <path d="M 43.78125 399.160114 
L 755.49125 399.160114 
L 755.49125 22.318125 
L 43.78125 22.318125 
z
" style="fill: #ffffff"/>
   </g>
   <g id="matplotlib.axis_1">
    <g id="xtick_1">
     <g id="line2d_1">
      <defs>
       <path id="ma5ff32e82b" d="M 0 0 
L 0 3.5 
" style="stroke: #000000; stroke-width: 0.8"/>
      </defs>
      <g>
       <use xlink:href="#ma5ff32e82b" x="76.131705" y="399.160114" style="stroke: #000000; stroke-width: 0.8"/>
      </g>
     </g>
     <g id="text_1">
      <!-- 0 -->
      <g transform="translate(72.950455 413.758551) scale(0.1 -0.1)">
       <defs>
        <path id="DejaVuSans-30" d="M 2034 4250 
Q 1547 4250 1301 3770 
Q 1056 3291 1056 2328 
Q 1056 1369 1301 889 
Q 1547 409 2034 409 
Q 2525 409 2770 889 
Q 3016 1369 3016 2328 
Q 3016 3291 2770 3770 
Q 2525 4250 2034 4250 
z
M 2034 4750 
Q 2819 4750 3233 4129 
Q 3647 3509 3647 2328 
Q 3647 1150 3233 529 
Q 2819 -91 2034 -91 
Q 1250 -91 836 529 
Q 422 1150 422 2328 
Q 422 3509 836 4129 
Q 1250 4750 2034 4750 
z
" transform="scale(0.015625)"/>
       </defs>
       <use xlink:href="#DejaVuSans-30"/>
      </g>
     </g>
    </g>
    <g id="xtick_2">
     <g id="line2d_2">
      <g>
       <use xlink:href="#ma5ff32e82b" x="205.792845" y="399.160114" style="stroke: #000000; stroke-width: 0.8"/>
      </g>
     </g>
     <g id="text_2">
      <!-- 100 -->
      <g transform="translate(196.249095 413.758551) scale(0.1 -0.1)">
       <defs>
        <path id="DejaVuSans-31" d="M 794 531 
L 1825 531 
L 1825 4091 
L 703 3866 
L 703 4441 
L 1819 4666 
L 2450 4666 
L 2450 531 
L 3481 531 
L 3481 0 
L 794 0 
L 794 531 
z
" transform="scale(0.015625)"/>
       </defs>
       <use xlink:href="#DejaVuSans-31"/>
       <use xlink:href="#DejaVuSans-30" x="63.623047"/>
       <use xlink:href="#DejaVuSans-30" x="127.246094"/>
      </g>
     </g>
    </g>
    <g id="xtick_3">
     <g id="line2d_3">
      <g>
       <use xlink:href="#ma5ff32e82b" x="335.453985" y="399.160114" style="stroke: #000000; stroke-width: 0.8"/>
      </g>
     </g>
     <g id="text_3">
      <!-- 200 -->
      <g transform="translate(325.910235 413.758551) scale(0.1 -0.1)">
       <defs>
        <path id="DejaVuSans-32" d="M 1228 531 
L 3431 531 
L 3431 0 
L 469 0 
L 469 531 
Q 828 903 1448 1529 
Q 2069 2156 2228 2338 
Q 2531 2678 2651 2914 
Q 2772 3150 2772 3378 
Q 2772 3750 2511 3984 
Q 2250 4219 1831 4219 
Q 1534 4219 1204 4116 
Q 875 4013 500 3803 
L 500 4441 
Q 881 4594 1212 4672 
Q 1544 4750 1819 4750 
Q 2544 4750 2975 4387 
Q 3406 4025 3406 3419 
Q 3406 3131 3298 2873 
Q 3191 2616 2906 2266 
Q 2828 2175 2409 1742 
Q 1991 1309 1228 531 
z
" transform="scale(0.015625)"/>
       </defs>
       <use xlink:href="#DejaVuSans-32"/>
       <use xlink:href="#DejaVuSans-30" x="63.623047"/>
       <use xlink:href="#DejaVuSans-30" x="127.246094"/>
      </g>
     </g>
    </g>
    <g id="xtick_4">
     <g id="line2d_4">
      <g>
       <use xlink:href="#ma5ff32e82b" x="465.115126" y="399.160114" style="stroke: #000000; stroke-width: 0.8"/>
      </g>
     </g>
     <g id="text_4">
      <!-- 300 -->
      <g transform="translate(455.571376 413.758551) scale(0.1 -0.1)">
       <defs>
        <path id="DejaVuSans-33" d="M 2597 2516 
Q 3050 2419 3304 2112 
Q 3559 1806 3559 1356 
Q 3559 666 3084 287 
Q 2609 -91 1734 -91 
Q 1441 -91 1130 -33 
Q 819 25 488 141 
L 488 750 
Q 750 597 1062 519 
Q 1375 441 1716 441 
Q 2309 441 2620 675 
Q 2931 909 2931 1356 
Q 2931 1769 2642 2001 
Q 2353 2234 1838 2234 
L 1294 2234 
L 1294 2753 
L 1863 2753 
Q 2328 2753 2575 2939 
Q 2822 3125 2822 3475 
Q 2822 3834 2567 4026 
Q 2313 4219 1838 4219 
Q 1578 4219 1281 4162 
Q 984 4106 628 3988 
L 628 4550 
Q 988 4650 1302 4700 
Q 1616 4750 1894 4750 
Q 2613 4750 3031 4423 
Q 3450 4097 3450 3541 
Q 3450 3153 3228 2886 
Q 3006 2619 2597 2516 
z
" transform="scale(0.015625)"/>
       </defs>
       <use xlink:href="#DejaVuSans-33"/>
       <use xlink:href="#DejaVuSans-30" x="63.623047"/>
       <use xlink:href="#DejaVuSans-30" x="127.246094"/>
      </g>
     </g>
    </g>
    <g id="xtick_5">
     <g id="line2d_5">
      <g>
       <use xlink:href="#ma5ff32e82b" x="594.776266" y="399.160114" style="stroke: #000000; stroke-width: 0.8"/>
      </g>
     </g>
     <g id="text_5">
      <!-- 400 -->
      <g transform="translate(585.232516 413.758551) scale(0.1 -0.1)">
       <defs>
        <path id="DejaVuSans-34" d="M 2419 4116 
L 825 1625 
L 2419 1625 
L 2419 4116 
z
M 2253 4666 
L 3047 4666 
L 3047 1625 
L 3713 1625 
L 3713 1100 
L 3047 1100 
L 3047 0 
L 2419 0 
L 2419 1100 
L 313 1100 
L 313 1709 
L 2253 4666 
z
" transform="scale(0.015625)"/>
       </defs>
       <use xlink:href="#DejaVuSans-34"/>
       <use xlink:href="#DejaVuSans-30" x="63.623047"/>
       <use xlink:href="#DejaVuSans-30" x="127.246094"/>
      </g>
     </g>
    </g>
    <g id="xtick_6">
     <g id="line2d_6">
      <g>
       <use xlink:href="#ma5ff32e82b" x="724.437407" y="399.160114" style="stroke: #000000; stroke-width: 0.8"/>
      </g>
     </g>
     <g id="text_6">
      <!-- 500 -->
      <g transform="translate(714.893657 413.758551) scale(0.1 -0.1)">
       <defs>
        <path id="DejaVuSans-35" d="M 691 4666 
L 3169 4666 
L 3169 4134 
L 1269 4134 
L 1269 2991 
Q 1406 3038 1543 3061 
Q 1681 3084 1819 3084 
Q 2600 3084 3056 2656 
Q 3513 2228 3513 1497 
Q 3513 744 3044 326 
Q 2575 -91 1722 -91 
Q 1428 -91 1123 -41 
Q 819 9 494 109 
L 494 744 
Q 775 591 1075 516 
Q 1375 441 1709 441 
Q 2250 441 2565 725 
Q 2881 1009 2881 1497 
Q 2881 1984 2565 2268 
Q 2250 2553 1709 2553 
Q 1456 2553 1204 2497 
Q 953 2441 691 2322 
L 691 4666 
z
" transform="scale(0.015625)"/>
       </defs>
       <use xlink:href="#DejaVuSans-35"/>
       <use xlink:href="#DejaVuSans-30" x="63.623047"/>
       <use xlink:href="#DejaVuSans-30" x="127.246094"/>
      </g>
     </g>
    </g>
    <g id="text_7">
     <!-- Epochs -->
     <g transform="translate(381.720625 427.436676) scale(0.1 -0.1)">
      <defs>
       <path id="DejaVuSans-45" d="M 628 4666 
L 3578 4666 
L 3578 4134 
L 1259 4134 
L 1259 2753 
L 3481 2753 
L 3481 2222 
L 1259 2222 
L 1259 531 
L 3634 531 
L 3634 0 
L 628 0 
L 628 4666 
z
" transform="scale(0.015625)"/>
       <path id="DejaVuSans-70" d="M 1159 525 
L 1159 -1331 
L 581 -1331 
L 581 3500 
L 1159 3500 
L 1159 2969 
Q 1341 3281 1617 3432 
Q 1894 3584 2278 3584 
Q 2916 3584 3314 3078 
Q 3713 2572 3713 1747 
Q 3713 922 3314 415 
Q 2916 -91 2278 -91 
Q 1894 -91 1617 61 
Q 1341 213 1159 525 
z
M 3116 1747 
Q 3116 2381 2855 2742 
Q 2594 3103 2138 3103 
Q 1681 3103 1420 2742 
Q 1159 2381 1159 1747 
Q 1159 1113 1420 752 
Q 1681 391 2138 391 
Q 2594 391 2855 752 
Q 3116 1113 3116 1747 
z
" transform="scale(0.015625)"/>
       <path id="DejaVuSans-6f" d="M 1959 3097 
Q 1497 3097 1228 2736 
Q 959 2375 959 1747 
Q 959 1119 1226 758 
Q 1494 397 1959 397 
Q 2419 397 2687 759 
Q 2956 1122 2956 1747 
Q 2956 2369 2687 2733 
Q 2419 3097 1959 3097 
z
M 1959 3584 
Q 2709 3584 3137 3096 
Q 3566 2609 3566 1747 
Q 3566 888 3137 398 
Q 2709 -91 1959 -91 
Q 1206 -91 779 398 
Q 353 888 353 1747 
Q 353 2609 779 3096 
Q 1206 3584 1959 3584 
z
" transform="scale(0.015625)"/>
       <path id="DejaVuSans-63" d="M 3122 3366 
L 3122 2828 
Q 2878 2963 2633 3030 
Q 2388 3097 2138 3097 
Q 1578 3097 1268 2742 
Q 959 2388 959 1747 
Q 959 1106 1268 751 
Q 1578 397 2138 397 
Q 2388 397 2633 464 
Q 2878 531 3122 666 
L 3122 134 
Q 2881 22 2623 -34 
Q 2366 -91 2075 -91 
Q 1284 -91 818 406 
Q 353 903 353 1747 
Q 353 2603 823 3093 
Q 1294 3584 2113 3584 
Q 2378 3584 2631 3529 
Q 2884 3475 3122 3366 
z
" transform="scale(0.015625)"/>
       <path id="DejaVuSans-68" d="M 3513 2113 
L 3513 0 
L 2938 0 
L 2938 2094 
Q 2938 2591 2744 2837 
Q 2550 3084 2163 3084 
Q 1697 3084 1428 2787 
Q 1159 2491 1159 1978 
L 1159 0 
L 581 0 
L 581 4863 
L 1159 4863 
L 1159 2956 
Q 1366 3272 1645 3428 
Q 1925 3584 2291 3584 
Q 2894 3584 3203 3211 
Q 3513 2838 3513 2113 
z
" transform="scale(0.015625)"/>
       <path id="DejaVuSans-73" d="M 2834 3397 
L 2834 2853 
Q 2591 2978 2328 3040 
Q 2066 3103 1784 3103 
Q 1356 3103 1142 2972 
Q 928 2841 928 2578 
Q 928 2378 1081 2264 
Q 1234 2150 1697 2047 
L 1894 2003 
Q 2506 1872 2764 1633 
Q 3022 1394 3022 966 
Q 3022 478 2636 193 
Q 2250 -91 1575 -91 
Q 1294 -91 989 -36 
Q 684 19 347 128 
L 347 722 
Q 666 556 975 473 
Q 1284 391 1588 391 
Q 1994 391 2212 530 
Q 2431 669 2431 922 
Q 2431 1156 2273 1281 
Q 2116 1406 1581 1522 
L 1381 1569 
Q 847 1681 609 1914 
Q 372 2147 372 2553 
Q 372 3047 722 3315 
Q 1072 3584 1716 3584 
Q 2034 3584 2315 3537 
Q 2597 3491 2834 3397 
z
" transform="scale(0.015625)"/>
      </defs>
      <use xlink:href="#DejaVuSans-45"/>
      <use xlink:href="#DejaVuSans-70" x="63.183594"/>
      <use xlink:href="#DejaVuSans-6f" x="126.660156"/>
      <use xlink:href="#DejaVuSans-63" x="187.841797"/>
      <use xlink:href="#DejaVuSans-68" x="242.822266"/>
      <use xlink:href="#DejaVuSans-73" x="306.201172"/>
     </g>
    </g>
   </g>
   <g id="matplotlib.axis_2">
    <g id="ytick_1">
     <g id="line2d_7">
      <defs>
       <path id="m6e2e6571d9" d="M 0 0 
L -3.5 0 
" style="stroke: #000000; stroke-width: 0.8"/>
      </defs>
      <g>
       <use xlink:href="#m6e2e6571d9" x="43.78125" y="384.397231" style="stroke: #000000; stroke-width: 0.8"/>
      </g>
     </g>
     <g id="text_8">
      <!-- 0.0 -->
      <g style="fill: #1f77b4" transform="translate(20.878125 388.19645) scale(0.1 -0.1)">
       <defs>
        <path id="DejaVuSans-2e" d="M 684 794 
L 1344 794 
L 1344 0 
L 684 0 
L 684 794 
z
" transform="scale(0.015625)"/>
       </defs>
       <use xlink:href="#DejaVuSans-30"/>
       <use xlink:href="#DejaVuSans-2e" x="63.623047"/>
       <use xlink:href="#DejaVuSans-30" x="95.410156"/>
      </g>
     </g>
    </g>
    <g id="ytick_2">
     <g id="line2d_8">
      <g>
       <use xlink:href="#m6e2e6571d9" x="43.78125" y="306.740284" style="stroke: #000000; stroke-width: 0.8"/>
      </g>
     </g>
     <g id="text_9">
      <!-- 0.2 -->
      <g style="fill: #1f77b4" transform="translate(20.878125 310.539503) scale(0.1 -0.1)">
       <use xlink:href="#DejaVuSans-30"/>
       <use xlink:href="#DejaVuSans-2e" x="63.623047"/>
       <use xlink:href="#DejaVuSans-32" x="95.410156"/>
      </g>
     </g>
    </g>
    <g id="ytick_3">
     <g id="line2d_9">
      <g>
       <use xlink:href="#m6e2e6571d9" x="43.78125" y="229.083337" style="stroke: #000000; stroke-width: 0.8"/>
      </g>
     </g>
     <g id="text_10">
      <!-- 0.4 -->
      <g style="fill: #1f77b4" transform="translate(20.878125 232.882556) scale(0.1 -0.1)">
       <use xlink:href="#DejaVuSans-30"/>
       <use xlink:href="#DejaVuSans-2e" x="63.623047"/>
       <use xlink:href="#DejaVuSans-34" x="95.410156"/>
      </g>
     </g>
    </g>
    <g id="ytick_4">
     <g id="line2d_10">
      <g>
       <use xlink:href="#m6e2e6571d9" x="43.78125" y="151.426391" style="stroke: #000000; stroke-width: 0.8"/>
      </g>
     </g>
     <g id="text_11">
      <!-- 0.6 -->
      <g style="fill: #1f77b4" transform="translate(20.878125 155.225609) scale(0.1 -0.1)">
       <defs>
        <path id="DejaVuSans-36" d="M 2113 2584 
Q 1688 2584 1439 2293 
Q 1191 2003 1191 1497 
Q 1191 994 1439 701 
Q 1688 409 2113 409 
Q 2538 409 2786 701 
Q 3034 994 3034 1497 
Q 3034 2003 2786 2293 
Q 2538 2584 2113 2584 
z
M 3366 4563 
L 3366 3988 
Q 3128 4100 2886 4159 
Q 2644 4219 2406 4219 
Q 1781 4219 1451 3797 
Q 1122 3375 1075 2522 
Q 1259 2794 1537 2939 
Q 1816 3084 2150 3084 
Q 2853 3084 3261 2657 
Q 3669 2231 3669 1497 
Q 3669 778 3244 343 
Q 2819 -91 2113 -91 
Q 1303 -91 875 529 
Q 447 1150 447 2328 
Q 447 3434 972 4092 
Q 1497 4750 2381 4750 
Q 2619 4750 2861 4703 
Q 3103 4656 3366 4563 
z
" transform="scale(0.015625)"/>
       </defs>
       <use xlink:href="#DejaVuSans-30"/>
       <use xlink:href="#DejaVuSans-2e" x="63.623047"/>
       <use xlink:href="#DejaVuSans-36" x="95.410156"/>
      </g>
     </g>
    </g>
    <g id="ytick_5">
     <g id="line2d_11">
      <g>
       <use xlink:href="#m6e2e6571d9" x="43.78125" y="73.769444" style="stroke: #000000; stroke-width: 0.8"/>
      </g>
     </g>
     <g id="text_12">
      <!-- 0.8 -->
      <g style="fill: #1f77b4" transform="translate(20.878125 77.568662) scale(0.1 -0.1)">
       <defs>
        <path id="DejaVuSans-38" d="M 2034 2216 
Q 1584 2216 1326 1975 
Q 1069 1734 1069 1313 
Q 1069 891 1326 650 
Q 1584 409 2034 409 
Q 2484 409 2743 651 
Q 3003 894 3003 1313 
Q 3003 1734 2745 1975 
Q 2488 2216 2034 2216 
z
M 1403 2484 
Q 997 2584 770 2862 
Q 544 3141 544 3541 
Q 544 4100 942 4425 
Q 1341 4750 2034 4750 
Q 2731 4750 3128 4425 
Q 3525 4100 3525 3541 
Q 3525 3141 3298 2862 
Q 3072 2584 2669 2484 
Q 3125 2378 3379 2068 
Q 3634 1759 3634 1313 
Q 3634 634 3220 271 
Q 2806 -91 2034 -91 
Q 1263 -91 848 271 
Q 434 634 434 1313 
Q 434 1759 690 2068 
Q 947 2378 1403 2484 
z
M 1172 3481 
Q 1172 3119 1398 2916 
Q 1625 2713 2034 2713 
Q 2441 2713 2670 2916 
Q 2900 3119 2900 3481 
Q 2900 3844 2670 4047 
Q 2441 4250 2034 4250 
Q 1625 4250 1398 4047 
Q 1172 3844 1172 3481 
z
" transform="scale(0.015625)"/>
       </defs>
       <use xlink:href="#DejaVuSans-30"/>
       <use xlink:href="#DejaVuSans-2e" x="63.623047"/>
       <use xlink:href="#DejaVuSans-38" x="95.410156"/>
      </g>
     </g>
    </g>
    <g id="text_13">
     <!-- Training Loss -->
     <g style="fill: #1f77b4" transform="translate(14.798438 243.021151) rotate(-90) scale(0.1 -0.1)">
      <defs>
       <path id="DejaVuSans-54" d="M -19 4666 
L 3928 4666 
L 3928 4134 
L 2272 4134 
L 2272 0 
L 1638 0 
L 1638 4134 
L -19 4134 
L -19 4666 
z
" transform="scale(0.015625)"/>
       <path id="DejaVuSans-72" d="M 2631 2963 
Q 2534 3019 2420 3045 
Q 2306 3072 2169 3072 
Q 1681 3072 1420 2755 
Q 1159 2438 1159 1844 
L 1159 0 
L 581 0 
L 581 3500 
L 1159 3500 
L 1159 2956 
Q 1341 3275 1631 3429 
Q 1922 3584 2338 3584 
Q 2397 3584 2469 3576 
Q 2541 3569 2628 3553 
L 2631 2963 
z
" transform="scale(0.015625)"/>
       <path id="DejaVuSans-61" d="M 2194 1759 
Q 1497 1759 1228 1600 
Q 959 1441 959 1056 
Q 959 750 1161 570 
Q 1363 391 1709 391 
Q 2188 391 2477 730 
Q 2766 1069 2766 1631 
L 2766 1759 
L 2194 1759 
z
M 3341 1997 
L 3341 0 
L 2766 0 
L 2766 531 
Q 2569 213 2275 61 
Q 1981 -91 1556 -91 
Q 1019 -91 701 211 
Q 384 513 384 1019 
Q 384 1609 779 1909 
Q 1175 2209 1959 2209 
L 2766 2209 
L 2766 2266 
Q 2766 2663 2505 2880 
Q 2244 3097 1772 3097 
Q 1472 3097 1187 3025 
Q 903 2953 641 2809 
L 641 3341 
Q 956 3463 1253 3523 
Q 1550 3584 1831 3584 
Q 2591 3584 2966 3190 
Q 3341 2797 3341 1997 
z
" transform="scale(0.015625)"/>
       <path id="DejaVuSans-69" d="M 603 3500 
L 1178 3500 
L 1178 0 
L 603 0 
L 603 3500 
z
M 603 4863 
L 1178 4863 
L 1178 4134 
L 603 4134 
L 603 4863 
z
" transform="scale(0.015625)"/>
       <path id="DejaVuSans-6e" d="M 3513 2113 
L 3513 0 
L 2938 0 
L 2938 2094 
Q 2938 2591 2744 2837 
Q 2550 3084 2163 3084 
Q 1697 3084 1428 2787 
Q 1159 2491 1159 1978 
L 1159 0 
L 581 0 
L 581 3500 
L 1159 3500 
L 1159 2956 
Q 1366 3272 1645 3428 
Q 1925 3584 2291 3584 
Q 2894 3584 3203 3211 
Q 3513 2838 3513 2113 
z
" transform="scale(0.015625)"/>
       <path id="DejaVuSans-67" d="M 2906 1791 
Q 2906 2416 2648 2759 
Q 2391 3103 1925 3103 
Q 1463 3103 1205 2759 
Q 947 2416 947 1791 
Q 947 1169 1205 825 
Q 1463 481 1925 481 
Q 2391 481 2648 825 
Q 2906 1169 2906 1791 
z
M 3481 434 
Q 3481 -459 3084 -895 
Q 2688 -1331 1869 -1331 
Q 1566 -1331 1297 -1286 
Q 1028 -1241 775 -1147 
L 775 -588 
Q 1028 -725 1275 -790 
Q 1522 -856 1778 -856 
Q 2344 -856 2625 -561 
Q 2906 -266 2906 331 
L 2906 616 
Q 2728 306 2450 153 
Q 2172 0 1784 0 
Q 1141 0 747 490 
Q 353 981 353 1791 
Q 353 2603 747 3093 
Q 1141 3584 1784 3584 
Q 2172 3584 2450 3431 
Q 2728 3278 2906 2969 
L 2906 3500 
L 3481 3500 
L 3481 434 
z
" transform="scale(0.015625)"/>
       <path id="DejaVuSans-20" transform="scale(0.015625)"/>
       <path id="DejaVuSans-4c" d="M 628 4666 
L 1259 4666 
L 1259 531 
L 3531 531 
L 3531 0 
L 628 0 
L 628 4666 
z
" transform="scale(0.015625)"/>
      </defs>
      <use xlink:href="#DejaVuSans-54"/>
      <use xlink:href="#DejaVuSans-72" x="46.333984"/>
      <use xlink:href="#DejaVuSans-61" x="87.447266"/>
      <use xlink:href="#DejaVuSans-69" x="148.726562"/>
      <use xlink:href="#DejaVuSans-6e" x="176.509766"/>
      <use xlink:href="#DejaVuSans-69" x="239.888672"/>
      <use xlink:href="#DejaVuSans-6e" x="267.671875"/>
      <use xlink:href="#DejaVuSans-67" x="331.050781"/>
      <use xlink:href="#DejaVuSans-20" x="394.527344"/>
      <use xlink:href="#DejaVuSans-4c" x="426.314453"/>
      <use xlink:href="#DejaVuSans-6f" x="480.277344"/>
      <use xlink:href="#DejaVuSans-73" x="541.458984"/>
      <use xlink:href="#DejaVuSans-73" x="593.558594"/>
     </g>
    </g>
   </g>
   <g id="line2d_12">
    <path d="M 76.131705 39.447306 
L 77.428316 245.647534 
L 78.724927 272.083269 
L 80.021539 291.688692 
L 81.31815 304.482483 
L 82.614762 313.598404 
L 83.911373 321.514505 
L 86.504596 331.755072 
L 87.801207 335.714044 
L 89.097819 339.180347 
L 90.39443 340.907811 
L 91.691041 343.97117 
L 94.284264 348.120701 
L 96.877487 351.759964 
L 98.174098 353.04952 
L 99.47071 353.961284 
L 102.063933 356.184682 
L 104.657155 359.171956 
L 105.953767 359.462988 
L 107.250378 360.58919 
L 108.54699 360.727855 
L 109.843601 362.296929 
L 111.140212 362.409518 
L 113.733435 363.869243 
L 117.623269 365.925652 
L 118.919881 366.143783 
L 120.216492 366.223644 
L 121.513104 367.33878 
L 122.809715 367.853005 
L 124.106327 368.517076 
L 125.402938 368.439036 
L 126.699549 368.597765 
L 127.996161 368.485959 
L 129.292772 369.742915 
L 130.589384 370.242431 
L 133.182606 370.492472 
L 134.479218 370.681968 
L 137.072441 371.273365 
L 138.369052 372.090905 
L 139.665663 372.379563 
L 140.962275 372.068355 
L 142.258886 372.336429 
L 143.555498 373.002902 
L 144.852109 373.167019 
L 146.14872 372.603272 
L 147.445332 373.761384 
L 150.038555 373.752875 
L 151.335166 374.10804 
L 152.631777 374.203753 
L 153.928389 374.614869 
L 155.225 375.150968 
L 156.521612 374.558323 
L 159.114834 375.118424 
L 160.411446 375.193819 
L 161.708057 375.473833 
L 163.004669 375.188632 
L 164.30128 375.745558 
L 165.597891 376.15133 
L 166.894503 375.809323 
L 168.191114 376.427197 
L 169.487726 376.256488 
L 170.784337 376.396358 
L 172.080948 376.366145 
L 173.37756 376.789713 
L 174.674171 376.597281 
L 175.970783 376.737377 
L 177.267394 376.531381 
L 178.564006 376.92857 
L 179.860617 377.041738 
L 181.157228 377.309234 
L 182.45384 377.146796 
L 183.750451 377.54081 
L 186.343674 377.184084 
L 188.936897 377.638407 
L 190.233508 377.322229 
L 191.53012 377.719817 
L 192.826731 378.000868 
L 194.123342 378.1221 
L 195.419954 377.953595 
L 196.716565 378.120155 
L 200.606399 378.104129 
L 201.903011 378.305494 
L 208.386068 378.458348 
L 209.682679 378.962509 
L 210.979291 378.78814 
L 212.275902 378.918422 
L 216.165736 378.657512 
L 217.462348 378.993267 
L 218.758959 378.779882 
L 222.648793 378.838123 
L 223.945405 379.332046 
L 226.538627 379.107425 
L 227.835239 379.196332 
L 229.13185 379.433507 
L 230.428462 379.323776 
L 231.725073 378.994692 
L 233.021685 379.339718 
L 235.614907 379.49364 
L 236.911519 379.351582 
L 238.20813 379.35065 
L 239.504742 379.538903 
L 242.097964 379.202068 
L 243.394576 379.426776 
L 247.28441 379.588031 
L 248.581021 379.977024 
L 249.877633 379.794167 
L 251.174244 379.426096 
L 252.470856 379.875906 
L 253.767467 380.036432 
L 255.064078 379.844837 
L 256.36069 380.044185 
L 257.657301 379.677401 
L 260.250524 380.310202 
L 261.547135 380.075673 
L 264.140358 379.978313 
L 265.43697 380.205903 
L 266.733581 380.012222 
L 268.030192 379.998305 
L 269.326804 380.393603 
L 270.623415 379.717011 
L 271.920027 380.267186 
L 273.216638 379.95002 
L 274.513249 379.813795 
L 275.809861 380.27517 
L 277.106472 379.875002 
L 280.996306 380.383953 
L 282.292918 380.539227 
L 284.886141 380.232722 
L 287.479363 380.293121 
L 288.775975 380.205281 
L 290.072586 380.371084 
L 292.665809 380.248267 
L 295.259032 380.559225 
L 297.852255 380.387991 
L 303.0387 380.461164 
L 306.928535 380.545539 
L 308.225146 380.480521 
L 309.521757 380.284888 
L 310.818369 380.643447 
L 312.11498 380.738466 
L 314.708203 380.678385 
L 316.004814 380.352879 
L 317.301426 380.724752 
L 319.894649 380.729917 
L 321.19126 380.547719 
L 326.377706 380.752479 
L 327.674317 380.596354 
L 328.970928 380.55227 
L 330.26754 380.874229 
L 332.860763 380.581058 
L 334.157374 380.808894 
L 339.34382 380.885202 
L 340.640431 380.586287 
L 341.937042 380.764922 
L 344.530265 380.692399 
L 345.826877 381.023658 
L 347.123488 380.675341 
L 349.716711 381.028904 
L 352.309934 380.860209 
L 353.606545 380.710967 
L 354.903157 380.786276 
L 356.199768 381.008093 
L 357.496379 380.734477 
L 358.792991 381.102333 
L 360.089602 380.873837 
L 361.386214 380.845384 
L 362.682825 381.059332 
L 365.276048 380.817681 
L 366.572659 380.976766 
L 371.759105 381.126137 
L 373.055716 380.869144 
L 374.352328 380.998884 
L 375.648939 381.001294 
L 376.94555 381.254726 
L 382.131996 381.138862 
L 383.428607 380.865108 
L 384.725219 381.014904 
L 386.02183 381.359865 
L 387.318442 380.980057 
L 388.615053 381.1682 
L 389.911664 380.930273 
L 393.801499 381.061641 
L 395.09811 381.026349 
L 396.394721 381.352727 
L 397.691333 381.007366 
L 398.987944 381.247895 
L 400.284556 381.271699 
L 401.581167 381.017089 
L 402.877779 381.283807 
L 404.17439 381.012965 
L 406.767613 381.248028 
L 408.064224 381.036343 
L 409.360836 381.231061 
L 410.657447 381.155821 
L 411.954058 381.404611 
L 413.25067 381.100495 
L 414.547281 381.07442 
L 415.843893 381.282916 
L 417.140504 381.114957 
L 423.623561 381.415512 
L 426.216784 381.117193 
L 427.513395 381.0828 
L 428.810007 381.368773 
L 431.403229 381.030995 
L 432.699841 381.351315 
L 433.996452 381.207024 
L 436.589675 381.24477 
L 439.182898 381.499758 
L 440.479509 381.323552 
L 443.072732 381.370694 
L 444.369343 381.318611 
L 445.665955 381.494194 
L 446.962566 381.258631 
L 449.555789 381.211123 
L 452.149012 381.327695 
L 454.742235 381.389392 
L 456.038846 381.272182 
L 458.632069 381.635285 
L 459.92868 381.141845 
L 462.521903 381.512282 
L 463.818515 381.249688 
L 466.411737 381.442365 
L 467.708349 381.282183 
L 469.00496 381.435298 
L 470.301572 381.30192 
L 471.598183 381.29624 
L 472.894794 381.108894 
L 474.191406 381.340516 
L 479.377851 381.33425 
L 480.674463 381.209037 
L 481.971074 381.453952 
L 483.267686 381.381183 
L 484.564297 381.610595 
L 485.860908 381.448261 
L 487.15752 381.423371 
L 488.454131 381.585267 
L 491.047354 381.21963 
L 494.937188 381.501375 
L 496.2338 381.691973 
L 497.530411 381.48982 
L 498.827022 381.601258 
L 500.123634 381.35312 
L 501.420245 381.646253 
L 504.013468 381.408725 
L 505.310079 381.682473 
L 506.606691 381.493003 
L 507.903302 381.670773 
L 509.199914 381.463891 
L 510.496525 381.65968 
L 511.793137 381.311075 
L 513.089748 381.605636 
L 514.386359 381.373598 
L 515.682971 381.375674 
L 516.979582 381.685509 
L 519.572805 381.489782 
L 522.166028 381.712637 
L 523.462639 381.444492 
L 524.759251 381.628053 
L 526.055862 381.417574 
L 527.352473 381.354618 
L 528.649085 381.557849 
L 529.945696 381.428791 
L 531.242308 381.753456 
L 532.538919 381.545612 
L 533.83553 381.609618 
L 535.132142 381.428762 
L 536.428753 381.556543 
L 537.725365 381.544891 
L 539.021976 381.380709 
L 540.318587 381.654312 
L 544.208422 381.562089 
L 545.505033 381.755422 
L 548.098256 381.614235 
L 549.394867 381.396451 
L 550.691479 381.454169 
L 551.98809 381.673355 
L 553.284701 381.586241 
L 555.877924 381.69495 
L 558.471147 381.392734 
L 561.06437 381.821977 
L 564.954204 381.586368 
L 566.250815 381.83237 
L 567.547427 381.506887 
L 570.14065 381.613349 
L 571.437261 381.464836 
L 572.733873 381.820921 
L 575.327095 381.655346 
L 576.623707 381.877432 
L 577.920318 381.773957 
L 579.21693 381.913126 
L 581.810152 381.684142 
L 583.106764 382.030932 
L 584.403375 381.515876 
L 585.699987 381.582212 
L 586.996598 381.489427 
L 588.293209 381.863541 
L 590.886432 381.829196 
L 592.183044 381.522609 
L 593.479655 381.68796 
L 594.776266 381.500809 
L 597.369489 381.747861 
L 598.666101 381.610692 
L 599.962712 381.732372 
L 602.555935 381.700763 
L 603.852546 381.515245 
L 605.149158 381.859237 
L 606.445769 381.28633 
L 607.74238 381.682432 
L 609.038992 381.941828 
L 610.335603 381.572012 
L 611.632215 381.752953 
L 614.225437 381.635206 
L 615.522049 381.931054 
L 616.81866 381.678327 
L 618.115272 381.71623 
L 619.411883 381.913466 
L 622.005106 381.740477 
L 623.301717 381.434225 
L 624.598329 381.669965 
L 628.488163 381.82241 
L 629.784774 381.693151 
L 632.377997 381.736236 
L 633.674609 381.928632 
L 634.97122 381.590758 
L 636.267831 381.752584 
L 637.564443 381.67172 
L 638.861054 381.827702 
L 640.157666 381.818228 
L 641.454277 381.658928 
L 644.0475 381.876014 
L 646.640723 381.739483 
L 647.937334 381.73203 
L 649.233945 381.882579 
L 651.827168 381.650704 
L 653.12378 381.829425 
L 654.420391 381.661499 
L 655.717002 381.785705 
L 657.013614 381.626012 
L 658.310225 381.654218 
L 659.606837 381.819779 
L 660.903448 381.629089 
L 662.200059 381.855718 
L 663.496671 381.636397 
L 664.793282 381.86279 
L 666.089894 381.587121 
L 672.572951 381.899379 
L 673.869562 381.769569 
L 676.462785 381.994032 
L 677.759396 381.788929 
L 679.056008 381.7164 
L 680.352619 381.88518 
L 681.649231 381.760528 
L 682.945842 381.861178 
L 685.539065 381.866739 
L 686.835676 381.962346 
L 692.022122 381.753321 
L 698.505179 381.781784 
L 699.80179 381.684875 
L 701.098402 381.818493 
L 703.691624 381.715615 
L 704.988236 382.003536 
L 706.284847 381.803977 
L 707.581459 381.773505 
L 708.87807 381.94595 
L 710.174681 381.971987 
L 711.471293 381.804352 
L 712.767904 381.801251 
L 714.064516 381.988602 
L 716.657738 381.874481 
L 719.250961 381.942492 
L 720.547573 381.535494 
L 721.844184 381.967275 
L 723.140795 381.693174 
L 723.140795 381.693174 
" clip-path="url(#p5be9ab8665)" style="fill: none; stroke: #1f77b4; stroke-width: 1.5; stroke-linecap: square"/>
   </g>
   <g id="patch_3">
    <path d="M 43.78125 399.160114 
L 43.78125 22.318125 
" style="fill: none; stroke: #000000; stroke-width: 0.8; stroke-linejoin: miter; stroke-linecap: square"/>
   </g>
   <g id="patch_4">
    <path d="M 755.49125 399.160114 
L 755.49125 22.318125 
" style="fill: none; stroke: #000000; stroke-width: 0.8; stroke-linejoin: miter; stroke-linecap: square"/>
   </g>
   <g id="patch_5">
    <path d="M 43.78125 399.160114 
L 755.49125 399.160114 
" style="fill: none; stroke: #000000; stroke-width: 0.8; stroke-linejoin: miter; stroke-linecap: square"/>
   </g>
   <g id="patch_6">
    <path d="M 43.78125 22.318125 
L 755.49125 22.318125 
" style="fill: none; stroke: #000000; stroke-width: 0.8; stroke-linejoin: miter; stroke-linecap: square"/>
   </g>
  </g>
  <g id="axes_2">
   <g id="matplotlib.axis_3">
    <g id="ytick_6">
     <g id="line2d_13">
      <defs>
       <path id="m0da8f64a1d" d="M 0 0 
L 3.5 0 
" style="stroke: #000000; stroke-width: 0.8"/>
      </defs>
      <g>
       <use xlink:href="#m0da8f64a1d" x="755.49125" y="383.044493" style="stroke: #000000; stroke-width: 0.8"/>
      </g>
     </g>
     <g id="text_14">
      <!-- 90 -->
      <g style="fill: #ff7f0e" transform="translate(762.49125 386.843712) scale(0.1 -0.1)">
       <defs>
        <path id="DejaVuSans-39" d="M 703 97 
L 703 672 
Q 941 559 1184 500 
Q 1428 441 1663 441 
Q 2288 441 2617 861 
Q 2947 1281 2994 2138 
Q 2813 1869 2534 1725 
Q 2256 1581 1919 1581 
Q 1219 1581 811 2004 
Q 403 2428 403 3163 
Q 403 3881 828 4315 
Q 1253 4750 1959 4750 
Q 2769 4750 3195 4129 
Q 3622 3509 3622 2328 
Q 3622 1225 3098 567 
Q 2575 -91 1691 -91 
Q 1453 -91 1209 -44 
Q 966 3 703 97 
z
M 1959 2075 
Q 2384 2075 2632 2365 
Q 2881 2656 2881 3163 
Q 2881 3666 2632 3958 
Q 2384 4250 1959 4250 
Q 1534 4250 1286 3958 
Q 1038 3666 1038 3163 
Q 1038 2656 1286 2365 
Q 1534 2075 1959 2075 
z
" transform="scale(0.015625)"/>
       </defs>
       <use xlink:href="#DejaVuSans-39"/>
       <use xlink:href="#DejaVuSans-30" x="63.623047"/>
      </g>
     </g>
    </g>
    <g id="ytick_7">
     <g id="line2d_14">
      <g>
       <use xlink:href="#m0da8f64a1d" x="755.49125" y="301.959612" style="stroke: #000000; stroke-width: 0.8"/>
      </g>
     </g>
     <g id="text_15">
      <!-- 92 -->
      <g style="fill: #ff7f0e" transform="translate(762.49125 305.75883) scale(0.1 -0.1)">
       <use xlink:href="#DejaVuSans-39"/>
       <use xlink:href="#DejaVuSans-32" x="63.623047"/>
      </g>
     </g>
    </g>
    <g id="ytick_8">
     <g id="line2d_15">
      <g>
       <use xlink:href="#m0da8f64a1d" x="755.49125" y="220.87473" style="stroke: #000000; stroke-width: 0.8"/>
      </g>
     </g>
     <g id="text_16">
      <!-- 94 -->
      <g style="fill: #ff7f0e" transform="translate(762.49125 224.673948) scale(0.1 -0.1)">
       <use xlink:href="#DejaVuSans-39"/>
       <use xlink:href="#DejaVuSans-34" x="63.623047"/>
      </g>
     </g>
    </g>
    <g id="ytick_9">
     <g id="line2d_16">
      <g>
       <use xlink:href="#m0da8f64a1d" x="755.49125" y="139.789848" style="stroke: #000000; stroke-width: 0.8"/>
      </g>
     </g>
     <g id="text_17">
      <!-- 96 -->
      <g style="fill: #ff7f0e" transform="translate(762.49125 143.589066) scale(0.1 -0.1)">
       <use xlink:href="#DejaVuSans-39"/>
       <use xlink:href="#DejaVuSans-36" x="63.623047"/>
      </g>
     </g>
    </g>
    <g id="ytick_10">
     <g id="line2d_17">
      <g>
       <use xlink:href="#m0da8f64a1d" x="755.49125" y="58.704966" style="stroke: #000000; stroke-width: 0.8"/>
      </g>
     </g>
     <g id="text_18">
      <!-- 98 -->
      <g style="fill: #ff7f0e" transform="translate(762.49125 62.504185) scale(0.1 -0.1)">
       <use xlink:href="#DejaVuSans-39"/>
       <use xlink:href="#DejaVuSans-38" x="63.623047"/>
      </g>
     </g>
    </g>
    <g id="text_19">
     <!-- Validation Accuracy (%) -->
     <g style="fill: #ff7f0e" transform="translate(786.814687 270.088338) rotate(-90) scale(0.1 -0.1)">
      <defs>
       <path id="DejaVuSans-56" d="M 1831 0 
L 50 4666 
L 709 4666 
L 2188 738 
L 3669 4666 
L 4325 4666 
L 2547 0 
L 1831 0 
z
" transform="scale(0.015625)"/>
       <path id="DejaVuSans-6c" d="M 603 4863 
L 1178 4863 
L 1178 0 
L 603 0 
L 603 4863 
z
" transform="scale(0.015625)"/>
       <path id="DejaVuSans-64" d="M 2906 2969 
L 2906 4863 
L 3481 4863 
L 3481 0 
L 2906 0 
L 2906 525 
Q 2725 213 2448 61 
Q 2172 -91 1784 -91 
Q 1150 -91 751 415 
Q 353 922 353 1747 
Q 353 2572 751 3078 
Q 1150 3584 1784 3584 
Q 2172 3584 2448 3432 
Q 2725 3281 2906 2969 
z
M 947 1747 
Q 947 1113 1208 752 
Q 1469 391 1925 391 
Q 2381 391 2643 752 
Q 2906 1113 2906 1747 
Q 2906 2381 2643 2742 
Q 2381 3103 1925 3103 
Q 1469 3103 1208 2742 
Q 947 2381 947 1747 
z
" transform="scale(0.015625)"/>
       <path id="DejaVuSans-74" d="M 1172 4494 
L 1172 3500 
L 2356 3500 
L 2356 3053 
L 1172 3053 
L 1172 1153 
Q 1172 725 1289 603 
Q 1406 481 1766 481 
L 2356 481 
L 2356 0 
L 1766 0 
Q 1100 0 847 248 
Q 594 497 594 1153 
L 594 3053 
L 172 3053 
L 172 3500 
L 594 3500 
L 594 4494 
L 1172 4494 
z
" transform="scale(0.015625)"/>
       <path id="DejaVuSans-41" d="M 2188 4044 
L 1331 1722 
L 3047 1722 
L 2188 4044 
z
M 1831 4666 
L 2547 4666 
L 4325 0 
L 3669 0 
L 3244 1197 
L 1141 1197 
L 716 0 
L 50 0 
L 1831 4666 
z
" transform="scale(0.015625)"/>
       <path id="DejaVuSans-75" d="M 544 1381 
L 544 3500 
L 1119 3500 
L 1119 1403 
Q 1119 906 1312 657 
Q 1506 409 1894 409 
Q 2359 409 2629 706 
Q 2900 1003 2900 1516 
L 2900 3500 
L 3475 3500 
L 3475 0 
L 2900 0 
L 2900 538 
Q 2691 219 2414 64 
Q 2138 -91 1772 -91 
Q 1169 -91 856 284 
Q 544 659 544 1381 
z
M 1991 3584 
L 1991 3584 
z
" transform="scale(0.015625)"/>
       <path id="DejaVuSans-79" d="M 2059 -325 
Q 1816 -950 1584 -1140 
Q 1353 -1331 966 -1331 
L 506 -1331 
L 506 -850 
L 844 -850 
Q 1081 -850 1212 -737 
Q 1344 -625 1503 -206 
L 1606 56 
L 191 3500 
L 800 3500 
L 1894 763 
L 2988 3500 
L 3597 3500 
L 2059 -325 
z
" transform="scale(0.015625)"/>
       <path id="DejaVuSans-28" d="M 1984 4856 
Q 1566 4138 1362 3434 
Q 1159 2731 1159 2009 
Q 1159 1288 1364 580 
Q 1569 -128 1984 -844 
L 1484 -844 
Q 1016 -109 783 600 
Q 550 1309 550 2009 
Q 550 2706 781 3412 
Q 1013 4119 1484 4856 
L 1984 4856 
z
" transform="scale(0.015625)"/>
       <path id="DejaVuSans-25" d="M 4653 2053 
Q 4381 2053 4226 1822 
Q 4072 1591 4072 1178 
Q 4072 772 4226 539 
Q 4381 306 4653 306 
Q 4919 306 5073 539 
Q 5228 772 5228 1178 
Q 5228 1588 5073 1820 
Q 4919 2053 4653 2053 
z
M 4653 2450 
Q 5147 2450 5437 2106 
Q 5728 1763 5728 1178 
Q 5728 594 5436 251 
Q 5144 -91 4653 -91 
Q 4153 -91 3862 251 
Q 3572 594 3572 1178 
Q 3572 1766 3864 2108 
Q 4156 2450 4653 2450 
z
M 1428 4353 
Q 1159 4353 1004 4120 
Q 850 3888 850 3481 
Q 850 3069 1003 2837 
Q 1156 2606 1428 2606 
Q 1700 2606 1854 2837 
Q 2009 3069 2009 3481 
Q 2009 3884 1853 4118 
Q 1697 4353 1428 4353 
z
M 4250 4750 
L 4750 4750 
L 1831 -91 
L 1331 -91 
L 4250 4750 
z
M 1428 4750 
Q 1922 4750 2215 4408 
Q 2509 4066 2509 3481 
Q 2509 2891 2217 2550 
Q 1925 2209 1428 2209 
Q 931 2209 642 2551 
Q 353 2894 353 3481 
Q 353 4063 643 4406 
Q 934 4750 1428 4750 
z
" transform="scale(0.015625)"/>
       <path id="DejaVuSans-29" d="M 513 4856 
L 1013 4856 
Q 1481 4119 1714 3412 
Q 1947 2706 1947 2009 
Q 1947 1309 1714 600 
Q 1481 -109 1013 -844 
L 513 -844 
Q 928 -128 1133 580 
Q 1338 1288 1338 2009 
Q 1338 2731 1133 3434 
Q 928 4138 513 4856 
z
" transform="scale(0.015625)"/>
      </defs>
      <use xlink:href="#DejaVuSans-56"/>
      <use xlink:href="#DejaVuSans-61" x="60.658203"/>
      <use xlink:href="#DejaVuSans-6c" x="121.9375"/>
      <use xlink:href="#DejaVuSans-69" x="149.720703"/>
      <use xlink:href="#DejaVuSans-64" x="177.503906"/>
      <use xlink:href="#DejaVuSans-61" x="240.980469"/>
      <use xlink:href="#DejaVuSans-74" x="302.259766"/>
      <use xlink:href="#DejaVuSans-69" x="341.46875"/>
      <use xlink:href="#DejaVuSans-6f" x="369.251953"/>
      <use xlink:href="#DejaVuSans-6e" x="430.433594"/>
      <use xlink:href="#DejaVuSans-20" x="493.8125"/>
      <use xlink:href="#DejaVuSans-41" x="525.599609"/>
      <use xlink:href="#DejaVuSans-63" x="592.257812"/>
      <use xlink:href="#DejaVuSans-63" x="647.238281"/>
      <use xlink:href="#DejaVuSans-75" x="702.21875"/>
      <use xlink:href="#DejaVuSans-72" x="765.597656"/>
      <use xlink:href="#DejaVuSans-61" x="806.710938"/>
      <use xlink:href="#DejaVuSans-63" x="867.990234"/>
      <use xlink:href="#DejaVuSans-79" x="922.970703"/>
      <use xlink:href="#DejaVuSans-20" x="982.150391"/>
      <use xlink:href="#DejaVuSans-28" x="1013.9375"/>
      <use xlink:href="#DejaVuSans-25" x="1052.951172"/>
      <use xlink:href="#DejaVuSans-29" x="1147.970703"/>
     </g>
    </g>
   </g>
   <g id="line2d_18">
    <path d="M 76.131705 382.030932 
L 77.428316 290.81044 
L 78.724927 258.714341 
L 80.021539 217.158339 
L 81.31815 170.196678 
L 82.614762 152.290434 
L 83.911373 143.506238 
L 85.207984 131.343506 
L 86.504596 123.572871 
L 87.801207 108.369456 
L 89.097819 100.598821 
L 90.39443 100.598821 
L 91.691041 97.895992 
L 92.987653 90.463211 
L 94.284264 86.408967 
L 95.580876 98.571699 
L 96.877487 87.422528 
L 98.174098 85.057552 
L 99.47071 78.300479 
L 100.767321 81.341162 
L 102.063933 78.300479 
L 103.360544 71.543405 
L 104.657155 71.881259 
L 105.953767 82.016869 
L 107.250378 73.570527 
L 108.54699 68.840576 
L 109.843601 65.462039 
L 111.140212 69.854137 
L 112.436824 71.881259 
L 113.733435 66.4756 
L 115.030047 67.151308 
L 116.326658 71.205552 
L 117.623269 63.434917 
L 118.919881 66.137747 
L 120.216492 63.772771 
L 121.513104 63.097064 
L 122.809715 60.732088 
L 124.106327 61.745649 
L 125.402938 62.083503 
L 126.699549 58.029258 
L 127.996161 64.448478 
L 129.292772 59.042819 
L 130.589384 56.677844 
L 131.885995 61.069941 
L 133.182606 62.083503 
L 134.479218 58.704966 
L 135.775829 53.637161 
L 137.072441 59.042819 
L 138.369052 60.394234 
L 139.665663 57.691405 
L 140.962275 56.33999 
L 142.258886 54.650722 
L 143.555498 54.988575 
L 144.852109 53.975014 
L 146.14872 51.947892 
L 147.445332 52.6236 
L 148.741943 52.961453 
L 150.038555 55.664283 
L 151.335166 50.934331 
L 152.631777 52.6236 
L 155.225 53.299307 
L 156.521612 56.33999 
L 157.818223 49.582917 
L 159.114834 52.6236 
L 160.411446 51.272185 
L 161.708057 51.947892 
L 163.004669 56.33999 
L 164.30128 50.258624 
L 165.597891 52.6236 
L 166.894503 51.947892 
L 168.191114 50.596478 
L 169.487726 53.637161 
L 170.784337 50.934331 
L 172.080948 54.312868 
L 173.37756 48.907209 
L 174.674171 54.988575 
L 175.970783 48.569356 
L 177.267394 46.20438 
L 178.564006 49.245063 
L 179.860617 50.596478 
L 181.157228 49.582917 
L 182.45384 50.596478 
L 183.750451 48.907209 
L 185.047063 50.596478 
L 186.343674 49.92077 
L 187.640285 53.299307 
L 188.936897 47.893648 
L 190.233508 49.92077 
L 192.826731 46.542233 
L 194.123342 51.272185 
L 195.419954 47.217941 
L 196.716565 48.231502 
L 198.013177 45.528672 
L 199.309788 50.934331 
L 200.606399 50.258624 
L 201.903011 50.596478 
L 203.199622 46.880087 
L 204.496234 46.20438 
L 205.792845 49.582917 
L 208.386068 49.582917 
L 209.682679 46.880087 
L 210.979291 52.285746 
L 212.275902 50.596478 
L 213.572513 50.596478 
L 214.869125 48.231502 
L 216.165736 49.92077 
L 217.462348 48.231502 
L 218.758959 49.92077 
L 220.05557 46.880087 
L 221.352182 49.245063 
L 222.648793 47.217941 
L 223.945405 48.569356 
L 225.242016 47.893648 
L 226.538627 50.596478 
L 227.835239 48.907209 
L 229.13185 45.528672 
L 230.428462 48.907209 
L 231.725073 49.245063 
L 233.021685 48.231502 
L 234.318296 42.825843 
L 235.614907 43.50155 
L 236.911519 45.528672 
L 238.20813 47.217941 
L 239.504742 46.880087 
L 240.801353 47.217941 
L 242.097964 45.866526 
L 243.394576 48.569356 
L 244.691187 47.893648 
L 245.987799 45.866526 
L 247.28441 47.217941 
L 248.581021 45.866526 
L 249.877633 46.542233 
L 251.174244 44.515111 
L 252.470856 46.542233 
L 253.767467 44.852965 
L 255.064078 48.569356 
L 256.36069 45.866526 
L 257.657301 41.812282 
L 258.953913 46.20438 
L 260.250524 46.880087 
L 261.547135 48.231502 
L 262.843747 48.231502 
L 264.140358 46.880087 
L 265.43697 49.245063 
L 266.733581 46.20438 
L 268.030192 45.528672 
L 269.326804 48.569356 
L 270.623415 46.880087 
L 271.920027 47.893648 
L 273.216638 46.880087 
L 274.513249 43.163697 
L 275.809861 47.893648 
L 277.106472 44.515111 
L 278.403084 47.555795 
L 279.699695 45.190819 
L 280.996306 45.528672 
L 282.292918 44.177258 
L 283.589529 43.50155 
L 284.886141 48.907209 
L 286.182752 48.231502 
L 287.479363 46.880087 
L 288.775975 49.582917 
L 290.072586 43.50155 
L 291.369198 46.542233 
L 292.665809 46.880087 
L 293.962421 44.177258 
L 295.259032 46.20438 
L 296.555643 46.20438 
L 297.852255 44.177258 
L 299.148866 44.177258 
L 300.445478 45.866526 
L 301.742089 42.150136 
L 303.0387 45.190819 
L 304.335312 44.852965 
L 305.631923 46.542233 
L 306.928535 42.825843 
L 308.225146 44.177258 
L 309.521757 44.177258 
L 310.818369 45.528672 
L 312.11498 44.852965 
L 313.411592 45.190819 
L 314.708203 44.177258 
L 316.004814 43.50155 
L 317.301426 44.177258 
L 318.598037 42.825843 
L 319.894649 47.217941 
L 321.19126 41.474428 
L 322.487871 44.852965 
L 323.784483 45.190819 
L 325.081094 50.258624 
L 326.377706 42.487989 
L 327.674317 44.852965 
L 330.26754 45.528672 
L 331.564151 43.839404 
L 332.860763 45.866526 
L 334.157374 43.839404 
L 335.453985 44.852965 
L 336.750597 42.825843 
L 338.047208 43.163697 
L 339.34382 42.825843 
L 340.640431 42.825843 
L 341.937042 41.136575 
L 343.233654 44.852965 
L 344.530265 42.150136 
L 345.826877 46.880087 
L 347.123488 43.839404 
L 348.4201 43.839404 
L 349.716711 44.852965 
L 351.013322 43.163697 
L 352.309934 45.866526 
L 353.606545 43.163697 
L 354.903157 44.515111 
L 356.199768 43.163697 
L 357.496379 45.190819 
L 358.792991 42.825843 
L 360.089602 43.163697 
L 361.386214 44.177258 
L 362.682825 48.231502 
L 363.979436 42.825843 
L 365.276048 47.217941 
L 366.572659 42.825843 
L 367.869271 46.880087 
L 369.165882 43.839404 
L 370.462493 43.839404 
L 371.759105 43.50155 
L 373.055716 44.852965 
L 374.352328 44.852965 
L 375.648939 45.528672 
L 376.94555 45.866526 
L 378.242162 43.839404 
L 379.538773 43.163697 
L 380.835385 41.474428 
L 382.131996 42.487989 
L 383.428607 45.866526 
L 384.725219 44.515111 
L 386.02183 42.487989 
L 387.318442 48.231502 
L 388.615053 42.825843 
L 389.911664 43.839404 
L 391.208276 43.839404 
L 392.504887 43.163697 
L 393.801499 44.515111 
L 395.09811 43.163697 
L 396.394721 43.163697 
L 397.691333 44.852965 
L 398.987944 44.177258 
L 400.284556 44.177258 
L 401.581167 45.528672 
L 402.877779 42.150136 
L 404.17439 44.515111 
L 405.471001 41.474428 
L 406.767613 43.839404 
L 408.064224 42.487989 
L 409.360836 43.50155 
L 410.657447 43.50155 
L 411.954058 45.190819 
L 413.25067 44.852965 
L 414.547281 41.474428 
L 415.843893 46.880087 
L 417.140504 44.177258 
L 418.437115 44.852965 
L 421.030338 43.50155 
L 422.32695 44.852965 
L 423.623561 44.852965 
L 424.920172 43.163697 
L 426.216784 46.20438 
L 427.513395 42.825843 
L 428.810007 44.852965 
L 430.106618 43.163697 
L 431.403229 45.190819 
L 432.699841 45.190819 
L 433.996452 44.515111 
L 435.293064 46.542233 
L 436.589675 43.163697 
L 437.886286 43.163697 
L 439.182898 47.893648 
L 440.479509 41.812282 
L 441.776121 42.487989 
L 443.072732 43.839404 
L 444.369343 43.163697 
L 445.665955 45.528672 
L 446.962566 44.852965 
L 448.259178 45.190819 
L 449.555789 47.217941 
L 450.8524 47.555795 
L 452.149012 41.812282 
L 453.445623 43.839404 
L 454.742235 44.515111 
L 456.038846 46.20438 
L 457.335458 42.487989 
L 458.632069 46.542233 
L 459.92868 44.177258 
L 461.225292 45.866526 
L 462.521903 43.839404 
L 465.115126 43.839404 
L 466.411737 42.487989 
L 467.708349 45.866526 
L 469.00496 44.177258 
L 470.301572 41.474428 
L 471.598183 43.50155 
L 472.894794 45.866526 
L 474.191406 43.839404 
L 475.488017 44.515111 
L 476.784629 46.542233 
L 479.377851 45.190819 
L 480.674463 46.542233 
L 481.971074 44.852965 
L 483.267686 43.50155 
L 484.564297 45.866526 
L 485.860908 44.852965 
L 487.15752 43.163697 
L 488.454131 45.866526 
L 489.750743 42.150136 
L 491.047354 47.555795 
L 492.343965 47.217941 
L 493.640577 43.839404 
L 494.937188 44.852965 
L 496.2338 43.50155 
L 497.530411 39.78516 
L 498.827022 45.866526 
L 500.123634 44.177258 
L 501.420245 45.866526 
L 502.716857 46.880087 
L 504.013468 40.798721 
L 505.310079 46.880087 
L 506.606691 46.880087 
L 507.903302 45.528672 
L 509.199914 43.163697 
L 510.496525 46.542233 
L 511.793137 46.542233 
L 513.089748 44.515111 
L 514.386359 45.528672 
L 515.682971 44.852965 
L 516.979582 44.515111 
L 518.276194 46.880087 
L 519.572805 43.163697 
L 520.869416 42.487989 
L 522.166028 43.839404 
L 523.462639 42.487989 
L 524.759251 43.839404 
L 526.055862 42.150136 
L 527.352473 43.50155 
L 528.649085 46.20438 
L 529.945696 39.447306 
L 531.242308 41.136575 
L 532.538919 43.839404 
L 533.83553 42.825843 
L 535.132142 43.839404 
L 536.428753 43.163697 
L 537.725365 45.866526 
L 539.021976 41.812282 
L 540.318587 45.190819 
L 541.615199 42.150136 
L 542.91181 46.542233 
L 544.208422 43.163697 
L 545.505033 41.136575 
L 546.801644 44.177258 
L 548.098256 41.474428 
L 549.394867 45.866526 
L 550.691479 42.825843 
L 551.98809 46.20438 
L 553.284701 44.177258 
L 554.581313 45.528672 
L 555.877924 44.515111 
L 557.174536 45.190819 
L 558.471147 45.528672 
L 559.767758 43.163697 
L 561.06437 45.866526 
L 562.360981 46.542233 
L 563.657593 44.177258 
L 564.954204 44.515111 
L 566.250815 47.555795 
L 567.547427 47.217941 
L 568.844038 46.542233 
L 570.14065 44.177258 
L 571.437261 44.177258 
L 572.733873 46.880087 
L 574.030484 44.177258 
L 575.327095 43.839404 
L 576.623707 41.136575 
L 577.920318 42.150136 
L 579.21693 45.190819 
L 580.513541 42.825843 
L 581.810152 44.852965 
L 584.403375 44.177258 
L 585.699987 45.528672 
L 586.996598 46.542233 
L 588.293209 44.177258 
L 589.589821 43.50155 
L 590.886432 43.163697 
L 592.183044 43.50155 
L 594.776266 43.50155 
L 596.072878 44.852965 
L 597.369489 45.866526 
L 598.666101 48.231502 
L 599.962712 47.555795 
L 601.259323 44.177258 
L 602.555935 51.947892 
L 603.852546 48.231502 
L 605.149158 43.839404 
L 606.445769 43.839404 
L 607.74238 45.528672 
L 609.038992 45.190819 
L 610.335603 45.866526 
L 611.632215 46.880087 
L 612.928826 46.542233 
L 614.225437 44.852965 
L 615.522049 48.231502 
L 616.81866 47.893648 
L 618.115272 46.880087 
L 619.411883 44.177258 
L 620.708494 43.839404 
L 622.005106 44.515111 
L 623.301717 45.528672 
L 624.598329 48.231502 
L 625.89494 44.515111 
L 627.191552 48.231502 
L 628.488163 47.217941 
L 629.784774 46.880087 
L 631.081386 44.515111 
L 632.377997 46.880087 
L 633.674609 47.893648 
L 634.97122 46.20438 
L 636.267831 45.190819 
L 637.564443 44.515111 
L 638.861054 46.542233 
L 640.157666 45.190819 
L 641.454277 46.542233 
L 642.750888 45.528672 
L 644.0475 45.190819 
L 645.344111 48.231502 
L 646.640723 48.569356 
L 647.937334 48.231502 
L 649.233945 45.528672 
L 650.530557 46.880087 
L 651.827168 41.812282 
L 653.12378 45.190819 
L 654.420391 46.880087 
L 655.717002 45.866526 
L 658.310225 47.893648 
L 659.606837 47.217941 
L 660.903448 46.20438 
L 662.200059 46.542233 
L 663.496671 43.839404 
L 664.793282 46.20438 
L 667.386505 43.50155 
L 668.683116 42.825843 
L 669.979728 45.190819 
L 671.276339 41.136575 
L 672.572951 46.542233 
L 673.869562 44.852965 
L 675.166173 46.542233 
L 676.462785 46.20438 
L 677.759396 44.852965 
L 679.056008 43.839404 
L 680.352619 43.163697 
L 681.649231 45.190819 
L 682.945842 45.866526 
L 684.242453 46.20438 
L 685.539065 46.20438 
L 686.835676 47.217941 
L 688.132288 49.245063 
L 689.428899 46.880087 
L 690.72551 43.163697 
L 692.022122 48.231502 
L 693.318733 44.852965 
L 694.615345 46.20438 
L 695.911956 46.880087 
L 697.208567 46.880087 
L 698.505179 47.555795 
L 699.80179 45.528672 
L 701.098402 45.528672 
L 702.395013 46.880087 
L 703.691624 47.217941 
L 704.988236 45.528672 
L 707.581459 48.231502 
L 708.87807 42.825843 
L 710.174681 41.474428 
L 711.471293 46.20438 
L 712.767904 45.866526 
L 714.064516 43.839404 
L 715.361127 42.825843 
L 716.657738 45.190819 
L 717.95435 46.20438 
L 719.250961 40.460867 
L 720.547573 41.474428 
L 721.844184 50.596478 
L 723.140795 43.50155 
L 723.140795 43.50155 
" clip-path="url(#p5be9ab8665)" style="fill: none; stroke: #ff7f0e; stroke-width: 1.5; stroke-linecap: square"/>
   </g>
   <g id="patch_7">
    <path d="M 43.78125 399.160114 
L 43.78125 22.318125 
" style="fill: none; stroke: #000000; stroke-width: 0.8; stroke-linejoin: miter; stroke-linecap: square"/>
   </g>
   <g id="patch_8">
    <path d="M 755.49125 399.160114 
L 755.49125 22.318125 
" style="fill: none; stroke: #000000; stroke-width: 0.8; stroke-linejoin: miter; stroke-linecap: square"/>
   </g>
   <g id="patch_9">
    <path d="M 43.78125 399.160114 
L 755.49125 399.160114 
" style="fill: none; stroke: #000000; stroke-width: 0.8; stroke-linejoin: miter; stroke-linecap: square"/>
   </g>
   <g id="patch_10">
    <path d="M 43.78125 22.318125 
L 755.49125 22.318125 
" style="fill: none; stroke: #000000; stroke-width: 0.8; stroke-linejoin: miter; stroke-linecap: square"/>
   </g>
  </g>
  <g id="axes_3">
   <g id="matplotlib.axis_4">
    <g id="ytick_11">
     <g id="line2d_19">
      <g>
       <use xlink:href="#m0da8f64a1d" x="815.49125" y="380.011725" style="stroke: #000000; stroke-width: 0.8"/>
      </g>
     </g>
     <g id="text_20">
      <!-- 55 -->
      <g style="fill: #2ca02c" transform="translate(822.49125 383.810944) scale(0.1 -0.1)">
       <use xlink:href="#DejaVuSans-35"/>
       <use xlink:href="#DejaVuSans-35" x="63.623047"/>
      </g>
     </g>
    </g>
    <g id="ytick_12">
     <g id="line2d_20">
      <g>
       <use xlink:href="#m0da8f64a1d" x="815.49125" y="335.521219" style="stroke: #000000; stroke-width: 0.8"/>
      </g>
     </g>
     <g id="text_21">
      <!-- 60 -->
      <g style="fill: #2ca02c" transform="translate(822.49125 339.320438) scale(0.1 -0.1)">
       <use xlink:href="#DejaVuSans-36"/>
       <use xlink:href="#DejaVuSans-30" x="63.623047"/>
      </g>
     </g>
    </g>
    <g id="ytick_13">
     <g id="line2d_21">
      <g>
       <use xlink:href="#m0da8f64a1d" x="815.49125" y="291.030713" style="stroke: #000000; stroke-width: 0.8"/>
      </g>
     </g>
     <g id="text_22">
      <!-- 65 -->
      <g style="fill: #2ca02c" transform="translate(822.49125 294.829931) scale(0.1 -0.1)">
       <use xlink:href="#DejaVuSans-36"/>
       <use xlink:href="#DejaVuSans-35" x="63.623047"/>
      </g>
     </g>
    </g>
    <g id="ytick_14">
     <g id="line2d_22">
      <g>
       <use xlink:href="#m0da8f64a1d" x="815.49125" y="246.540206" style="stroke: #000000; stroke-width: 0.8"/>
      </g>
     </g>
     <g id="text_23">
      <!-- 70 -->
      <g style="fill: #2ca02c" transform="translate(822.49125 250.339425) scale(0.1 -0.1)">
       <defs>
        <path id="DejaVuSans-37" d="M 525 4666 
L 3525 4666 
L 3525 4397 
L 1831 0 
L 1172 0 
L 2766 4134 
L 525 4134 
L 525 4666 
z
" transform="scale(0.015625)"/>
       </defs>
       <use xlink:href="#DejaVuSans-37"/>
       <use xlink:href="#DejaVuSans-30" x="63.623047"/>
      </g>
     </g>
    </g>
    <g id="ytick_15">
     <g id="line2d_23">
      <g>
       <use xlink:href="#m0da8f64a1d" x="815.49125" y="202.0497" style="stroke: #000000; stroke-width: 0.8"/>
      </g>
     </g>
     <g id="text_24">
      <!-- 75 -->
      <g style="fill: #2ca02c" transform="translate(822.49125 205.848919) scale(0.1 -0.1)">
       <use xlink:href="#DejaVuSans-37"/>
       <use xlink:href="#DejaVuSans-35" x="63.623047"/>
      </g>
     </g>
    </g>
    <g id="ytick_16">
     <g id="line2d_24">
      <g>
       <use xlink:href="#m0da8f64a1d" x="815.49125" y="157.559194" style="stroke: #000000; stroke-width: 0.8"/>
      </g>
     </g>
     <g id="text_25">
      <!-- 80 -->
      <g style="fill: #2ca02c" transform="translate(822.49125 161.358412) scale(0.1 -0.1)">
       <use xlink:href="#DejaVuSans-38"/>
       <use xlink:href="#DejaVuSans-30" x="63.623047"/>
      </g>
     </g>
    </g>
    <g id="ytick_17">
     <g id="line2d_25">
      <g>
       <use xlink:href="#m0da8f64a1d" x="815.49125" y="113.068687" style="stroke: #000000; stroke-width: 0.8"/>
      </g>
     </g>
     <g id="text_26">
      <!-- 85 -->
      <g style="fill: #2ca02c" transform="translate(822.49125 116.867906) scale(0.1 -0.1)">
       <use xlink:href="#DejaVuSans-38"/>
       <use xlink:href="#DejaVuSans-35" x="63.623047"/>
      </g>
     </g>
    </g>
    <g id="ytick_18">
     <g id="line2d_26">
      <g>
       <use xlink:href="#m0da8f64a1d" x="815.49125" y="68.578181" style="stroke: #000000; stroke-width: 0.8"/>
      </g>
     </g>
     <g id="text_27">
      <!-- 90 -->
      <g style="fill: #2ca02c" transform="translate(822.49125 72.3774) scale(0.1 -0.1)">
       <use xlink:href="#DejaVuSans-39"/>
       <use xlink:href="#DejaVuSans-30" x="63.623047"/>
      </g>
     </g>
    </g>
    <g id="ytick_19">
     <g id="line2d_27">
      <g>
       <use xlink:href="#m0da8f64a1d" x="815.49125" y="24.087675" style="stroke: #000000; stroke-width: 0.8"/>
      </g>
     </g>
     <g id="text_28">
      <!-- 95 -->
      <g style="fill: #2ca02c" transform="translate(822.49125 27.886893) scale(0.1 -0.1)">
       <use xlink:href="#DejaVuSans-39"/>
       <use xlink:href="#DejaVuSans-35" x="63.623047"/>
      </g>
     </g>
    </g>
    <g id="text_29">
     <!-- Sparsity (%) -->
     <g style="fill: #2ca02c" transform="translate(846.814687 241.361776) rotate(-90) scale(0.1 -0.1)">
      <defs>
       <path id="DejaVuSans-53" d="M 3425 4513 
L 3425 3897 
Q 3066 4069 2747 4153 
Q 2428 4238 2131 4238 
Q 1616 4238 1336 4038 
Q 1056 3838 1056 3469 
Q 1056 3159 1242 3001 
Q 1428 2844 1947 2747 
L 2328 2669 
Q 3034 2534 3370 2195 
Q 3706 1856 3706 1288 
Q 3706 609 3251 259 
Q 2797 -91 1919 -91 
Q 1588 -91 1214 -16 
Q 841 59 441 206 
L 441 856 
Q 825 641 1194 531 
Q 1563 422 1919 422 
Q 2459 422 2753 634 
Q 3047 847 3047 1241 
Q 3047 1584 2836 1778 
Q 2625 1972 2144 2069 
L 1759 2144 
Q 1053 2284 737 2584 
Q 422 2884 422 3419 
Q 422 4038 858 4394 
Q 1294 4750 2059 4750 
Q 2388 4750 2728 4690 
Q 3069 4631 3425 4513 
z
" transform="scale(0.015625)"/>
      </defs>
      <use xlink:href="#DejaVuSans-53"/>
      <use xlink:href="#DejaVuSans-70" x="63.476562"/>
      <use xlink:href="#DejaVuSans-61" x="126.953125"/>
      <use xlink:href="#DejaVuSans-72" x="188.232422"/>
      <use xlink:href="#DejaVuSans-73" x="229.345703"/>
      <use xlink:href="#DejaVuSans-69" x="281.445312"/>
      <use xlink:href="#DejaVuSans-74" x="309.228516"/>
      <use xlink:href="#DejaVuSans-79" x="348.4375"/>
      <use xlink:href="#DejaVuSans-20" x="407.617188"/>
      <use xlink:href="#DejaVuSans-28" x="439.404297"/>
      <use xlink:href="#DejaVuSans-25" x="478.417969"/>
      <use xlink:href="#DejaVuSans-29" x="573.4375"/>
     </g>
    </g>
   </g>
   <g id="line2d_28">
    <path d="M 76.131705 382.030932 
L 77.428316 368.091372 
L 78.724927 357.205778 
L 80.021539 348.492306 
L 81.31815 340.655639 
L 82.614762 333.876844 
L 85.207984 321.968276 
L 87.801207 311.688786 
L 90.39443 302.345927 
L 92.987653 293.997826 
L 96.877487 282.210499 
L 102.063933 267.779394 
L 104.657155 261.349316 
L 105.953767 257.863577 
L 108.54699 251.408625 
L 111.140212 245.18449 
L 116.326658 233.12641 
L 122.809715 219.014162 
L 124.106327 216.483298 
L 127.996161 208.151798 
L 129.292772 205.72722 
L 133.182606 197.957008 
L 135.775829 192.981677 
L 148.741943 169.664412 
L 151.335166 165.482883 
L 152.631777 163.237676 
L 160.411446 151.211206 
L 164.30128 145.805747 
L 169.487726 138.751267 
L 172.080948 135.612654 
L 173.37756 134.159552 
L 175.970783 130.849842 
L 186.343674 119.881245 
L 188.936897 117.561309 
L 190.233508 116.189564 
L 194.123342 112.901494 
L 199.309788 108.927551 
L 200.606399 108.097207 
L 201.903011 107.051003 
L 204.496234 105.488326 
L 205.792845 104.621439 
L 210.979291 101.743502 
L 212.275902 100.90987 
L 214.869125 99.64945 
L 217.462348 98.281047 
L 220.05557 96.839612 
L 226.538627 93.664404 
L 230.428462 92.193057 
L 233.021685 91.156823 
L 235.614907 90.183704 
L 239.504742 88.705727 
L 240.801353 88.423412 
L 242.097964 87.875383 
L 244.691187 87.056653 
L 245.987799 86.812578 
L 247.28441 86.264548 
L 248.581021 86.02042 
L 268.030192 80.590086 
L 269.326804 80.407375 
L 270.623415 79.899229 
L 273.216638 79.221683 
L 275.809861 78.612237 
L 278.403084 78.00608 
L 284.886141 76.624418 
L 287.479363 75.961829 
L 288.775975 75.827327 
L 290.072586 75.427111 
L 293.962421 74.737898 
L 304.335312 72.829792 
L 305.631923 72.394731 
L 309.521757 71.760358 
L 310.818369 71.406656 
L 312.11498 71.302014 
L 316.004814 70.561355 
L 318.598037 70.182725 
L 321.19126 69.787495 
L 323.784483 69.21125 
L 345.826877 65.713896 
L 347.123488 65.670724 
L 351.013322 65.059581 
L 352.309934 64.757377 
L 358.792991 63.970204 
L 362.682825 63.282688 
L 365.276048 63.058501 
L 366.572659 62.90077 
L 367.869271 62.919015 
L 370.462493 62.394268 
L 393.801499 59.772075 
L 397.691333 59.481433 
L 398.987944 59.348576 
L 401.581167 58.930116 
L 402.877779 58.860372 
L 405.471001 58.561457 
L 406.767613 58.534885 
L 409.360836 58.204413 
L 410.657447 58.121357 
L 413.25067 57.809183 
L 417.140504 57.350838 
L 419.733727 57.017025 
L 423.623561 56.656693 
L 424.920172 56.385993 
L 430.106618 56.160162 
L 431.403229 55.879491 
L 432.699841 55.872861 
L 452.149012 54.064412 
L 453.445623 54.047758 
L 456.038846 53.831899 
L 458.632069 53.539613 
L 459.92868 53.318767 
L 463.818515 53.124441 
L 470.301572 52.662808 
L 471.598183 52.659467 
L 472.894794 52.380493 
L 474.191406 52.453578 
L 475.488017 52.224406 
L 481.971074 51.72289 
L 483.267686 51.520289 
L 484.564297 51.550149 
L 488.454131 51.228003 
L 489.750743 51.186475 
L 491.047354 50.983875 
L 526.055862 48.723711 
L 529.945696 48.511139 
L 531.242308 48.542696 
L 545.505033 47.53139 
L 548.098256 47.410148 
L 549.394867 47.187605 
L 550.691479 47.30715 
L 551.98809 47.122847 
L 555.877924 46.994976 
L 558.471147 46.862118 
L 568.844038 46.103215 
L 570.14065 46.078287 
L 571.437261 45.925488 
L 574.030484 46.018515 
L 576.623707 45.76606 
L 579.21693 45.598357 
L 580.513541 45.689687 
L 585.699987 45.500398 
L 586.996598 45.294456 
L 588.293209 45.352585 
L 589.589821 45.169926 
L 590.886432 45.213098 
L 593.479655 44.924153 
L 597.369489 44.670054 
L 598.666101 44.608584 
L 599.962712 44.424281 
L 605.149158 44.405983 
L 606.445769 44.160211 
L 610.335603 44.123722 
L 616.81866 43.615523 
L 620.708494 43.625494 
L 622.005106 43.383062 
L 623.301717 43.326578 
L 625.89494 43.381365 
L 629.784774 43.207033 
L 642.750888 42.565977 
L 644.0475 42.486263 
L 645.344111 42.524502 
L 646.640723 42.375045 
L 650.530557 42.321902 
L 651.827168 42.125931 
L 659.606837 41.793814 
L 660.903448 41.694158 
L 663.496671 41.725715 
L 675.166173 41.091342 
L 679.056008 41.04154 
L 682.945842 40.711068 
L 686.835676 40.818997 
L 690.72551 40.485184 
L 698.505179 40.344053 
L 699.80179 40.256012 
L 701.098402 40.31414 
L 703.691624 40.058397 
L 704.988236 40.194595 
L 706.284847 40.006951 
L 719.250961 39.639936 
L 720.547573 39.468892 
L 721.844184 39.523679 
L 723.140795 39.447306 
L 723.140795 39.447306 
" clip-path="url(#p5be9ab8665)" style="fill: none; stroke: #2ca02c; stroke-width: 1.5; stroke-linecap: square"/>
   </g>
   <g id="patch_11">
    <path d="M 43.78125 399.160114 
L 43.78125 22.318125 
" style="fill: none; stroke: #000000; stroke-width: 0.8; stroke-linejoin: miter; stroke-linecap: square"/>
   </g>
   <g id="patch_12">
    <path d="M 815.49125 399.160114 
L 815.49125 22.318125 
" style="fill: none; stroke: #000000; stroke-width: 0.8; stroke-linejoin: miter; stroke-linecap: square"/>
   </g>
   <g id="patch_13">
    <path d="M 43.78125 399.160114 
L 755.49125 399.160114 
" style="fill: none; stroke: #000000; stroke-width: 0.8; stroke-linejoin: miter; stroke-linecap: square"/>
   </g>
   <g id="patch_14">
    <path d="M 43.78125 22.318125 
L 755.49125 22.318125 
" style="fill: none; stroke: #000000; stroke-width: 0.8; stroke-linejoin: miter; stroke-linecap: square"/>
   </g>
   <g id="text_30">
    <!-- SoftDEEPR on MNIST -->
    <g transform="translate(337.610312 16.318125) scale(0.12 -0.12)">
     <defs>
      <path id="DejaVuSans-66" d="M 2375 4863 
L 2375 4384 
L 1825 4384 
Q 1516 4384 1395 4259 
Q 1275 4134 1275 3809 
L 1275 3500 
L 2222 3500 
L 2222 3053 
L 1275 3053 
L 1275 0 
L 697 0 
L 697 3053 
L 147 3053 
L 147 3500 
L 697 3500 
L 697 3744 
Q 697 4328 969 4595 
Q 1241 4863 1831 4863 
L 2375 4863 
z
" transform="scale(0.015625)"/>
      <path id="DejaVuSans-44" d="M 1259 4147 
L 1259 519 
L 2022 519 
Q 2988 519 3436 956 
Q 3884 1394 3884 2338 
Q 3884 3275 3436 3711 
Q 2988 4147 2022 4147 
L 1259 4147 
z
M 628 4666 
L 1925 4666 
Q 3281 4666 3915 4102 
Q 4550 3538 4550 2338 
Q 4550 1131 3912 565 
Q 3275 0 1925 0 
L 628 0 
L 628 4666 
z
" transform="scale(0.015625)"/>
      <path id="DejaVuSans-50" d="M 1259 4147 
L 1259 2394 
L 2053 2394 
Q 2494 2394 2734 2622 
Q 2975 2850 2975 3272 
Q 2975 3691 2734 3919 
Q 2494 4147 2053 4147 
L 1259 4147 
z
M 628 4666 
L 2053 4666 
Q 2838 4666 3239 4311 
Q 3641 3956 3641 3272 
Q 3641 2581 3239 2228 
Q 2838 1875 2053 1875 
L 1259 1875 
L 1259 0 
L 628 0 
L 628 4666 
z
" transform="scale(0.015625)"/>
      <path id="DejaVuSans-52" d="M 2841 2188 
Q 3044 2119 3236 1894 
Q 3428 1669 3622 1275 
L 4263 0 
L 3584 0 
L 2988 1197 
Q 2756 1666 2539 1819 
Q 2322 1972 1947 1972 
L 1259 1972 
L 1259 0 
L 628 0 
L 628 4666 
L 2053 4666 
Q 2853 4666 3247 4331 
Q 3641 3997 3641 3322 
Q 3641 2881 3436 2590 
Q 3231 2300 2841 2188 
z
M 1259 4147 
L 1259 2491 
L 2053 2491 
Q 2509 2491 2742 2702 
Q 2975 2913 2975 3322 
Q 2975 3731 2742 3939 
Q 2509 4147 2053 4147 
L 1259 4147 
z
" transform="scale(0.015625)"/>
      <path id="DejaVuSans-4d" d="M 628 4666 
L 1569 4666 
L 2759 1491 
L 3956 4666 
L 4897 4666 
L 4897 0 
L 4281 0 
L 4281 4097 
L 3078 897 
L 2444 897 
L 1241 4097 
L 1241 0 
L 628 0 
L 628 4666 
z
" transform="scale(0.015625)"/>
      <path id="DejaVuSans-4e" d="M 628 4666 
L 1478 4666 
L 3547 763 
L 3547 4666 
L 4159 4666 
L 4159 0 
L 3309 0 
L 1241 3903 
L 1241 0 
L 628 0 
L 628 4666 
z
" transform="scale(0.015625)"/>
      <path id="DejaVuSans-49" d="M 628 4666 
L 1259 4666 
L 1259 0 
L 628 0 
L 628 4666 
z
" transform="scale(0.015625)"/>
     </defs>
     <use xlink:href="#DejaVuSans-53"/>
     <use xlink:href="#DejaVuSans-6f" x="63.476562"/>
     <use xlink:href="#DejaVuSans-66" x="124.658203"/>
     <use xlink:href="#DejaVuSans-74" x="158.113281"/>
     <use xlink:href="#DejaVuSans-44" x="197.322266"/>
     <use xlink:href="#DejaVuSans-45" x="274.324219"/>
     <use xlink:href="#DejaVuSans-45" x="337.507812"/>
     <use xlink:href="#DejaVuSans-50" x="400.691406"/>
     <use xlink:href="#DejaVuSans-52" x="460.994141"/>
     <use xlink:href="#DejaVuSans-20" x="530.476562"/>
     <use xlink:href="#DejaVuSans-6f" x="562.263672"/>
     <use xlink:href="#DejaVuSans-6e" x="623.445312"/>
     <use xlink:href="#DejaVuSans-20" x="686.824219"/>
     <use xlink:href="#DejaVuSans-4d" x="718.611328"/>
     <use xlink:href="#DejaVuSans-4e" x="804.890625"/>
     <use xlink:href="#DejaVuSans-49" x="879.695312"/>
     <use xlink:href="#DejaVuSans-53" x="909.1875"/>
     <use xlink:href="#DejaVuSans-54" x="972.664062"/>
    </g>
   </g>
  </g>
 </g>
 <defs>
  <clipPath id="p5be9ab8665">
   <rect x="43.78125" y="22.318125" width="711.71" height="376.841989"/>
  </clipPath>
 </defs>
</svg>
