<?xml version="1.0" encoding="utf-8" standalone="no"?>
<!DOCTYPE svg PUBLIC "-//W3C//DTD SVG 1.1//EN"
  "http://www.w3.org/Graphics/SVG/1.1/DTD/svg11.dtd">
<svg xmlns:xlink="http://www.w3.org/1999/xlink" width="460.8pt" height="345.6pt" viewBox="0 0 460.8 345.6" xmlns="http://www.w3.org/2000/svg" version="1.1">
 <metadata>
  <rdf:RDF xmlns:dc="http://purl.org/dc/elements/1.1/" xmlns:cc="http://creativecommons.org/ns#" xmlns:rdf="http://www.w3.org/1999/02/22-rdf-syntax-ns#">
   <cc:Work>
    <dc:type rdf:resource="http://purl.org/dc/dcmitype/StillImage"/>
    <dc:date>2024-06-18T12:26:22.716208</dc:date>
    <dc:format>image/svg+xml</dc:format>
    <dc:creator>
     <cc:Agent>
      <dc:title>Matplotlib v3.9.0, https://matplotlib.org/</dc:title>
     </cc:Agent>
    </dc:creator>
   </cc:Work>
  </rdf:RDF>
 </metadata>
 <defs>
  <style type="text/css">*{stroke-linejoin: round; stroke-linecap: butt}</style>
 </defs>
 <g id="figure_1">
  <g id="patch_1">
   <path d="M 0 345.6 
L 460.8 345.6 
L 460.8 0 
L 0 0 
z
" style="fill: #ffffff"/>
  </g>
  <g id="axes_1">
   <g id="patch_2">
    <path d="M 47.72 303.64 
L 346.78 303.64 
L 346.78 10.8 
L 47.72 10.8 
z
" style="fill: #ffffff"/>
   </g>
   <g id="matplotlib.axis_1">
    <g id="xtick_1">
     <g id="line2d_1">
      <defs>
       <path id="mb3654922b8" d="M 0 0 
L 0 3.5 
" style="stroke: #000000; stroke-width: 0.8"/>
      </defs>
      <g>
       <use xlink:href="#mb3654922b8" x="61.313636" y="303.64" style="stroke: #000000; stroke-width: 0.8"/>
      </g>
     </g>
     <g id="text_1">
      <!-- 0 -->
      <g transform="translate(58.132386 318.238437) scale(0.1 -0.1)">
       <defs>
        <path id="DejaVuSans-30" d="M 2034 4250 
Q 1547 4250 1301 3770 
Q 1056 3291 1056 2328 
Q 1056 1369 1301 889 
Q 1547 409 2034 409 
Q 2525 409 2770 889 
Q 3016 1369 3016 2328 
Q 3016 3291 2770 3770 
Q 2525 4250 2034 4250 
z
M 2034 4750 
Q 2819 4750 3233 4129 
Q 3647 3509 3647 2328 
Q 3647 1150 3233 529 
Q 2819 -91 2034 -91 
Q 1250 -91 836 529 
Q 422 1150 422 2328 
Q 422 3509 836 4129 
Q 1250 4750 2034 4750 
z
" transform="scale(0.015625)"/>
       </defs>
       <use xlink:href="#DejaVuSans-30"/>
      </g>
     </g>
    </g>
    <g id="xtick_2">
     <g id="line2d_2">
      <g>
       <use xlink:href="#mb3654922b8" x="106.777303" y="303.64" style="stroke: #000000; stroke-width: 0.8"/>
      </g>
     </g>
     <g id="text_2">
      <!-- 50 -->
      <g transform="translate(100.414803 318.238437) scale(0.1 -0.1)">
       <defs>
        <path id="DejaVuSans-35" d="M 691 4666 
L 3169 4666 
L 3169 4134 
L 1269 4134 
L 1269 2991 
Q 1406 3038 1543 3061 
Q 1681 3084 1819 3084 
Q 2600 3084 3056 2656 
Q 3513 2228 3513 1497 
Q 3513 744 3044 326 
Q 2575 -91 1722 -91 
Q 1428 -91 1123 -41 
Q 819 9 494 109 
L 494 744 
Q 775 591 1075 516 
Q 1375 441 1709 441 
Q 2250 441 2565 725 
Q 2881 1009 2881 1497 
Q 2881 1984 2565 2268 
Q 2250 2553 1709 2553 
Q 1456 2553 1204 2497 
Q 953 2441 691 2322 
L 691 4666 
z
" transform="scale(0.015625)"/>
       </defs>
       <use xlink:href="#DejaVuSans-35"/>
       <use xlink:href="#DejaVuSans-30" x="63.623047"/>
      </g>
     </g>
    </g>
    <g id="xtick_3">
     <g id="line2d_3">
      <g>
       <use xlink:href="#mb3654922b8" x="152.24097" y="303.64" style="stroke: #000000; stroke-width: 0.8"/>
      </g>
     </g>
     <g id="text_3">
      <!-- 100 -->
      <g transform="translate(142.69722 318.238437) scale(0.1 -0.1)">
       <defs>
        <path id="DejaVuSans-31" d="M 794 531 
L 1825 531 
L 1825 4091 
L 703 3866 
L 703 4441 
L 1819 4666 
L 2450 4666 
L 2450 531 
L 3481 531 
L 3481 0 
L 794 0 
L 794 531 
z
" transform="scale(0.015625)"/>
       </defs>
       <use xlink:href="#DejaVuSans-31"/>
       <use xlink:href="#DejaVuSans-30" x="63.623047"/>
       <use xlink:href="#DejaVuSans-30" x="127.246094"/>
      </g>
     </g>
    </g>
    <g id="xtick_4">
     <g id="line2d_4">
      <g>
       <use xlink:href="#mb3654922b8" x="197.704637" y="303.64" style="stroke: #000000; stroke-width: 0.8"/>
      </g>
     </g>
     <g id="text_4">
      <!-- 150 -->
      <g transform="translate(188.160887 318.238437) scale(0.1 -0.1)">
       <use xlink:href="#DejaVuSans-31"/>
       <use xlink:href="#DejaVuSans-35" x="63.623047"/>
       <use xlink:href="#DejaVuSans-30" x="127.246094"/>
      </g>
     </g>
    </g>
    <g id="xtick_5">
     <g id="line2d_5">
      <g>
       <use xlink:href="#mb3654922b8" x="243.168303" y="303.64" style="stroke: #000000; stroke-width: 0.8"/>
      </g>
     </g>
     <g id="text_5">
      <!-- 200 -->
      <g transform="translate(233.624553 318.238437) scale(0.1 -0.1)">
       <defs>
        <path id="DejaVuSans-32" d="M 1228 531 
L 3431 531 
L 3431 0 
L 469 0 
L 469 531 
Q 828 903 1448 1529 
Q 2069 2156 2228 2338 
Q 2531 2678 2651 2914 
Q 2772 3150 2772 3378 
Q 2772 3750 2511 3984 
Q 2250 4219 1831 4219 
Q 1534 4219 1204 4116 
Q 875 4013 500 3803 
L 500 4441 
Q 881 4594 1212 4672 
Q 1544 4750 1819 4750 
Q 2544 4750 2975 4387 
Q 3406 4025 3406 3419 
Q 3406 3131 3298 2873 
Q 3191 2616 2906 2266 
Q 2828 2175 2409 1742 
Q 1991 1309 1228 531 
z
" transform="scale(0.015625)"/>
       </defs>
       <use xlink:href="#DejaVuSans-32"/>
       <use xlink:href="#DejaVuSans-30" x="63.623047"/>
       <use xlink:href="#DejaVuSans-30" x="127.246094"/>
      </g>
     </g>
    </g>
    <g id="xtick_6">
     <g id="line2d_6">
      <g>
       <use xlink:href="#mb3654922b8" x="288.63197" y="303.64" style="stroke: #000000; stroke-width: 0.8"/>
      </g>
     </g>
     <g id="text_6">
      <!-- 250 -->
      <g transform="translate(279.08822 318.238437) scale(0.1 -0.1)">
       <use xlink:href="#DejaVuSans-32"/>
       <use xlink:href="#DejaVuSans-35" x="63.623047"/>
       <use xlink:href="#DejaVuSans-30" x="127.246094"/>
      </g>
     </g>
    </g>
    <g id="xtick_7">
     <g id="line2d_7">
      <g>
       <use xlink:href="#mb3654922b8" x="334.095637" y="303.64" style="stroke: #000000; stroke-width: 0.8"/>
      </g>
     </g>
     <g id="text_7">
      <!-- 300 -->
      <g transform="translate(324.551887 318.238437) scale(0.1 -0.1)">
       <defs>
        <path id="DejaVuSans-33" d="M 2597 2516 
Q 3050 2419 3304 2112 
Q 3559 1806 3559 1356 
Q 3559 666 3084 287 
Q 2609 -91 1734 -91 
Q 1441 -91 1130 -33 
Q 819 25 488 141 
L 488 750 
Q 750 597 1062 519 
Q 1375 441 1716 441 
Q 2309 441 2620 675 
Q 2931 909 2931 1356 
Q 2931 1769 2642 2001 
Q 2353 2234 1838 2234 
L 1294 2234 
L 1294 2753 
L 1863 2753 
Q 2328 2753 2575 2939 
Q 2822 3125 2822 3475 
Q 2822 3834 2567 4026 
Q 2313 4219 1838 4219 
Q 1578 4219 1281 4162 
Q 984 4106 628 3988 
L 628 4550 
Q 988 4650 1302 4700 
Q 1616 4750 1894 4750 
Q 2613 4750 3031 4423 
Q 3450 4097 3450 3541 
Q 3450 3153 3228 2886 
Q 3006 2619 2597 2516 
z
" transform="scale(0.015625)"/>
       </defs>
       <use xlink:href="#DejaVuSans-33"/>
       <use xlink:href="#DejaVuSans-30" x="63.623047"/>
       <use xlink:href="#DejaVuSans-30" x="127.246094"/>
      </g>
     </g>
    </g>
    <g id="text_8">
     <!-- Epochs -->
     <g transform="translate(179.334375 331.916562) scale(0.1 -0.1)">
      <defs>
       <path id="DejaVuSans-45" d="M 628 4666 
L 3578 4666 
L 3578 4134 
L 1259 4134 
L 1259 2753 
L 3481 2753 
L 3481 2222 
L 1259 2222 
L 1259 531 
L 3634 531 
L 3634 0 
L 628 0 
L 628 4666 
z
" transform="scale(0.015625)"/>
       <path id="DejaVuSans-70" d="M 1159 525 
L 1159 -1331 
L 581 -1331 
L 581 3500 
L 1159 3500 
L 1159 2969 
Q 1341 3281 1617 3432 
Q 1894 3584 2278 3584 
Q 2916 3584 3314 3078 
Q 3713 2572 3713 1747 
Q 3713 922 3314 415 
Q 2916 -91 2278 -91 
Q 1894 -91 1617 61 
Q 1341 213 1159 525 
z
M 3116 1747 
Q 3116 2381 2855 2742 
Q 2594 3103 2138 3103 
Q 1681 3103 1420 2742 
Q 1159 2381 1159 1747 
Q 1159 1113 1420 752 
Q 1681 391 2138 391 
Q 2594 391 2855 752 
Q 3116 1113 3116 1747 
z
" transform="scale(0.015625)"/>
       <path id="DejaVuSans-6f" d="M 1959 3097 
Q 1497 3097 1228 2736 
Q 959 2375 959 1747 
Q 959 1119 1226 758 
Q 1494 397 1959 397 
Q 2419 397 2687 759 
Q 2956 1122 2956 1747 
Q 2956 2369 2687 2733 
Q 2419 3097 1959 3097 
z
M 1959 3584 
Q 2709 3584 3137 3096 
Q 3566 2609 3566 1747 
Q 3566 888 3137 398 
Q 2709 -91 1959 -91 
Q 1206 -91 779 398 
Q 353 888 353 1747 
Q 353 2609 779 3096 
Q 1206 3584 1959 3584 
z
" transform="scale(0.015625)"/>
       <path id="DejaVuSans-63" d="M 3122 3366 
L 3122 2828 
Q 2878 2963 2633 3030 
Q 2388 3097 2138 3097 
Q 1578 3097 1268 2742 
Q 959 2388 959 1747 
Q 959 1106 1268 751 
Q 1578 397 2138 397 
Q 2388 397 2633 464 
Q 2878 531 3122 666 
L 3122 134 
Q 2881 22 2623 -34 
Q 2366 -91 2075 -91 
Q 1284 -91 818 406 
Q 353 903 353 1747 
Q 353 2603 823 3093 
Q 1294 3584 2113 3584 
Q 2378 3584 2631 3529 
Q 2884 3475 3122 3366 
z
" transform="scale(0.015625)"/>
       <path id="DejaVuSans-68" d="M 3513 2113 
L 3513 0 
L 2938 0 
L 2938 2094 
Q 2938 2591 2744 2837 
Q 2550 3084 2163 3084 
Q 1697 3084 1428 2787 
Q 1159 2491 1159 1978 
L 1159 0 
L 581 0 
L 581 4863 
L 1159 4863 
L 1159 2956 
Q 1366 3272 1645 3428 
Q 1925 3584 2291 3584 
Q 2894 3584 3203 3211 
Q 3513 2838 3513 2113 
z
" transform="scale(0.015625)"/>
       <path id="DejaVuSans-73" d="M 2834 3397 
L 2834 2853 
Q 2591 2978 2328 3040 
Q 2066 3103 1784 3103 
Q 1356 3103 1142 2972 
Q 928 2841 928 2578 
Q 928 2378 1081 2264 
Q 1234 2150 1697 2047 
L 1894 2003 
Q 2506 1872 2764 1633 
Q 3022 1394 3022 966 
Q 3022 478 2636 193 
Q 2250 -91 1575 -91 
Q 1294 -91 989 -36 
Q 684 19 347 128 
L 347 722 
Q 666 556 975 473 
Q 1284 391 1588 391 
Q 1994 391 2212 530 
Q 2431 669 2431 922 
Q 2431 1156 2273 1281 
Q 2116 1406 1581 1522 
L 1381 1569 
Q 847 1681 609 1914 
Q 372 2147 372 2553 
Q 372 3047 722 3315 
Q 1072 3584 1716 3584 
Q 2034 3584 2315 3537 
Q 2597 3491 2834 3397 
z
" transform="scale(0.015625)"/>
      </defs>
      <use xlink:href="#DejaVuSans-45"/>
      <use xlink:href="#DejaVuSans-70" x="63.183594"/>
      <use xlink:href="#DejaVuSans-6f" x="126.660156"/>
      <use xlink:href="#DejaVuSans-63" x="187.841797"/>
      <use xlink:href="#DejaVuSans-68" x="242.822266"/>
      <use xlink:href="#DejaVuSans-73" x="306.201172"/>
     </g>
    </g>
   </g>
   <g id="matplotlib.axis_2">
    <g id="ytick_1">
     <g id="line2d_8">
      <defs>
       <path id="m54bbefa2a1" d="M 0 0 
L -3.5 0 
" style="stroke: #000000; stroke-width: 0.8"/>
      </defs>
      <g>
       <use xlink:href="#m54bbefa2a1" x="47.72" y="292.413007" style="stroke: #000000; stroke-width: 0.8"/>
      </g>
     </g>
     <g id="text_9">
      <!-- 0.0 -->
      <g style="fill: #1f77b4" transform="translate(24.816875 296.212225) scale(0.1 -0.1)">
       <defs>
        <path id="DejaVuSans-2e" d="M 684 794 
L 1344 794 
L 1344 0 
L 684 0 
L 684 794 
z
" transform="scale(0.015625)"/>
       </defs>
       <use xlink:href="#DejaVuSans-30"/>
       <use xlink:href="#DejaVuSans-2e" x="63.623047"/>
       <use xlink:href="#DejaVuSans-30" x="95.410156"/>
      </g>
     </g>
    </g>
    <g id="ytick_2">
     <g id="line2d_9">
      <g>
       <use xlink:href="#m54bbefa2a1" x="47.72" y="232.606485" style="stroke: #000000; stroke-width: 0.8"/>
      </g>
     </g>
     <g id="text_10">
      <!-- 0.2 -->
      <g style="fill: #1f77b4" transform="translate(24.816875 236.405704) scale(0.1 -0.1)">
       <use xlink:href="#DejaVuSans-30"/>
       <use xlink:href="#DejaVuSans-2e" x="63.623047"/>
       <use xlink:href="#DejaVuSans-32" x="95.410156"/>
      </g>
     </g>
    </g>
    <g id="ytick_3">
     <g id="line2d_10">
      <g>
       <use xlink:href="#m54bbefa2a1" x="47.72" y="172.799963" style="stroke: #000000; stroke-width: 0.8"/>
      </g>
     </g>
     <g id="text_11">
      <!-- 0.4 -->
      <g style="fill: #1f77b4" transform="translate(24.816875 176.599182) scale(0.1 -0.1)">
       <defs>
        <path id="DejaVuSans-34" d="M 2419 4116 
L 825 1625 
L 2419 1625 
L 2419 4116 
z
M 2253 4666 
L 3047 4666 
L 3047 1625 
L 3713 1625 
L 3713 1100 
L 3047 1100 
L 3047 0 
L 2419 0 
L 2419 1100 
L 313 1100 
L 313 1709 
L 2253 4666 
z
" transform="scale(0.015625)"/>
       </defs>
       <use xlink:href="#DejaVuSans-30"/>
       <use xlink:href="#DejaVuSans-2e" x="63.623047"/>
       <use xlink:href="#DejaVuSans-34" x="95.410156"/>
      </g>
     </g>
    </g>
    <g id="ytick_4">
     <g id="line2d_11">
      <g>
       <use xlink:href="#m54bbefa2a1" x="47.72" y="112.993442" style="stroke: #000000; stroke-width: 0.8"/>
      </g>
     </g>
     <g id="text_12">
      <!-- 0.6 -->
      <g style="fill: #1f77b4" transform="translate(24.816875 116.79266) scale(0.1 -0.1)">
       <defs>
        <path id="DejaVuSans-36" d="M 2113 2584 
Q 1688 2584 1439 2293 
Q 1191 2003 1191 1497 
Q 1191 994 1439 701 
Q 1688 409 2113 409 
Q 2538 409 2786 701 
Q 3034 994 3034 1497 
Q 3034 2003 2786 2293 
Q 2538 2584 2113 2584 
z
M 3366 4563 
L 3366 3988 
Q 3128 4100 2886 4159 
Q 2644 4219 2406 4219 
Q 1781 4219 1451 3797 
Q 1122 3375 1075 2522 
Q 1259 2794 1537 2939 
Q 1816 3084 2150 3084 
Q 2853 3084 3261 2657 
Q 3669 2231 3669 1497 
Q 3669 778 3244 343 
Q 2819 -91 2113 -91 
Q 1303 -91 875 529 
Q 447 1150 447 2328 
Q 447 3434 972 4092 
Q 1497 4750 2381 4750 
Q 2619 4750 2861 4703 
Q 3103 4656 3366 4563 
z
" transform="scale(0.015625)"/>
       </defs>
       <use xlink:href="#DejaVuSans-30"/>
       <use xlink:href="#DejaVuSans-2e" x="63.623047"/>
       <use xlink:href="#DejaVuSans-36" x="95.410156"/>
      </g>
     </g>
    </g>
    <g id="ytick_5">
     <g id="line2d_12">
      <g>
       <use xlink:href="#m54bbefa2a1" x="47.72" y="53.18692" style="stroke: #000000; stroke-width: 0.8"/>
      </g>
     </g>
     <g id="text_13">
      <!-- 0.8 -->
      <g style="fill: #1f77b4" transform="translate(24.816875 56.986139) scale(0.1 -0.1)">
       <defs>
        <path id="DejaVuSans-38" d="M 2034 2216 
Q 1584 2216 1326 1975 
Q 1069 1734 1069 1313 
Q 1069 891 1326 650 
Q 1584 409 2034 409 
Q 2484 409 2743 651 
Q 3003 894 3003 1313 
Q 3003 1734 2745 1975 
Q 2488 2216 2034 2216 
z
M 1403 2484 
Q 997 2584 770 2862 
Q 544 3141 544 3541 
Q 544 4100 942 4425 
Q 1341 4750 2034 4750 
Q 2731 4750 3128 4425 
Q 3525 4100 3525 3541 
Q 3525 3141 3298 2862 
Q 3072 2584 2669 2484 
Q 3125 2378 3379 2068 
Q 3634 1759 3634 1313 
Q 3634 634 3220 271 
Q 2806 -91 2034 -91 
Q 1263 -91 848 271 
Q 434 634 434 1313 
Q 434 1759 690 2068 
Q 947 2378 1403 2484 
z
M 1172 3481 
Q 1172 3119 1398 2916 
Q 1625 2713 2034 2713 
Q 2441 2713 2670 2916 
Q 2900 3119 2900 3481 
Q 2900 3844 2670 4047 
Q 2441 4250 2034 4250 
Q 1625 4250 1398 4047 
Q 1172 3844 1172 3481 
z
" transform="scale(0.015625)"/>
       </defs>
       <use xlink:href="#DejaVuSans-30"/>
       <use xlink:href="#DejaVuSans-2e" x="63.623047"/>
       <use xlink:href="#DejaVuSans-38" x="95.410156"/>
      </g>
     </g>
    </g>
    <g id="text_14">
     <!-- Training Loss -->
     <g style="fill: #1f77b4" transform="translate(18.737188 189.502031) rotate(-90) scale(0.1 -0.1)">
      <defs>
       <path id="DejaVuSans-54" d="M -19 4666 
L 3928 4666 
L 3928 4134 
L 2272 4134 
L 2272 0 
L 1638 0 
L 1638 4134 
L -19 4134 
L -19 4666 
z
" transform="scale(0.015625)"/>
       <path id="DejaVuSans-72" d="M 2631 2963 
Q 2534 3019 2420 3045 
Q 2306 3072 2169 3072 
Q 1681 3072 1420 2755 
Q 1159 2438 1159 1844 
L 1159 0 
L 581 0 
L 581 3500 
L 1159 3500 
L 1159 2956 
Q 1341 3275 1631 3429 
Q 1922 3584 2338 3584 
Q 2397 3584 2469 3576 
Q 2541 3569 2628 3553 
L 2631 2963 
z
" transform="scale(0.015625)"/>
       <path id="DejaVuSans-61" d="M 2194 1759 
Q 1497 1759 1228 1600 
Q 959 1441 959 1056 
Q 959 750 1161 570 
Q 1363 391 1709 391 
Q 2188 391 2477 730 
Q 2766 1069 2766 1631 
L 2766 1759 
L 2194 1759 
z
M 3341 1997 
L 3341 0 
L 2766 0 
L 2766 531 
Q 2569 213 2275 61 
Q 1981 -91 1556 -91 
Q 1019 -91 701 211 
Q 384 513 384 1019 
Q 384 1609 779 1909 
Q 1175 2209 1959 2209 
L 2766 2209 
L 2766 2266 
Q 2766 2663 2505 2880 
Q 2244 3097 1772 3097 
Q 1472 3097 1187 3025 
Q 903 2953 641 2809 
L 641 3341 
Q 956 3463 1253 3523 
Q 1550 3584 1831 3584 
Q 2591 3584 2966 3190 
Q 3341 2797 3341 1997 
z
" transform="scale(0.015625)"/>
       <path id="DejaVuSans-69" d="M 603 3500 
L 1178 3500 
L 1178 0 
L 603 0 
L 603 3500 
z
M 603 4863 
L 1178 4863 
L 1178 4134 
L 603 4134 
L 603 4863 
z
" transform="scale(0.015625)"/>
       <path id="DejaVuSans-6e" d="M 3513 2113 
L 3513 0 
L 2938 0 
L 2938 2094 
Q 2938 2591 2744 2837 
Q 2550 3084 2163 3084 
Q 1697 3084 1428 2787 
Q 1159 2491 1159 1978 
L 1159 0 
L 581 0 
L 581 3500 
L 1159 3500 
L 1159 2956 
Q 1366 3272 1645 3428 
Q 1925 3584 2291 3584 
Q 2894 3584 3203 3211 
Q 3513 2838 3513 2113 
z
" transform="scale(0.015625)"/>
       <path id="DejaVuSans-67" d="M 2906 1791 
Q 2906 2416 2648 2759 
Q 2391 3103 1925 3103 
Q 1463 3103 1205 2759 
Q 947 2416 947 1791 
Q 947 1169 1205 825 
Q 1463 481 1925 481 
Q 2391 481 2648 825 
Q 2906 1169 2906 1791 
z
M 3481 434 
Q 3481 -459 3084 -895 
Q 2688 -1331 1869 -1331 
Q 1566 -1331 1297 -1286 
Q 1028 -1241 775 -1147 
L 775 -588 
Q 1028 -725 1275 -790 
Q 1522 -856 1778 -856 
Q 2344 -856 2625 -561 
Q 2906 -266 2906 331 
L 2906 616 
Q 2728 306 2450 153 
Q 2172 0 1784 0 
Q 1141 0 747 490 
Q 353 981 353 1791 
Q 353 2603 747 3093 
Q 1141 3584 1784 3584 
Q 2172 3584 2450 3431 
Q 2728 3278 2906 2969 
L 2906 3500 
L 3481 3500 
L 3481 434 
z
" transform="scale(0.015625)"/>
       <path id="DejaVuSans-20" transform="scale(0.015625)"/>
       <path id="DejaVuSans-4c" d="M 628 4666 
L 1259 4666 
L 1259 531 
L 3531 531 
L 3531 0 
L 628 0 
L 628 4666 
z
" transform="scale(0.015625)"/>
      </defs>
      <use xlink:href="#DejaVuSans-54"/>
      <use xlink:href="#DejaVuSans-72" x="46.333984"/>
      <use xlink:href="#DejaVuSans-61" x="87.447266"/>
      <use xlink:href="#DejaVuSans-69" x="148.726562"/>
      <use xlink:href="#DejaVuSans-6e" x="176.509766"/>
      <use xlink:href="#DejaVuSans-69" x="239.888672"/>
      <use xlink:href="#DejaVuSans-6e" x="267.671875"/>
      <use xlink:href="#DejaVuSans-67" x="331.050781"/>
      <use xlink:href="#DejaVuSans-20" x="394.527344"/>
      <use xlink:href="#DejaVuSans-4c" x="426.314453"/>
      <use xlink:href="#DejaVuSans-6f" x="480.277344"/>
      <use xlink:href="#DejaVuSans-73" x="541.458984"/>
      <use xlink:href="#DejaVuSans-73" x="593.558594"/>
     </g>
    </g>
   </g>
   <g id="line2d_13">
    <path d="M 61.313636 24.110909 
L 62.22291 184.710058 
L 63.132183 205.700678 
L 64.041456 219.412144 
L 64.95073 229.8398 
L 65.860003 237.013057 
L 66.769276 242.611983 
L 68.587823 251.073503 
L 69.497096 254.113741 
L 70.40637 256.445366 
L 71.315643 259.105344 
L 72.224916 261.034304 
L 73.13419 262.391458 
L 74.043463 264.577813 
L 75.86201 267.221324 
L 76.771283 268.18426 
L 77.680556 268.640802 
L 78.58983 270.472905 
L 79.499103 271.384626 
L 80.408376 271.945518 
L 81.31765 272.849805 
L 82.226923 273.577542 
L 83.136196 273.770572 
L 84.04547 274.470973 
L 84.954743 275.593996 
L 85.864016 276.000188 
L 86.77329 276.270862 
L 87.682563 277.028219 
L 88.591836 277.233543 
L 90.410383 277.938507 
L 91.319656 278.689479 
L 93.138203 279.471651 
L 94.047476 279.598344 
L 94.95675 280.547682 
L 95.866023 280.154277 
L 96.775296 280.650834 
L 97.68457 280.72604 
L 99.503116 281.686738 
L 100.41239 281.61847 
L 102.230936 282.361572 
L 103.14021 283.050803 
L 104.049483 282.691579 
L 104.958756 283.207731 
L 105.86803 283.365198 
L 106.777303 283.70593 
L 109.505123 283.858877 
L 110.414396 284.208391 
L 111.32367 284.069947 
L 112.232943 284.521117 
L 113.142216 284.731719 
L 114.05149 284.824495 
L 114.960763 285.040309 
L 115.870036 285.386233 
L 116.77931 284.993768 
L 118.597856 285.155033 
L 119.50713 285.835415 
L 120.416403 285.693744 
L 122.23495 285.673549 
L 123.144223 286.003832 
L 124.053497 285.963502 
L 124.96277 286.707948 
L 125.872043 286.274052 
L 126.781317 286.474174 
L 127.69059 286.222977 
L 128.599863 286.498196 
L 129.509137 286.36918 
L 130.41841 286.806723 
L 131.327683 286.486003 
L 132.236957 286.801254 
L 133.14623 286.992851 
L 134.964777 286.993955 
L 135.87405 287.163958 
L 136.783323 286.877941 
L 138.60187 287.17749 
L 139.511143 287.485593 
L 140.420417 287.462059 
L 141.32969 287.28459 
L 142.238963 287.311962 
L 143.148237 287.59569 
L 144.05751 287.460653 
L 144.966783 287.86679 
L 146.78533 287.697649 
L 148.603877 287.679986 
L 150.422423 287.717322 
L 151.331697 288.002613 
L 152.24097 287.902915 
L 153.150243 288.020529 
L 154.059517 287.797442 
L 154.96879 287.861871 
L 155.878063 288.203117 
L 156.787337 288.104222 
L 157.69661 288.226027 
L 159.515157 288.2954 
L 162.242977 288.184753 
L 163.15225 288.404297 
L 164.970797 288.200255 
L 165.88007 288.515589 
L 166.789343 288.455877 
L 167.698617 288.185332 
L 169.517163 288.827225 
L 170.426437 288.662479 
L 171.33571 288.700162 
L 172.244983 288.599284 
L 174.06353 288.944949 
L 174.972803 288.537668 
L 175.882077 288.480297 
L 176.79135 288.73313 
L 177.700623 288.661383 
L 178.609897 289.057962 
L 179.51917 288.744986 
L 180.428443 288.79296 
L 181.337717 288.952691 
L 182.24699 288.838644 
L 183.156263 288.942415 
L 184.065537 289.243797 
L 184.97481 289.191035 
L 185.884083 289.00251 
L 188.611903 289.08181 
L 190.43045 288.898826 
L 191.339723 289.108602 
L 192.248997 289.080216 
L 193.15827 288.914202 
L 194.976817 288.909426 
L 195.88609 289.053406 
L 198.61391 288.886594 
L 199.523183 289.220395 
L 200.432457 289.381035 
L 201.34173 289.093803 
L 202.251003 289.263746 
L 204.06955 289.137696 
L 204.978823 289.318606 
L 205.888097 289.241278 
L 206.79737 289.421865 
L 207.706643 289.353741 
L 208.615917 289.080918 
L 210.434463 289.533434 
L 211.343737 289.274906 
L 213.162283 289.423128 
L 214.071557 289.328337 
L 217.70865 289.554184 
L 218.617923 289.47657 
L 219.527197 289.649128 
L 220.43647 289.422978 
L 221.345743 289.599665 
L 222.255017 289.369418 
L 223.16429 289.525612 
L 224.073563 289.40056 
L 225.89211 289.654068 
L 226.801383 289.557627 
L 227.710657 289.631789 
L 228.61993 289.396943 
L 229.529203 289.683354 
L 232.257023 289.603818 
L 233.166297 289.707887 
L 234.07557 289.632612 
L 234.984843 289.687334 
L 235.894117 289.580992 
L 238.621937 289.76641 
L 242.25903 289.444146 
L 243.168303 289.743893 
L 244.98685 289.819656 
L 245.896123 289.948664 
L 246.805397 289.638671 
L 247.71467 289.82372 
L 249.533217 289.749927 
L 255.89813 289.971951 
L 256.807403 289.700709 
L 257.716677 289.70855 
L 258.62595 289.905726 
L 259.535223 289.655334 
L 261.35377 289.867046 
L 263.172317 289.641592 
L 264.08159 289.721341 
L 264.990863 289.967705 
L 265.900137 289.85066 
L 267.718683 289.938222 
L 268.627957 289.785305 
L 269.53723 290.022068 
L 270.446503 289.806655 
L 271.355777 289.839118 
L 272.26505 289.748725 
L 274.083597 289.788263 
L 274.99287 290.14809 
L 275.902144 289.853474 
L 276.811417 289.736248 
L 277.72069 289.852465 
L 278.629964 290.089681 
L 279.539237 290.120327 
L 280.44851 289.820557 
L 281.357784 290.045219 
L 282.267057 289.82146 
L 283.17633 290.104564 
L 284.085604 289.946018 
L 286.813424 289.965052 
L 287.722697 289.679239 
L 288.63197 289.993245 
L 289.541244 289.950659 
L 290.450517 290.109488 
L 293.178337 289.726821 
L 294.08761 290.266526 
L 295.906157 289.856586 
L 297.724704 290.104424 
L 300.452524 289.748967 
L 302.27107 290.073418 
L 303.180344 289.970744 
L 304.089617 290.074845 
L 304.99889 290.004547 
L 305.908164 290.050225 
L 306.817437 289.792009 
L 308.635984 290.036846 
L 311.363804 290.007517 
L 312.273077 290.237085 
L 313.18235 290.101054 
L 314.091624 290.181706 
L 315.000897 290.078576 
L 315.91017 290.158573 
L 317.728717 290.016044 
L 318.63799 290.162528 
L 319.547264 290.001944 
L 320.456537 290.167601 
L 325.002904 290.024787 
L 325.912177 290.275401 
L 326.82145 290.137303 
L 327.730724 290.314627 
L 328.639997 290.1091 
L 331.367817 290.329091 
L 332.27709 290.013482 
L 333.186364 289.979322 
L 333.186364 289.979322 
" clip-path="url(#p3271eb1bc6)" style="fill: none; stroke: #1f77b4; stroke-width: 1.5; stroke-linecap: square"/>
   </g>
   <g id="patch_3">
    <path d="M 47.72 303.64 
L 47.72 10.8 
" style="fill: none; stroke: #000000; stroke-width: 0.8; stroke-linejoin: miter; stroke-linecap: square"/>
   </g>
   <g id="patch_4">
    <path d="M 346.78 303.64 
L 346.78 10.8 
" style="fill: none; stroke: #000000; stroke-width: 0.8; stroke-linejoin: miter; stroke-linecap: square"/>
   </g>
   <g id="patch_5">
    <path d="M 47.72 303.64 
L 346.78 303.64 
" style="fill: none; stroke: #000000; stroke-width: 0.8; stroke-linejoin: miter; stroke-linecap: square"/>
   </g>
   <g id="patch_6">
    <path d="M 47.72 10.8 
L 346.78 10.8 
" style="fill: none; stroke: #000000; stroke-width: 0.8; stroke-linejoin: miter; stroke-linecap: square"/>
   </g>
  </g>
  <g id="axes_2">
   <g id="matplotlib.axis_3">
    <g id="ytick_6">
     <g id="line2d_14">
      <defs>
       <path id="mbb2e7c479d" d="M 0 0 
L 3.5 0 
" style="stroke: #000000; stroke-width: 0.8"/>
      </defs>
      <g>
       <use xlink:href="#mbb2e7c479d" x="346.78" y="279.505118" style="stroke: #000000; stroke-width: 0.8"/>
      </g>
     </g>
     <g id="text_15">
      <!-- 90 -->
      <g style="fill: #ff7f0e" transform="translate(353.78 283.304337) scale(0.1 -0.1)">
       <defs>
        <path id="DejaVuSans-39" d="M 703 97 
L 703 672 
Q 941 559 1184 500 
Q 1428 441 1663 441 
Q 2288 441 2617 861 
Q 2947 1281 2994 2138 
Q 2813 1869 2534 1725 
Q 2256 1581 1919 1581 
Q 1219 1581 811 2004 
Q 403 2428 403 3163 
Q 403 3881 828 4315 
Q 1253 4750 1959 4750 
Q 2769 4750 3195 4129 
Q 3622 3509 3622 2328 
Q 3622 1225 3098 567 
Q 2575 -91 1691 -91 
Q 1453 -91 1209 -44 
Q 966 3 703 97 
z
M 1959 2075 
Q 2384 2075 2632 2365 
Q 2881 2656 2881 3163 
Q 2881 3666 2632 3958 
Q 2384 4250 1959 4250 
Q 1534 4250 1286 3958 
Q 1038 3666 1038 3163 
Q 1038 2656 1286 2365 
Q 1534 2075 1959 2075 
z
" transform="scale(0.015625)"/>
       </defs>
       <use xlink:href="#DejaVuSans-39"/>
       <use xlink:href="#DejaVuSans-30" x="63.623047"/>
      </g>
     </g>
    </g>
    <g id="ytick_7">
     <g id="line2d_15">
      <g>
       <use xlink:href="#mbb2e7c479d" x="346.78" y="217.653847" style="stroke: #000000; stroke-width: 0.8"/>
      </g>
     </g>
     <g id="text_16">
      <!-- 92 -->
      <g style="fill: #ff7f0e" transform="translate(353.78 221.453065) scale(0.1 -0.1)">
       <use xlink:href="#DejaVuSans-39"/>
       <use xlink:href="#DejaVuSans-32" x="63.623047"/>
      </g>
     </g>
    </g>
    <g id="ytick_8">
     <g id="line2d_16">
      <g>
       <use xlink:href="#mbb2e7c479d" x="346.78" y="155.802575" style="stroke: #000000; stroke-width: 0.8"/>
      </g>
     </g>
     <g id="text_17">
      <!-- 94 -->
      <g style="fill: #ff7f0e" transform="translate(353.78 159.601794) scale(0.1 -0.1)">
       <use xlink:href="#DejaVuSans-39"/>
       <use xlink:href="#DejaVuSans-34" x="63.623047"/>
      </g>
     </g>
    </g>
    <g id="ytick_9">
     <g id="line2d_17">
      <g>
       <use xlink:href="#mbb2e7c479d" x="346.78" y="93.951303" style="stroke: #000000; stroke-width: 0.8"/>
      </g>
     </g>
     <g id="text_18">
      <!-- 96 -->
      <g style="fill: #ff7f0e" transform="translate(353.78 97.750522) scale(0.1 -0.1)">
       <use xlink:href="#DejaVuSans-39"/>
       <use xlink:href="#DejaVuSans-36" x="63.623047"/>
      </g>
     </g>
    </g>
    <g id="ytick_10">
     <g id="line2d_18">
      <g>
       <use xlink:href="#mbb2e7c479d" x="346.78" y="32.100032" style="stroke: #000000; stroke-width: 0.8"/>
      </g>
     </g>
     <g id="text_19">
      <!-- 98 -->
      <g style="fill: #ff7f0e" transform="translate(353.78 35.89925) scale(0.1 -0.1)">
       <use xlink:href="#DejaVuSans-39"/>
       <use xlink:href="#DejaVuSans-38" x="63.623047"/>
      </g>
     </g>
    </g>
    <g id="text_20">
     <!-- Validation Accuracy (%) -->
     <g style="fill: #ff7f0e" transform="translate(378.103437 216.569219) rotate(-90) scale(0.1 -0.1)">
      <defs>
       <path id="DejaVuSans-56" d="M 1831 0 
L 50 4666 
L 709 4666 
L 2188 738 
L 3669 4666 
L 4325 4666 
L 2547 0 
L 1831 0 
z
" transform="scale(0.015625)"/>
       <path id="DejaVuSans-6c" d="M 603 4863 
L 1178 4863 
L 1178 0 
L 603 0 
L 603 4863 
z
" transform="scale(0.015625)"/>
       <path id="DejaVuSans-64" d="M 2906 2969 
L 2906 4863 
L 3481 4863 
L 3481 0 
L 2906 0 
L 2906 525 
Q 2725 213 2448 61 
Q 2172 -91 1784 -91 
Q 1150 -91 751 415 
Q 353 922 353 1747 
Q 353 2572 751 3078 
Q 1150 3584 1784 3584 
Q 2172 3584 2448 3432 
Q 2725 3281 2906 2969 
z
M 947 1747 
Q 947 1113 1208 752 
Q 1469 391 1925 391 
Q 2381 391 2643 752 
Q 2906 1113 2906 1747 
Q 2906 2381 2643 2742 
Q 2381 3103 1925 3103 
Q 1469 3103 1208 2742 
Q 947 2381 947 1747 
z
" transform="scale(0.015625)"/>
       <path id="DejaVuSans-74" d="M 1172 4494 
L 1172 3500 
L 2356 3500 
L 2356 3053 
L 1172 3053 
L 1172 1153 
Q 1172 725 1289 603 
Q 1406 481 1766 481 
L 2356 481 
L 2356 0 
L 1766 0 
Q 1100 0 847 248 
Q 594 497 594 1153 
L 594 3053 
L 172 3053 
L 172 3500 
L 594 3500 
L 594 4494 
L 1172 4494 
z
" transform="scale(0.015625)"/>
       <path id="DejaVuSans-41" d="M 2188 4044 
L 1331 1722 
L 3047 1722 
L 2188 4044 
z
M 1831 4666 
L 2547 4666 
L 4325 0 
L 3669 0 
L 3244 1197 
L 1141 1197 
L 716 0 
L 50 0 
L 1831 4666 
z
" transform="scale(0.015625)"/>
       <path id="DejaVuSans-75" d="M 544 1381 
L 544 3500 
L 1119 3500 
L 1119 1403 
Q 1119 906 1312 657 
Q 1506 409 1894 409 
Q 2359 409 2629 706 
Q 2900 1003 2900 1516 
L 2900 3500 
L 3475 3500 
L 3475 0 
L 2900 0 
L 2900 538 
Q 2691 219 2414 64 
Q 2138 -91 1772 -91 
Q 1169 -91 856 284 
Q 544 659 544 1381 
z
M 1991 3584 
L 1991 3584 
z
" transform="scale(0.015625)"/>
       <path id="DejaVuSans-79" d="M 2059 -325 
Q 1816 -950 1584 -1140 
Q 1353 -1331 966 -1331 
L 506 -1331 
L 506 -850 
L 844 -850 
Q 1081 -850 1212 -737 
Q 1344 -625 1503 -206 
L 1606 56 
L 191 3500 
L 800 3500 
L 1894 763 
L 2988 3500 
L 3597 3500 
L 2059 -325 
z
" transform="scale(0.015625)"/>
       <path id="DejaVuSans-28" d="M 1984 4856 
Q 1566 4138 1362 3434 
Q 1159 2731 1159 2009 
Q 1159 1288 1364 580 
Q 1569 -128 1984 -844 
L 1484 -844 
Q 1016 -109 783 600 
Q 550 1309 550 2009 
Q 550 2706 781 3412 
Q 1013 4119 1484 4856 
L 1984 4856 
z
" transform="scale(0.015625)"/>
       <path id="DejaVuSans-25" d="M 4653 2053 
Q 4381 2053 4226 1822 
Q 4072 1591 4072 1178 
Q 4072 772 4226 539 
Q 4381 306 4653 306 
Q 4919 306 5073 539 
Q 5228 772 5228 1178 
Q 5228 1588 5073 1820 
Q 4919 2053 4653 2053 
z
M 4653 2450 
Q 5147 2450 5437 2106 
Q 5728 1763 5728 1178 
Q 5728 594 5436 251 
Q 5144 -91 4653 -91 
Q 4153 -91 3862 251 
Q 3572 594 3572 1178 
Q 3572 1766 3864 2108 
Q 4156 2450 4653 2450 
z
M 1428 4353 
Q 1159 4353 1004 4120 
Q 850 3888 850 3481 
Q 850 3069 1003 2837 
Q 1156 2606 1428 2606 
Q 1700 2606 1854 2837 
Q 2009 3069 2009 3481 
Q 2009 3884 1853 4118 
Q 1697 4353 1428 4353 
z
M 4250 4750 
L 4750 4750 
L 1831 -91 
L 1331 -91 
L 4250 4750 
z
M 1428 4750 
Q 1922 4750 2215 4408 
Q 2509 4066 2509 3481 
Q 2509 2891 2217 2550 
Q 1925 2209 1428 2209 
Q 931 2209 642 2551 
Q 353 2894 353 3481 
Q 353 4063 643 4406 
Q 934 4750 1428 4750 
z
" transform="scale(0.015625)"/>
       <path id="DejaVuSans-29" d="M 513 4856 
L 1013 4856 
Q 1481 4119 1714 3412 
Q 1947 2706 1947 2009 
Q 1947 1309 1714 600 
Q 1481 -109 1013 -844 
L 513 -844 
Q 928 -128 1133 580 
Q 1338 1288 1338 2009 
Q 1338 2731 1133 3434 
Q 928 4138 513 4856 
z
" transform="scale(0.015625)"/>
      </defs>
      <use xlink:href="#DejaVuSans-56"/>
      <use xlink:href="#DejaVuSans-61" x="60.658203"/>
      <use xlink:href="#DejaVuSans-6c" x="121.9375"/>
      <use xlink:href="#DejaVuSans-69" x="149.720703"/>
      <use xlink:href="#DejaVuSans-64" x="177.503906"/>
      <use xlink:href="#DejaVuSans-61" x="240.980469"/>
      <use xlink:href="#DejaVuSans-74" x="302.259766"/>
      <use xlink:href="#DejaVuSans-69" x="341.46875"/>
      <use xlink:href="#DejaVuSans-6f" x="369.251953"/>
      <use xlink:href="#DejaVuSans-6e" x="430.433594"/>
      <use xlink:href="#DejaVuSans-20" x="493.8125"/>
      <use xlink:href="#DejaVuSans-41" x="525.599609"/>
      <use xlink:href="#DejaVuSans-63" x="592.257812"/>
      <use xlink:href="#DejaVuSans-63" x="647.238281"/>
      <use xlink:href="#DejaVuSans-75" x="702.21875"/>
      <use xlink:href="#DejaVuSans-72" x="765.597656"/>
      <use xlink:href="#DejaVuSans-61" x="806.710938"/>
      <use xlink:href="#DejaVuSans-63" x="867.990234"/>
      <use xlink:href="#DejaVuSans-79" x="922.970703"/>
      <use xlink:href="#DejaVuSans-20" x="982.150391"/>
      <use xlink:href="#DejaVuSans-28" x="1013.9375"/>
      <use xlink:href="#DejaVuSans-25" x="1052.951172"/>
      <use xlink:href="#DejaVuSans-29" x="1147.970703"/>
     </g>
    </g>
   </g>
   <g id="line2d_19">
    <path d="M 61.313636 290.329091 
L 62.22291 215.592138 
L 63.132183 178.223661 
L 64.041456 149.617448 
L 64.95073 124.876939 
L 65.860003 110.960403 
L 67.67855 90.343313 
L 68.587823 98.847862 
L 69.497096 80.292481 
L 70.40637 78.230772 
L 71.315643 77.199917 
L 72.224916 71.01479 
L 73.13419 74.107354 
L 74.043463 63.541095 
L 74.952736 57.871395 
L 75.86201 65.34509 
L 76.771283 65.602804 
L 77.680556 60.448531 
L 78.58983 56.067399 
L 79.499103 57.613681 
L 80.408376 55.551972 
L 81.31765 55.294259 
L 82.226923 50.3977 
L 83.136196 51.17084 
L 84.04547 49.624559 
L 84.954743 48.33599 
L 85.864016 55.551972 
L 86.77329 48.33599 
L 87.682563 46.789709 
L 88.591836 49.109131 
L 89.50111 41.120009 
L 90.410383 41.377722 
L 91.319656 40.604582 
L 92.22893 36.481163 
L 93.138203 43.697145 
L 94.047476 43.439431 
L 94.95675 40.604582 
L 95.866023 39.0583 
L 96.775296 43.181718 
L 97.68457 40.346868 
L 98.593843 38.800586 
L 99.503116 44.728 
L 100.41239 37.512018 
L 101.321663 39.831441 
L 102.230936 38.285159 
L 103.14021 41.377722 
L 104.049483 39.0583 
L 104.958756 37.512018 
L 105.86803 36.22345 
L 107.686576 36.22345 
L 108.59585 33.904027 
L 109.505123 39.573727 
L 110.414396 36.996591 
L 111.32367 38.542872 
L 112.232943 35.965736 
L 113.142216 35.192595 
L 114.05149 35.450309 
L 114.960763 33.130886 
L 115.870036 35.192595 
L 116.77931 33.130886 
L 117.688583 34.934882 
L 118.597856 34.161741 
L 119.50713 32.100032 
L 120.416403 31.326891 
L 121.325676 35.192595 
L 122.23495 34.419454 
L 123.144223 35.965736 
L 124.053497 32.873173 
L 124.96277 35.450309 
L 125.872043 34.934882 
L 126.781317 34.161741 
L 127.69059 34.419454 
L 128.599863 33.130886 
L 129.509137 30.811464 
L 130.41841 32.100032 
L 131.327683 30.811464 
L 132.236957 31.842318 
L 133.14623 30.811464 
L 134.055503 34.677168 
L 134.964777 31.069177 
L 136.783323 32.100032 
L 137.692597 34.419454 
L 138.60187 30.811464 
L 139.511143 33.130886 
L 140.420417 32.873173 
L 141.32969 34.677168 
L 142.238963 32.100032 
L 143.148237 34.419454 
L 144.05751 31.326891 
L 144.966783 29.780609 
L 145.876057 31.584604 
L 146.78533 30.811464 
L 147.694603 32.357745 
L 148.603877 33.130886 
L 149.51315 32.357745 
L 150.422423 31.326891 
L 151.331697 29.007468 
L 152.24097 33.130886 
L 153.150243 31.326891 
L 154.059517 31.842318 
L 154.96879 32.615459 
L 155.878063 31.584604 
L 156.787337 31.069177 
L 157.69661 33.3886 
L 158.605883 31.584604 
L 159.515157 31.584604 
L 160.42443 33.646313 
L 161.333703 32.615459 
L 162.242977 28.749754 
L 163.15225 30.55375 
L 164.061523 33.130886 
L 164.970797 30.296036 
L 165.88007 29.007468 
L 166.789343 28.234327 
L 168.60789 32.615459 
L 169.517163 33.3886 
L 170.426437 29.780609 
L 171.33571 31.584604 
L 172.244983 31.842318 
L 173.154257 31.326891 
L 174.06353 31.326891 
L 174.972803 31.842318 
L 175.882077 31.584604 
L 176.79135 29.265182 
L 177.700623 29.007468 
L 178.609897 31.584604 
L 179.51917 30.55375 
L 180.428443 30.811464 
L 181.337717 32.100032 
L 182.24699 31.326891 
L 183.156263 30.296036 
L 184.065537 31.584604 
L 184.97481 31.326891 
L 185.884083 32.100032 
L 186.793357 32.615459 
L 187.70263 28.749754 
L 188.611903 29.780609 
L 189.521177 29.007468 
L 190.43045 30.811464 
L 191.339723 30.55375 
L 192.248997 27.7189 
L 193.15827 31.326891 
L 194.067543 30.038323 
L 194.976817 29.265182 
L 195.88609 30.296036 
L 196.795363 27.976614 
L 197.704637 30.296036 
L 198.61391 30.811464 
L 199.523183 29.265182 
L 200.432457 30.038323 
L 201.34173 30.55375 
L 202.251003 30.296036 
L 203.160277 28.492041 
L 204.06955 31.069177 
L 204.978823 30.55375 
L 205.888097 31.069177 
L 206.79737 27.461186 
L 207.706643 29.007468 
L 208.615917 29.265182 
L 209.52519 29.265182 
L 210.434463 28.234327 
L 211.343737 30.55375 
L 212.25301 31.069177 
L 213.162283 29.780609 
L 214.071557 32.100032 
L 214.98083 27.7189 
L 215.890103 29.780609 
L 216.799377 27.203473 
L 217.70865 28.492041 
L 218.617923 29.007468 
L 219.527197 29.780609 
L 220.43647 28.749754 
L 221.345743 28.234327 
L 222.255017 31.069177 
L 223.16429 30.038323 
L 224.073563 29.265182 
L 224.982837 29.007468 
L 226.801383 27.461186 
L 227.710657 28.749754 
L 228.61993 28.492041 
L 230.438477 30.038323 
L 231.34775 30.55375 
L 232.257023 30.296036 
L 233.166297 27.976614 
L 234.07557 29.780609 
L 234.984843 30.038323 
L 235.894117 27.461186 
L 236.80339 27.976614 
L 237.712663 28.234327 
L 238.621937 26.688045 
L 239.53121 28.749754 
L 240.440483 28.492041 
L 241.349757 26.945759 
L 242.25903 28.492041 
L 243.168303 27.461186 
L 244.077577 27.461186 
L 244.98685 26.430332 
L 245.896123 27.461186 
L 246.805397 26.945759 
L 247.71467 28.492041 
L 248.623943 28.492041 
L 249.533217 29.780609 
L 250.44249 27.976614 
L 251.351763 29.007468 
L 252.261037 28.749754 
L 253.17031 29.522895 
L 254.079583 28.492041 
L 254.988857 28.749754 
L 255.89813 29.265182 
L 256.807403 28.234327 
L 257.716677 29.522895 
L 258.62595 28.234327 
L 259.535223 27.7189 
L 260.444497 28.492041 
L 261.35377 28.749754 
L 262.263043 30.55375 
L 263.172317 31.069177 
L 264.08159 29.007468 
L 264.990863 29.780609 
L 266.80941 28.749754 
L 267.718683 26.430332 
L 268.627957 29.265182 
L 269.53723 29.007468 
L 270.446503 27.7189 
L 271.355777 31.069177 
L 272.26505 26.430332 
L 273.174324 26.172618 
L 274.083597 27.461186 
L 274.99287 29.522895 
L 275.902144 30.811464 
L 276.811417 27.203473 
L 277.72069 29.265182 
L 278.629964 28.234327 
L 279.539237 28.749754 
L 280.44851 27.461186 
L 281.357784 27.203473 
L 282.267057 25.657191 
L 283.17633 27.461186 
L 284.085604 26.430332 
L 284.994877 29.007468 
L 285.90415 28.492041 
L 286.813424 28.749754 
L 287.722697 27.7189 
L 288.63197 27.461186 
L 289.541244 29.007468 
L 290.450517 26.945759 
L 291.35979 26.430332 
L 292.269064 28.234327 
L 293.178337 25.657191 
L 294.08761 27.461186 
L 294.996884 26.688045 
L 295.906157 27.203473 
L 296.81543 26.172618 
L 297.724704 26.430332 
L 298.633977 25.657191 
L 299.54325 26.172618 
L 300.452524 25.914905 
L 301.361797 25.399477 
L 302.27107 27.976614 
L 303.180344 26.688045 
L 304.089617 26.688045 
L 304.99889 25.657191 
L 305.908164 27.976614 
L 306.817437 27.976614 
L 307.72671 26.172618 
L 308.635984 24.110909 
L 309.545257 27.203473 
L 310.45453 26.945759 
L 311.363804 27.203473 
L 312.273077 26.945759 
L 313.18235 26.430332 
L 314.091624 26.172618 
L 315.000897 27.203473 
L 315.91017 27.7189 
L 316.819444 26.430332 
L 317.728717 27.461186 
L 318.63799 26.430332 
L 319.547264 24.88405 
L 320.456537 29.007468 
L 321.36581 26.945759 
L 322.275084 28.749754 
L 323.184357 28.749754 
L 324.09363 29.265182 
L 325.002904 25.141764 
L 326.82145 29.007468 
L 327.730724 26.688045 
L 328.639997 26.688045 
L 329.54927 25.399477 
L 330.458544 27.461186 
L 331.367817 26.688045 
L 332.27709 27.203473 
L 333.186364 25.914905 
L 333.186364 25.914905 
" clip-path="url(#p3271eb1bc6)" style="fill: none; stroke: #ff7f0e; stroke-width: 1.5; stroke-linecap: square"/>
   </g>
   <g id="patch_7">
    <path d="M 47.72 303.64 
L 47.72 10.8 
" style="fill: none; stroke: #000000; stroke-width: 0.8; stroke-linejoin: miter; stroke-linecap: square"/>
   </g>
   <g id="patch_8">
    <path d="M 346.78 303.64 
L 346.78 10.8 
" style="fill: none; stroke: #000000; stroke-width: 0.8; stroke-linejoin: miter; stroke-linecap: square"/>
   </g>
   <g id="patch_9">
    <path d="M 47.72 303.64 
L 346.78 303.64 
" style="fill: none; stroke: #000000; stroke-width: 0.8; stroke-linejoin: miter; stroke-linecap: square"/>
   </g>
   <g id="patch_10">
    <path d="M 47.72 10.8 
L 346.78 10.8 
" style="fill: none; stroke: #000000; stroke-width: 0.8; stroke-linejoin: miter; stroke-linecap: square"/>
   </g>
  </g>
  <g id="axes_3">
   <g id="matplotlib.axis_4">
    <g id="ytick_11">
     <g id="line2d_20">
      <g>
       <use xlink:href="#mbb2e7c479d" x="406.78" y="286.614439" style="stroke: #000000; stroke-width: 0.8"/>
      </g>
     </g>
     <g id="text_21">
      <!-- 0.55 -->
      <g style="fill: #2ca02c" transform="translate(413.78 290.413657) scale(0.1 -0.1)">
       <use xlink:href="#DejaVuSans-30"/>
       <use xlink:href="#DejaVuSans-2e" x="63.623047"/>
       <use xlink:href="#DejaVuSans-35" x="95.410156"/>
       <use xlink:href="#DejaVuSans-35" x="159.033203"/>
      </g>
     </g>
    </g>
    <g id="ytick_12">
     <g id="line2d_21">
      <g>
       <use xlink:href="#mbb2e7c479d" x="406.78" y="250.904928" style="stroke: #000000; stroke-width: 0.8"/>
      </g>
     </g>
     <g id="text_22">
      <!-- 0.60 -->
      <g style="fill: #2ca02c" transform="translate(413.78 254.704146) scale(0.1 -0.1)">
       <use xlink:href="#DejaVuSans-30"/>
       <use xlink:href="#DejaVuSans-2e" x="63.623047"/>
       <use xlink:href="#DejaVuSans-36" x="95.410156"/>
       <use xlink:href="#DejaVuSans-30" x="159.033203"/>
      </g>
     </g>
    </g>
    <g id="ytick_13">
     <g id="line2d_22">
      <g>
       <use xlink:href="#mbb2e7c479d" x="406.78" y="215.195417" style="stroke: #000000; stroke-width: 0.8"/>
      </g>
     </g>
     <g id="text_23">
      <!-- 0.65 -->
      <g style="fill: #2ca02c" transform="translate(413.78 218.994635) scale(0.1 -0.1)">
       <use xlink:href="#DejaVuSans-30"/>
       <use xlink:href="#DejaVuSans-2e" x="63.623047"/>
       <use xlink:href="#DejaVuSans-36" x="95.410156"/>
       <use xlink:href="#DejaVuSans-35" x="159.033203"/>
      </g>
     </g>
    </g>
    <g id="ytick_14">
     <g id="line2d_23">
      <g>
       <use xlink:href="#mbb2e7c479d" x="406.78" y="179.485906" style="stroke: #000000; stroke-width: 0.8"/>
      </g>
     </g>
     <g id="text_24">
      <!-- 0.70 -->
      <g style="fill: #2ca02c" transform="translate(413.78 183.285124) scale(0.1 -0.1)">
       <defs>
        <path id="DejaVuSans-37" d="M 525 4666 
L 3525 4666 
L 3525 4397 
L 1831 0 
L 1172 0 
L 2766 4134 
L 525 4134 
L 525 4666 
z
" transform="scale(0.015625)"/>
       </defs>
       <use xlink:href="#DejaVuSans-30"/>
       <use xlink:href="#DejaVuSans-2e" x="63.623047"/>
       <use xlink:href="#DejaVuSans-37" x="95.410156"/>
       <use xlink:href="#DejaVuSans-30" x="159.033203"/>
      </g>
     </g>
    </g>
    <g id="ytick_15">
     <g id="line2d_24">
      <g>
       <use xlink:href="#mbb2e7c479d" x="406.78" y="143.776395" style="stroke: #000000; stroke-width: 0.8"/>
      </g>
     </g>
     <g id="text_25">
      <!-- 0.75 -->
      <g style="fill: #2ca02c" transform="translate(413.78 147.575613) scale(0.1 -0.1)">
       <use xlink:href="#DejaVuSans-30"/>
       <use xlink:href="#DejaVuSans-2e" x="63.623047"/>
       <use xlink:href="#DejaVuSans-37" x="95.410156"/>
       <use xlink:href="#DejaVuSans-35" x="159.033203"/>
      </g>
     </g>
    </g>
    <g id="ytick_16">
     <g id="line2d_25">
      <g>
       <use xlink:href="#mbb2e7c479d" x="406.78" y="108.066884" style="stroke: #000000; stroke-width: 0.8"/>
      </g>
     </g>
     <g id="text_26">
      <!-- 0.80 -->
      <g style="fill: #2ca02c" transform="translate(413.78 111.866102) scale(0.1 -0.1)">
       <use xlink:href="#DejaVuSans-30"/>
       <use xlink:href="#DejaVuSans-2e" x="63.623047"/>
       <use xlink:href="#DejaVuSans-38" x="95.410156"/>
       <use xlink:href="#DejaVuSans-30" x="159.033203"/>
      </g>
     </g>
    </g>
    <g id="ytick_17">
     <g id="line2d_26">
      <g>
       <use xlink:href="#mbb2e7c479d" x="406.78" y="72.357373" style="stroke: #000000; stroke-width: 0.8"/>
      </g>
     </g>
     <g id="text_27">
      <!-- 0.85 -->
      <g style="fill: #2ca02c" transform="translate(413.78 76.156591) scale(0.1 -0.1)">
       <use xlink:href="#DejaVuSans-30"/>
       <use xlink:href="#DejaVuSans-2e" x="63.623047"/>
       <use xlink:href="#DejaVuSans-38" x="95.410156"/>
       <use xlink:href="#DejaVuSans-35" x="159.033203"/>
      </g>
     </g>
    </g>
    <g id="ytick_18">
     <g id="line2d_27">
      <g>
       <use xlink:href="#mbb2e7c479d" x="406.78" y="36.647862" style="stroke: #000000; stroke-width: 0.8"/>
      </g>
     </g>
     <g id="text_28">
      <!-- 0.90 -->
      <g style="fill: #2ca02c" transform="translate(413.78 40.44708) scale(0.1 -0.1)">
       <use xlink:href="#DejaVuSans-30"/>
       <use xlink:href="#DejaVuSans-2e" x="63.623047"/>
       <use xlink:href="#DejaVuSans-39" x="95.410156"/>
       <use xlink:href="#DejaVuSans-30" x="159.033203"/>
      </g>
     </g>
    </g>
    <g id="text_29">
     <!-- Sparsity -->
     <g style="fill: #2ca02c" transform="translate(447.644062 177.60125) rotate(-90) scale(0.1 -0.1)">
      <defs>
       <path id="DejaVuSans-53" d="M 3425 4513 
L 3425 3897 
Q 3066 4069 2747 4153 
Q 2428 4238 2131 4238 
Q 1616 4238 1336 4038 
Q 1056 3838 1056 3469 
Q 1056 3159 1242 3001 
Q 1428 2844 1947 2747 
L 2328 2669 
Q 3034 2534 3370 2195 
Q 3706 1856 3706 1288 
Q 3706 609 3251 259 
Q 2797 -91 1919 -91 
Q 1588 -91 1214 -16 
Q 841 59 441 206 
L 441 856 
Q 825 641 1194 531 
Q 1563 422 1919 422 
Q 2459 422 2753 634 
Q 3047 847 3047 1241 
Q 3047 1584 2836 1778 
Q 2625 1972 2144 2069 
L 1759 2144 
Q 1053 2284 737 2584 
Q 422 2884 422 3419 
Q 422 4038 858 4394 
Q 1294 4750 2059 4750 
Q 2388 4750 2728 4690 
Q 3069 4631 3425 4513 
z
" transform="scale(0.015625)"/>
      </defs>
      <use xlink:href="#DejaVuSans-53"/>
      <use xlink:href="#DejaVuSans-70" x="63.476562"/>
      <use xlink:href="#DejaVuSans-61" x="126.953125"/>
      <use xlink:href="#DejaVuSans-72" x="188.232422"/>
      <use xlink:href="#DejaVuSans-73" x="229.345703"/>
      <use xlink:href="#DejaVuSans-69" x="281.445312"/>
      <use xlink:href="#DejaVuSans-74" x="309.228516"/>
      <use xlink:href="#DejaVuSans-79" x="348.4375"/>
     </g>
    </g>
   </g>
   <g id="line2d_28">
    <path d="M 61.313636 290.329091 
L 62.22291 279.382033 
L 63.132183 271.151391 
L 64.95073 257.682457 
L 66.769276 247.057945 
L 68.587823 237.91424 
L 70.40637 229.876905 
L 73.13419 219.289683 
L 76.771283 206.528544 
L 79.499103 197.800739 
L 83.136196 186.930944 
L 86.77329 176.799594 
L 94.047476 158.052395 
L 102.230936 139.015982 
L 111.32367 120.236772 
L 113.142216 116.84189 
L 116.77931 110.208056 
L 124.053497 98.00006 
L 131.327683 87.498147 
L 138.60187 78.463801 
L 141.32969 75.472772 
L 144.05751 72.571052 
L 146.78533 69.945265 
L 149.51315 67.809959 
L 150.422423 66.96756 
L 152.24097 65.663968 
L 156.787337 62.722276 
L 159.515157 61.03884 
L 167.698617 56.361693 
L 175.882077 52.93216 
L 176.79135 52.701563 
L 178.609897 51.923145 
L 182.24699 50.647564 
L 183.156263 50.223704 
L 190.43045 47.944429 
L 191.339723 47.827151 
L 193.15827 47.200705 
L 199.523183 45.277307 
L 200.432457 45.116056 
L 201.34173 44.732168 
L 202.251003 44.628214 
L 203.160277 44.389615 
L 204.06955 44.032375 
L 204.978823 43.948429 
L 208.615917 42.915448 
L 209.52519 42.812814 
L 218.617923 40.456234 
L 219.527197 40.3536 
L 222.255017 39.757804 
L 246.805397 34.88071 
L 247.71467 34.806086 
L 249.533217 34.410194 
L 251.351763 34.094331 
L 253.17031 33.781066 
L 254.988857 33.579799 
L 255.89813 33.445196 
L 256.807403 33.138614 
L 260.444497 32.66946 
L 261.35377 32.630807 
L 263.172317 32.21627 
L 264.990863 32.024326 
L 266.80941 31.73111 
L 268.627957 31.504515 
L 270.446503 31.235266 
L 276.811417 30.354214 
L 277.72069 30.156949 
L 279.539237 29.957002 
L 280.44851 29.751734 
L 284.085604 29.429189 
L 285.90415 29.199912 
L 291.35979 28.554778 
L 293.178337 28.178936 
L 294.08761 28.185576 
L 296.81543 27.852346 
L 299.54325 27.629752 
L 301.361797 27.339176 
L 332.27709 24.120232 
L 333.186364 24.110909 
L 333.186364 24.110909 
" clip-path="url(#p3271eb1bc6)" style="fill: none; stroke: #2ca02c; stroke-width: 1.5; stroke-linecap: square"/>
   </g>
   <g id="patch_11">
    <path d="M 47.72 303.64 
L 47.72 10.8 
" style="fill: none; stroke: #000000; stroke-width: 0.8; stroke-linejoin: miter; stroke-linecap: square"/>
   </g>
   <g id="patch_12">
    <path d="M 406.78 303.64 
L 406.78 10.8 
" style="fill: none; stroke: #000000; stroke-width: 0.8; stroke-linejoin: miter; stroke-linecap: square"/>
   </g>
   <g id="patch_13">
    <path d="M 47.72 303.64 
L 346.78 303.64 
" style="fill: none; stroke: #000000; stroke-width: 0.8; stroke-linejoin: miter; stroke-linecap: square"/>
   </g>
   <g id="patch_14">
    <path d="M 47.72 10.8 
L 346.78 10.8 
" style="fill: none; stroke: #000000; stroke-width: 0.8; stroke-linejoin: miter; stroke-linecap: square"/>
   </g>
   <g id="text_30">
    <!-- SoftDEEPR on MNIST -->
    <g transform="translate(135.224062 4.8) scale(0.12 -0.12)">
     <defs>
      <path id="DejaVuSans-66" d="M 2375 4863 
L 2375 4384 
L 1825 4384 
Q 1516 4384 1395 4259 
Q 1275 4134 1275 3809 
L 1275 3500 
L 2222 3500 
L 2222 3053 
L 1275 3053 
L 1275 0 
L 697 0 
L 697 3053 
L 147 3053 
L 147 3500 
L 697 3500 
L 697 3744 
Q 697 4328 969 4595 
Q 1241 4863 1831 4863 
L 2375 4863 
z
" transform="scale(0.015625)"/>
      <path id="DejaVuSans-44" d="M 1259 4147 
L 1259 519 
L 2022 519 
Q 2988 519 3436 956 
Q 3884 1394 3884 2338 
Q 3884 3275 3436 3711 
Q 2988 4147 2022 4147 
L 1259 4147 
z
M 628 4666 
L 1925 4666 
Q 3281 4666 3915 4102 
Q 4550 3538 4550 2338 
Q 4550 1131 3912 565 
Q 3275 0 1925 0 
L 628 0 
L 628 4666 
z
" transform="scale(0.015625)"/>
      <path id="DejaVuSans-50" d="M 1259 4147 
L 1259 2394 
L 2053 2394 
Q 2494 2394 2734 2622 
Q 2975 2850 2975 3272 
Q 2975 3691 2734 3919 
Q 2494 4147 2053 4147 
L 1259 4147 
z
M 628 4666 
L 2053 4666 
Q 2838 4666 3239 4311 
Q 3641 3956 3641 3272 
Q 3641 2581 3239 2228 
Q 2838 1875 2053 1875 
L 1259 1875 
L 1259 0 
L 628 0 
L 628 4666 
z
" transform="scale(0.015625)"/>
      <path id="DejaVuSans-52" d="M 2841 2188 
Q 3044 2119 3236 1894 
Q 3428 1669 3622 1275 
L 4263 0 
L 3584 0 
L 2988 1197 
Q 2756 1666 2539 1819 
Q 2322 1972 1947 1972 
L 1259 1972 
L 1259 0 
L 628 0 
L 628 4666 
L 2053 4666 
Q 2853 4666 3247 4331 
Q 3641 3997 3641 3322 
Q 3641 2881 3436 2590 
Q 3231 2300 2841 2188 
z
M 1259 4147 
L 1259 2491 
L 2053 2491 
Q 2509 2491 2742 2702 
Q 2975 2913 2975 3322 
Q 2975 3731 2742 3939 
Q 2509 4147 2053 4147 
L 1259 4147 
z
" transform="scale(0.015625)"/>
      <path id="DejaVuSans-4d" d="M 628 4666 
L 1569 4666 
L 2759 1491 
L 3956 4666 
L 4897 4666 
L 4897 0 
L 4281 0 
L 4281 4097 
L 3078 897 
L 2444 897 
L 1241 4097 
L 1241 0 
L 628 0 
L 628 4666 
z
" transform="scale(0.015625)"/>
      <path id="DejaVuSans-4e" d="M 628 4666 
L 1478 4666 
L 3547 763 
L 3547 4666 
L 4159 4666 
L 4159 0 
L 3309 0 
L 1241 3903 
L 1241 0 
L 628 0 
L 628 4666 
z
" transform="scale(0.015625)"/>
      <path id="DejaVuSans-49" d="M 628 4666 
L 1259 4666 
L 1259 0 
L 628 0 
L 628 4666 
z
" transform="scale(0.015625)"/>
     </defs>
     <use xlink:href="#DejaVuSans-53"/>
     <use xlink:href="#DejaVuSans-6f" x="63.476562"/>
     <use xlink:href="#DejaVuSans-66" x="124.658203"/>
     <use xlink:href="#DejaVuSans-74" x="158.113281"/>
     <use xlink:href="#DejaVuSans-44" x="197.322266"/>
     <use xlink:href="#DejaVuSans-45" x="274.324219"/>
     <use xlink:href="#DejaVuSans-45" x="337.507812"/>
     <use xlink:href="#DejaVuSans-50" x="400.691406"/>
     <use xlink:href="#DejaVuSans-52" x="460.994141"/>
     <use xlink:href="#DejaVuSans-20" x="530.476562"/>
     <use xlink:href="#DejaVuSans-6f" x="562.263672"/>
     <use xlink:href="#DejaVuSans-6e" x="623.445312"/>
     <use xlink:href="#DejaVuSans-20" x="686.824219"/>
     <use xlink:href="#DejaVuSans-4d" x="718.611328"/>
     <use xlink:href="#DejaVuSans-4e" x="804.890625"/>
     <use xlink:href="#DejaVuSans-49" x="879.695312"/>
     <use xlink:href="#DejaVuSans-53" x="909.1875"/>
     <use xlink:href="#DejaVuSans-54" x="972.664062"/>
    </g>
   </g>
  </g>
 </g>
 <defs>
  <clipPath id="p3271eb1bc6">
   <rect x="47.72" y="10.8" width="299.06" height="292.84"/>
  </clipPath>
 </defs>
</svg>
